SplineFontDB: 3.0
FontName: RoutedGothicWide
FullName: Routed Gothic Wide
FamilyName: Routed Gothic Wide
Weight: Regular

StartChar: exclam
Encoding: 33 33 0
Width: 360
VWidth: 32
Flags: HW
HStem: 48 48<152.382 207.618>
VStem: 150 60<49.9059 94.0941>
LayerCount: 2
Fore
SplineSet
258 80 m 0
 258 26.3631740889 208.73146149 0 170 0 c 0
 141.250197543 0 102 18.3631916673 102 64 c 0
 102 117.636825911 151.26853851 144 190 144 c 0
 218.749802457 144 258 125.636808333 258 80 c 0
180 736 m 0
 206.144471708 736 228 714.146366075 228 688 c 2
 228 288 l 2
 228 261.855528292 206.146366075 240 180 240 c 0
 153.853633925 240 132 261.855528292 132 288 c 2
 132 688 l 2
 132 714.146366075 153.855528292 736 180 736 c 0
EndSplineSet
EndChar

StartChar: quotedbl
Encoding: 34 34 1
Width: 480
VWidth: 32
Flags: HW
LayerCount: 2
Fore
SplineSet
340 736 m 0
 366.144471708 736 388 714.146366075 388 688 c 2
 388 480 l 2
 388 453.855528292 366.146366075 432 340 432 c 0
 313.853633925 432 292 453.855528292 292 480 c 2
 292 688 l 2
 292 714.146366075 313.855528292 736 340 736 c 0
140 736 m 0
 166.144471708 736 188 714.146366075 188 688 c 2
 188 480 l 2
 188 453.855528292 166.146366075 432 140 432 c 0
 113.853633925 432 92 453.855528292 92 480 c 2
 92 688 l 2
 92 714.146366075 113.855528292 736 140 736 c 0
EndSplineSet
EndChar

StartChar: numbersign
Encoding: 35 35 2
Width: 840
VWidth: 32
Flags: HW
LayerCount: 2
Fore
SplineSet
404.396171111 2.60704323337 m 0
 384.685171773 9.38269925614 372.067236915 28.407331123 372.067236915 48.3727489671 c 0
 372.067236915 53.4509373152 372.883535573 58.5899884225 374.607043233 63.6038288885 c 2
 435.243227053 240 l 1
 316.756772947 240 l 1
 245.392956767 32.3961711115 l 2
 238.616876858 12.6839386495 219.591707747 0.0672988334316 199.627090597 0.0672988334316 c 0
 194.548858061 0.0672988334316 189.409843388 0.883593388139 184.396171111 2.60704323337 c 0
 164.685171773 9.38269925614 152.067236915 28.407331123 152.067236915 48.3727489671 c 0
 152.067236915 53.4509373152 152.883535573 58.5899884225 154.607043233 63.6038288885 c 2
 215.243227053 240 l 1
 140 240 l 2
 113.853633925 240 92 261.855528292 92 288 c 0
 92 314.144471708 113.853633925 336 140 336 c 2
 248.243227053 336 l 1
 270.243227053 400 l 1
 140 400 l 2
 113.853633925 400 92 421.855528292 92 448 c 0
 92 474.144471708 113.853633925 496 140 496 c 2
 303.243227053 496 l 1
 374.607043233 703.603828889 l 2
 381.382699256 723.314828227 400.407331123 735.932763085 420.372748967 735.932763085 c 0
 425.450937315 735.932763085 430.589988423 735.116464427 435.603828889 733.392956767 c 0
 455.31606135 726.616876858 467.932701167 707.591707747 467.932701167 687.627090597 c 0
 467.932701167 682.548858061 467.116406612 677.409843388 465.392956767 672.396171111 c 2
 404.756772947 496 l 1
 523.243227053 496 l 1
 594.607043233 703.603828889 l 2
 601.382699256 723.314828227 620.407331123 735.932763085 640.372748967 735.932763085 c 0
 645.450937315 735.932763085 650.589988423 735.116464427 655.603828889 733.392956767 c 0
 675.31606135 726.616876858 687.932701167 707.591707747 687.932701167 687.627090597 c 0
 687.932701167 682.548858061 687.116406612 677.409843388 685.392956767 672.396171111 c 2
 624.756772947 496 l 1
 700 496 l 2
 726.144471708 496 748 474.146366075 748 448 c 0
 748 421.853633925 726.144471708 400 700 400 c 2
 591.756772947 400 l 1
 569.756772947 336 l 1
 700 336 l 2
 726.144471708 336 748 314.146366075 748 288 c 0
 748 261.853633925 726.144471708 240 700 240 c 2
 536.756772947 240 l 1
 465.392956767 32.3961711115 l 2
 458.616876858 12.6839386495 439.591707747 0.0672988334315 419.627090597 0.0672988334315 c 0
 414.548858061 0.0672988334315 409.409843388 0.883593388139 404.396171111 2.60704323337 c 0
371.756772947 400 m 1
 349.756772947 336 l 1
 468.243227053 336 l 1
 490.243227053 400 l 1
 371.756772947 400 l 1
EndSplineSet
EndChar

StartChar: dollar
Encoding: 36 36 3
Width: 630
VWidth: 32
Flags: HW
LayerCount: 2
Fore
SplineSet
513.727670883 501.846753935 m 0
 504.433356681 492.668253891 492.928131389 487.916191209 480.985976881 487.916191209 c 0
 468.443600507 487.916191209 455.419270374 493.157942937 443.968122676 504.018679322 c 1
 443.968122676 504.018679322 418.829080846 527.621009826 368 538.556823032 c 1
 368 421.825794993 l 1
 490.745552904 400.219101101 538 336.352408729 538 264 c 0
 538 177.79728268 467.923063748 116.133140348 368 100.110762188 c 1
 368 48 l 2
 368 21.8555282921 346.146366075 0 320 0 c 0
 293.853633925 0 272 21.8555282921 272 48 c 2
 272 99.2153944495 l 1
 170.225336545 114.552364577 108.383084376 179.67211057 105.098723152 183.037626581 c 0
 96.3258557617 192.636458466 92.0801385114 204.465522443 92.0801385114 216.144038221 c 0
 92.0801385114 228.709802857 96.9954789929 241.101275232 106.4755868 250.352783288 c 0
 115.667200134 259.322753516 127.796791617 263.845898002 139.964651448 263.845898002 c 0
 152.004874396 263.845898002 164.082567058 259.417148442 173.388316813 250.485707147 c 0
 176.50103665 247.393337763 215.040368464 210.966931916 272 197.213220226 c 1
 272 336.873794291 l 1
 151.236496268 357.458881751 102 426.702414178 102 492 c 1
 102 576.563683764 184.547318719 625.081715126 272 637.058206826 c 1
 272 688 l 2
 272 714.146366075 293.855528292 736 320 736 c 0
 346.144471708 736 368 714.146366075 368 688 c 2
 368 636.092303664 l 1
 460.290578701 622.112980195 508.844494496 575.103417328 514.7050298 569.168933888 c 0
 523.128923195 560.061054956 527.645632981 547.865564571 527.645632981 535.599892404 c 0
 527.645632981 523.437156036 523.204415225 511.205410901 513.727670883 501.846753935 c 0
272 539.856802592 m 1
 217.953029515 528.650731964 198 498.170872297 198 492 c 0
 198 481.799852225 198.104674778 449.072700533 272 433.992422028 c 1
 272 539.856802592 l 1
368 197.110245107 m 1
 425.413647225 209.622433747 442 242.349721541 442 264 c 0
 442 265.764067932 442.034995396 267.605471595 442.034995396 269.506237332 c 0
 442.034995396 287.967893556 438.733618978 312.029616362 368 325.222578663 c 1
 368 197.110245107 l 1
EndSplineSet
EndChar

StartChar: percent
Encoding: 37 37 5
Width: 1080
VWidth: 32
Flags: HW
HStem: 48 240<687.378 872.622> 448 240<207.377 392.623>
VStem: 140 320<500.907 635.093> 620 320<100.907 235.093>
LayerCount: 2
Fore
SplineSet
988 168 m 0
 988 63.8160564217 882.758102718 0 780 0 c 0
 677.242281309 0 572 63.8162648226 572 168 c 0
 572 272.183943578 677.241897282 336 780 336 c 0
 882.757718691 336 988 272.183735177 988 168 c 0
892 168 m 0
 892 195.816264823 853.242281309 240 780 240 c 0
 706.758102718 240 668 195.816056422 668 168 c 0
 668 140.183735177 706.757718691 96 780 96 c 0
 853.241897282 96 892 140.183943578 892 168 c 0
508 568 m 0
 508 463.816056422 402.758102718 400 300 400 c 0
 197.242281309 400 92 463.816264823 92 568 c 0
 92 672.183943578 197.241897282 736 300 736 c 0
 402.757718691 736 508 672.183735177 508 568 c 0
412 568 m 0
 412 595.816264823 373.242281309 640 300 640 c 0
 226.758102718 640 188 595.816056422 188 568 c 0
 188 540.183735177 226.757718691 496 300 496 c 0
 373.241897282 496 412 540.183943578 412 568 c 0
292.806616501 8.44598763843 m 0
 279.409302061 17.6566413164 272.166353552 32.8915423673 272.166353552 48.277651907 c 0
 272.166353552 57.6338525778 274.844638703 67.0459668658 280.445987638 75.1933834986 c 2
 720.445987638 715.193383499 l 2
 729.656641316 728.590697939 744.891542367 735.833646448 760.277651907 735.833646448 c 0
 769.633852578 735.833646448 779.045966866 733.155361297 787.193383499 727.554012362 c 0
 800.591323183 718.342928828 807.833592084 703.108134966 807.833592084 687.722567234 c 0
 807.833592084 678.366058023 805.155192975 668.953788303 799.554012362 660.806616501 c 2
 359.554012362 20.8066165014 l 2
 350.342928828 7.40867681676 335.108134966 0.1664079155 319.722567234 0.1664079155 c 0
 310.366058023 0.1664079155 300.953788303 2.84480702467 292.806616501 8.44598763843 c 0
EndSplineSet
EndChar

StartChar: ampersand
Encoding: 38 38 6
Width: 980
VWidth: 32
Flags: HW
LayerCount: 2
Fore
SplineSet
484.138780969 455.042455009 m 1
 603.042270372 463.009648725 642 518.150807929 642 552 c 0
 642 580.044824348 599.11489465 648 425 648 c 0
 244.269747705 648 213 575.62775722 213 552 c 0
 213 504.205019181 252.374357584 462 375 462 c 0
 412.4813198 462 449.029870971 459.681009361 484.138780969 455.042455009 c 1
877.549982842 394.214836487 m 0
 881.145701804 387.327647368 882.778161728 380.013745803 882.778161728 372.816374978 c 0
 882.778161728 355.237193459 873.039661667 338.353180374 858.382568476 330.079657978 c 0
 856.066112138 328.825357831 835.106479762 317.180802225 809.406682073 292.939239455 c 1
 862.212740208 228.232164754 893 145.758763347 893 48 c 1
 893 21.8536339246 871.144471708 0 845 0 c 0
 818.855528292 0 797 21.8536339246 797 48 c 0
 797 114.275566323 780.291889156 170.102319302 749.134363014 215.648250904 c 1
 742.098295144 203.095336235 735.519451435 189.407491268 729.709952775 174.535174697 c 0
 668.341558166 17.4320844988 514.215575025 -8 395 -8 c 0
 210.056898792 -8 87 92.6064449059 87 224 c 0
 87 309.787353408 136.710223334 369.667237607 199.250458044 407.943447995 c 1
 149.190169254 438.332043407 117 485.771207273 117 552 c 1
 117 656.37224278 225.730252295 744 425 744 c 0
 610.88510535 744 738 667.955175652 738 552 c 0
 738 494.039629246 704.814033801 442.666139514 653.881093407 408.963336612 c 1
 684.808852714 395.218714954 713.519554564 378.629893108 739.530717471 359.333385281 c 1
 777.465909668 396.021514203 809.743432534 412.961935003 813.481363192 414.913463836 c 0
 820.086576157 418.091418471 827.321726296 419.649132314 834.554982055 419.649132314 c 0
 851.703999154 419.649132314 868.842368008 410.893278481 877.549982842 394.214836487 c 0
679.165424979 285.69995772 m 1
 642.862830147 311.283898408 598.886759669 330.910151941 548.248229686 344.653913309 c 0
 496.991290603 358.565516578 438.986688728 365.901614106 376.266190123 365.999017908 c 0
 286.46362233 360.938240917 183 300.589524118 183 224 c 1
 183 163.393555094 239.943101208 88 395 88 c 0
 507.784424975 88 601.658441834 110.567915501 640.290047225 209.464825303 c 0
 651.529091167 238.236777793 664.902170595 263.562258905 679.165424979 285.69995772 c 1
EndSplineSet
EndChar

StartChar: quotesingle
Encoding: 39 39 7
Width: 280
VWidth: 0
Flags: HW
LayerCount: 2
Fore
SplineSet
140 736 m 0
 166.144471708 736 188 714.146366075 188 688 c 2
 188 480 l 2
 188 453.855528292 166.146366075 432 140 432 c 0
 113.853633925 432 92 453.855528292 92 480 c 2
 92 688 l 2
 92 714.146366075 113.855528292 736 140 736 c 0
EndSplineSet
EndChar

StartChar: parenleft
Encoding: 40 40 8
Width: 430
VWidth: 32
Flags: HW
LayerCount: 2
Fore
SplineSet
321.94123242 803.829564211 m 0
 332.585853025 794.340129766 337.611476007 781.239596165 337.611476007 768.231878622 c 0
 337.611476007 756.840071648 333.756932566 745.519452569 326.446414706 736.757936715 c 0
 322.768582111 732.586933857 188 576.082308894 188 368 c 0
 188 159.468448054 323.4362346 2.65588637264 326.446414706 -0.757936715317 c 0
 334.17631227 -10.0220711252 337.896480575 -21.1260052933 337.896480575 -32.0851374042 c 0
 337.896480575 -45.4001402798 332.404957753 -58.5013937396 321.94123242 -67.8295642106 c 0
 312.932554925 -75.8605929989 301.586836583 -79.9304456142 290.160099102 -79.9304456142 c 0
 277.389116933 -79.9304456142 264.516932152 -74.8467120756 254.693101376 -64.527525444 c 0
 251.053639985 -60.4450181103 92 115.378468313 92 368 c 0
 92 620.072545672 250.324117426 795.626687902 254.693101376 800.527525444 c 0
 263.981844529 810.284643248 277.196752448 815.675405195 290.531653422 815.675405195 c 0
 301.654270293 815.675405195 312.860368707 811.924945352 321.94123242 803.829564211 c 0
EndSplineSet
EndChar

StartChar: parenright
Encoding: 41 41 9
Width: 430
VWidth: 32
Flags: HW
LayerCount: 2
Fore
SplineSet
68.0587675805 803.829564211 m 0
 77.1396312926 811.924945352 88.3457297074 815.675405195 99.468346578 815.675405195 c 0
 112.803247552 815.675405195 126.018155471 810.284643248 135.306898624 800.527525444 c 0
 139.675882574 795.626687902 298 620.072545672 298 368 c 0
 298 115.378468313 138.946360015 -60.4450181103 135.306898624 -64.527525444 c 0
 125.483067848 -74.8467120756 112.610883067 -79.9304456142 99.8399008982 -79.9304456142 c 0
 88.4131634169 -79.9304456142 77.067445075 -75.8605929989 68.0587675805 -67.8295642106 c 0
 57.5950422467 -58.5013937396 52.1035194253 -45.4001402798 52.1035194253 -32.0851374042 c 0
 52.1035194253 -21.1260052933 55.8236877297 -10.0220711252 63.5535852936 -0.757936715318 c 0
 66.5637653999 2.65588637264 202 159.468448054 202 368 c 0
 202 576.082308894 67.2314178886 732.586933857 63.5535852936 736.757936715 c 0
 56.2430674344 745.519452569 52.3885239934 756.840071648 52.3885239934 768.231878622 c 0
 52.3885239934 781.239596165 57.4141469751 794.340129766 68.0587675805 803.829564211 c 0
EndSplineSet
EndChar

StartChar: asterisk
Encoding: 42 42 10
Width: 640
VWidth: 32
Flags: HW
LayerCount: 2
Fore
SplineSet
438.046626841 723.95364839 m 0
 450.935613334 714.673578114 457.82790175 699.773547834 457.82790175 684.749434233 c 0
 457.82790175 675.04168306 454.950350964 665.282126734 448.95364839 656.953373159 c 2
 413.707219715 608 l 1
 500 608 l 2
 526.144471708 608 548 586.146366075 548 560 c 0
 548 533.853633925 526.144471708 512 500 512 c 2
 413.707219715 512 l 1
 448.95364839 463.046626841 l 2
 454.950168293 454.718126975 457.827852425 444.958400978 457.827852425 435.25032165 c 0
 457.827852425 420.226738753 450.936197486 405.326842475 438.046626841 396.04635161 c 0
 429.717873266 390.049649036 419.95831694 387.17209825 410.250565767 387.17209825 c 0
 395.226452166 387.17209825 380.326421886 394.064386666 371.04635161 406.953373159 c 2
 320 477.851083729 l 1
 268.95364839 406.953373159 l 2
 259.673578114 394.064386666 244.773547834 387.17209825 229.749434233 387.17209825 c 0
 220.04168306 387.17209825 210.282126734 390.049649036 201.953373159 396.04635161 c 0
 189.063802514 405.326842475 182.172147575 420.226738753 182.172147575 435.25032165 c 0
 182.172147575 444.958400978 185.049831707 454.718126975 191.04635161 463.046626841 c 2
 226.292780285 512 l 1
 140 512 l 2
 113.853633925 512 92 533.855528292 92 560 c 0
 92 586.144471708 113.853633925 608 140 608 c 2
 226.292780285 608 l 1
 191.04635161 656.953373159 l 2
 185.049649036 665.282126734 182.17209825 675.04168306 182.17209825 684.749434233 c 0
 182.17209825 699.773547834 189.064386666 714.673578114 201.953373159 723.95364839 c 0
 210.281873025 729.950168293 220.041599022 732.827852425 229.74967835 732.827852425 c 0
 244.773261247 732.827852425 259.673157525 725.936197486 268.95364839 713.046626841 c 2
 320 642.148916271 l 1
 371.04635161 713.046626841 l 2
 380.326842475 725.936197486 395.226738753 732.827852425 410.25032165 732.827852425 c 0
 419.958400978 732.827852425 429.718126975 729.950168293 438.046626841 723.95364839 c 0
EndSplineSet
EndChar

StartChar: plus
Encoding: 43 43 11
Width: 800
VWidth: 192
Flags: HW
LayerCount: 2
Fore
SplineSet
718 368 m 0
 718 341.855528292 696.146366075 320 670 320 c 2
 448 320 l 1
 448 152 l 2
 448 125.855528292 426.146366075 104 400 104 c 0
 373.853633925 104 352 125.855528292 352 152 c 2
 352 320 l 1
 130 320 l 2
 103.855528292 320 82 341.853633925 82 368 c 0
 82 394.146366075 103.855528292 416 130 416 c 2
 352 416 l 1
 352 584 l 2
 352 610.146366075 373.855528292 632 400 632 c 0
 426.144471708 632 448 610.146366075 448 584 c 2
 448 416 l 1
 670 416 l 2
 696.146366075 416 718 394.144471708 718 368 c 0
EndSplineSet
EndChar

StartChar: comma
Encoding: 44 44 12
Width: 370
VWidth: 32
Flags: HW
LayerCount: 2
Fore
SplineSet
152.482277653 2.27974518411 m 1
 131.930288855 8.25204203703 102 25.939841855 102 64 c 0
 102 117.636825911 151.26853851 144 190 144 c 0
 217.930330849 144 268 121.921608502 268 64 c 0
 268 0.399605347479 221.610764803 -76.1904761584 220.152505047 -78.9735388642 c 0
 210.973363811 -95.1788113866 194.567809888 -103.971726016 177.842268318 -103.971726016 c 0
 170.324466789 -103.971726016 162.742017341 -102.195271097 155.722090015 -98.5169933872 c 0
 139.505273072 -90.0197606499 130.126259502 -73.0075898143 130.126259502 -55.6207271411 c 0
 130.126259502 -48.176930276 131.845369803 -40.6644549093 135.483006613 -33.7220900147 c 2
 135.483006613 -33.7220900147 143.353740648 -18.7717789285 152.482277653 2.27974518411 c 1
EndSplineSet
EndChar

StartChar: hyphen
Encoding: 45 45 13
Width: 520
VWidth: 32
Flags: HW
LayerCount: 2
Fore
SplineSet
52 264 m 0
 52 290.144471708 73.8536339246 312 100 312 c 2
 420 312 l 2
 446.144471708 312 468 290.146366075 468 264 c 0
 468 237.853633925 446.144471708 216 420 216 c 2
 100 216 l 2
 73.8536339246 216 52 237.855528292 52 264 c 0
EndSplineSet
EndChar

StartChar: period
Encoding: 46 46 14
Width: 360
VWidth: 32
Flags: HW
HStem: 48 48<152.382 207.618>
VStem: 150 60<49.9059 94.0941>
AnchorPoint: "above" 180 -48 mark 0
LayerCount: 2
Fore
SplineSet
258 80 m 0
 258 26.3631740889 208.73146149 0 170 0 c 0
 141.250197543 0 102 18.3631916673 102 64 c 0
 102 117.636825911 151.26853851 144 190 144 c 0
 218.749802457 144 258 125.636808333 258 80 c 0
EndSplineSet
EndChar

StartChar: slash
Encoding: 47 47 15
Width: 720
VWidth: 32
Flags: HW
LayerCount: 2
Fore
SplineSet
112.806616501 8.44598763843 m 0
 99.4093020608 17.6566413164 92.1663535518 32.8915423673 92.1663535518 48.277651907 c 0
 92.1663535518 57.6338525778 94.8446387034 67.0459668658 100.445987638 75.1933834986 c 2
 540.445987638 715.193383499 l 2
 549.656641316 728.590697939 564.891542367 735.833646448 580.277651907 735.833646448 c 0
 589.633852578 735.833646448 599.045966866 733.155361297 607.193383499 727.554012362 c 0
 620.591323183 718.342928828 627.833592084 703.108134966 627.833592084 687.722567234 c 0
 627.833592084 678.366058023 625.155192975 668.953788303 619.554012362 660.806616501 c 2
 179.554012362 20.8066165014 l 2
 170.342928828 7.40867681676 155.108134966 0.1664079155 139.722567234 0.1664079155 c 0
 130.366058023 0.1664079155 120.953788303 2.84480702467 112.806616501 8.44598763843 c 0
EndSplineSet
EndChar

StartChar: zero
Encoding: 48 48 16
Width: 840
VWidth: 32
Flags: HW
HStem: 40 656<313.411 526.589>
VStem: 110 620<233.016 502.984>
LayerCount: 2
Fore
SplineSet
778 368 m 0
 778 162.792242902 619.827887458 -8 420 -8 c 0
 220.172114033 -8 62 162.792240209 62 368 c 0
 62 573.207757098 220.172112542 744 420 744 c 0
 619.827885967 744 778 573.207759791 778 368 c 0
682 368 m 0
 682 524.792240209 562.172114033 648 420 648 c 0
 277.827887458 648 158 524.792242902 158 368 c 0
 158 211.207759791 277.827885967 88 420 88 c 0
 562.172112542 88 682 211.207757098 682 368 c 0
EndSplineSet
EndChar

StartChar: one
Encoding: 49 49 17
Width: 440
VWidth: 0
Flags: HW
LayerCount: 2
Fore
SplineSet
220 736 m 0
 246.144471708 736 268 714.146366075 268 688 c 2
 268 48 l 2
 268 21.8555282921 246.146366075 0 220 0 c 0
 193.853633925 0 172 21.8555282921 172 48 c 2
 172 688 l 2
 172 714.146366075 193.855528292 736 220 736 c 0
EndSplineSet
EndChar

StartChar: two
Encoding: 50 50 18
Width: 840
VWidth: 32
Flags: HW
LayerCount: 2
Fore
SplineSet
160 488 m 0
 133.855528292 488 112 509.853633925 112 536 c 0
 112 685.833939688 261.522838308 744 402 744 c 0
 553.061464957 744 693 664.190734359 693 528 c 0
 693 437.380969971 630.460627091 391.101074935 520.709863871 338.697557361 c 0
 308.066336922 236.998479256 236.507120511 204.351411938 221.045907578 96 c 1
 680 96 l 2
 706.144471708 96 728 74.1463660754 728 48 c 0
 728 21.8536339246 706.144471708 0 680 0 c 2
 170 0 l 2
 149.398583681 0 122 18.9455273174 122 48 c 0
 122 262.368680776 256.037779191 318.529576277 479.290136129 425.302442639 c 0
 591.539372909 478.898925065 597 494.619030029 597 528 c 0
 597 583.809265641 530.938535043 648 402 648 c 0
 272.477161692 648 208 600.166060312 208 536 c 0
 208 509.853633925 186.144471708 488 160 488 c 0
EndSplineSet
EndChar

StartChar: three
Encoding: 51 51 19
Width: 840
VWidth: 32
Flags: HW
LayerCount: 2
Fore
SplineSet
142.651411928 194.121713655 m 0
 150.609824532 199.348133873 159.683736459 201.839735417 168.698404115 201.839735417 c 0
 184.437507868 201.839735417 199.996016123 194.244536586 209.121713655 180.348588072 c 0
 241.592061309 130.905104144 321.618769919 88 418 88 c 0
 556.803751389 88 647 169.725696668 647 240 c 0
 647 316.266053147 577.809201342 396 430 396 c 0
 398.264521802 396 349.523659457 385.955108501 319.7753737 376.330663109 c 0
 315.016143802 374.79091226 310.160044687 374.060610108 305.361990156 374.060610108 c 0
 297.72882478 374.060610108 290.242565792 375.908948842 283.526960354 379.286949517 c 0
 272.587109499 384.78367373 263.684461063 394.341352595 259.531264941 406.618383307 c 0
 259.496405045 406.721430691 259.461927343 406.824528978 259.427829999 406.927676221 c 0
 259.395132949 407.02648745 259.362743866 407.125471163 259.330663109 407.2246263 c 0
 257.790859356 411.98401972 257.060551287 416.840164375 257.060551287 421.638189786 c 0
 257.060551287 429.271480769 258.908988264 436.757669776 262.286998509 443.473141925 c 0
 267.783507595 454.412687997 277.34083677 463.315364423 289.618383307 467.468735059 c 0
 436.263972093 517.077465838 502.488392585 591.265723812 532.542150148 640 c 1
 145 640 l 2
 118.855528292 640 97 661.853633925 97 688 c 0
 97 714.146366075 118.855528292 736 145 736 c 2
 605 736 l 2
 627.993727025 736 652.98680436 715.242753408 652.98680436 687.759944542 c 0
 652.98680436 685.083533062 652.749774387 682.343337527 652.250784731 679.552317341 c 0
 650.865810946 671.805684235 630.135809269 574.165817906 518.773614898 482.820452087 c 1
 653.197976356 453.835253753 742.99999995 359.09218571 743 240 c 0
 743 90.2743033323 583.196248611 -8 418 -8 c 0
 296.381230081 -8 184.407938691 43.094895856 128.878286345 127.651411928 c 0
 123.651710676 135.610061242 121.16020585 144.683832527 121.16020585 153.698211456 c 0
 121.16020585 169.437868383 128.756130296 184.996454075 142.651411928 194.121713655 c 0
EndSplineSet
EndChar

StartChar: four
Encoding: 52 52 20
Width: 840
VWidth: 32
Flags: HW
LayerCount: 2
Fore
SplineSet
552 318 m 1
 552 638 l 1
 540.821297085 638 l 1
 195.510562622 318 l 1
 552 318 l 1
788 270 m 0
 788 243.855528292 766.146366075 222 740 222 c 2
 648 222 l 1
 648 46 l 2
 648 19.8555282921 626.146366075 -2 600 -2 c 0
 573.853633925 -2 552 19.8555282921 552 46 c 2
 552 222 l 1
 140 222 l 2
 110.945527317 222 92 249.398583681 92 270 c 2
 92 290 l 1
 92 332 l 2
 92 345.535559449 98.7297797295 359.196547624 107.37371455 367.206895599 c 2
 489.37371455 721.206895599 l 2
 498.193148941 729.379879302 510.014750024 734 522 734 c 2
 600 734 l 2
 629.054472683 734 648 706.601416319 648 686 c 2
 648 318 l 1
 740 318 l 2
 766.146366075 318 788 296.144471708 788 270 c 0
EndSplineSet
EndChar

StartChar: five
Encoding: 53 53 21
Width: 840
VWidth: 0
Flags: HW
LayerCount: 2
Fore
SplineSet
132.977675418 195.671072259 m 0
 141.087341807 201.195047916 150.430655304 203.834801189 159.717456846 203.834801189 c 0
 175.174988114 203.834801189 190.475956696 196.521536791 199.671072259 183.022324582 c 0
 236.401800306 129.09848979 310.943087764 88 402 88 c 0
 537.44624657 88 632 175.347144845 632 264 c 0
 632 352.652832531 537.446205158 440 402 440 c 0
 323.382307513 440 253.394956082 412.176781852 202.751276017 364.909347124 c 0
 193.615367869 356.382499519 181.858397231 352.217018784 170.132063003 352.217018784 c 0
 155.968462382 352.217018784 141.849556939 358.294000614 132.447944684 370.102790406 c 0
 123.885070727 380.85809235 121.1954882 397.524926472 122.456370887 406.603281821 c 2
 162.456370887 694.603281821 l 2
 165.729071299 718.166724781 186.620515056 736 210 736 c 2
 610 736 l 2
 636.144471708 736 658 714.146366075 658 688 c 0
 658 661.853633925 636.144471708 640 610 640 c 2
 251.794084921 640 l 1
 232.220074086 499.067121988 l 1
 283.508013333 522.91657321 341.473464609 536 402 536 c 0
 572.553794842 536 728 423.347167469 728 264 c 0
 728 104.652855155 572.55375343 -8 402 -8 c 0
 283.056912236 -8 177.598199694 44.9015102098 120.328927741 128.977675418 c 0
 114.804786471 137.087584942 112.165143512 146.430745953 112.165143512 155.717242938 c 0
 112.165143512 171.17531828 119.479096811 186.47638828 132.977675418 195.671072259 c 0
EndSplineSet
EndChar

StartChar: six
Encoding: 54 54 22
Width: 840
VWidth: 0
Flags: HW
LayerCount: 2
Fore
SplineSet
234 203.770885843 m 1
 285.628678112 114.966610013 382.95202413 88 448 88 c 0
 595.721097454 88 654 167.252853521 654 222 c 0
 654 277.411307602 575.581237442 356 438 356 c 0
 300.422062282 356 234 305.256320231 234 203.770885843 c 1
196.006398835 365.462982712 m 1
 253.026483395 427.507195568 341.014947882 452 438 452 c 0
 600.418762558 452 750 358.588692398 750 222 c 0
 750 96.7471464792 628.278902546 -8 448 -8 c 0
 344.266372223 -8 165.216686907 44.2282751956 113.851368234 248.386436484 c 0
 104.850027408 284.163440104 100 323.948000171 100 368 c 0
 100 658.250420707 330.93471415 744 448 744 c 0
 605.446477465 744 678.133464044 662.776760717 685.300597466 654.220566065 c 0
 692.096736596 645.545763019 695.621242968 634.694972481 695.621242968 623.810807918 c 0
 695.621242968 610.291145909 690.183235872 596.71999068 678.822585628 587.203692913 c 0
 669.882318491 579.714839516 659.270115225 576.107196495 648.630922438 576.107196495 c 0
 634.854232476 576.107196495 621.032287409 582.156369005 610.736667592 593.660732559 c 0
 609.857161283 594.62466635 560.735092842 648 448 648 c 0
 365.06528585 648 196 591.749579293 196 368 c 0
 196 367.168142959 196.006398835 366.305994613 196.006398835 365.462982712 c 1
EndSplineSet
EndChar

StartChar: seven
Encoding: 55 55 23
Width: 840
VWidth: 0
Flags: HW
LayerCount: 2
Fore
SplineSet
82 688 m 0
 82 714.144471708 103.853633925 736 130 736 c 2
 690 736 l 2
 719.054472683 736 738 708.601416319 738 688 c 2
 738 630 l 2
 738 610.280655704 723.914338201 592.697414842 709.929812878 586.333018927 c 0
 702.887416211 583.163052321 398 443.183950016 398 80 c 2
 398 48 l 2
 398 21.8555282921 376.146366075 0 350 0 c 0
 323.853633925 0 302 21.8555282921 302 48 c 2
 302 80 l 2
 302 401.540022389 507.036712481 574.120504823 609.839623213 640 c 1
 130 640 l 2
 103.853633925 640 82 661.855528292 82 688 c 0
EndSplineSet
EndChar

StartChar: eight
Encoding: 56 56 24
Width: 840
VWidth: 0
Flags: HW
LayerCount: 2
Fore
SplineSet
312.282839423 351.775243135 m 1
 276.887502925 338.812079298 193 295.118532145 193 228 c 0
 193 175.354096724 268.884788434 88 420 88 c 0
 586.945896484 88 647 164.57205344 647 216 c 0
 647 248.850811215 622.314576099 295.871447964 545.170865777 321.628937954 c 0
 515.280692025 331.608958983 477.728198727 338 432 338 c 0
 389.07440681 338 348.855866405 342.786414135 312.282839423 351.775243135 c 1
629.113302407 389.330231917 m 1
 701.259017073 349.035561728 743 283.692751097 743 216 c 0
 743 85.4279465603 609.054103516 -8 420 -8 c 0
 241.115211566 -8 97 96.6459032758 97 228 c 0
 97 313.463155112 153.203945769 369.64304046 199.26388287 401.050577281 c 1
 151.373457874 434.832283039 117 484.77208255 117 544 c 0
 117 673.491275515 266.005865158 744 420 744 c 0
 563.141670215 744 723 676.250688291 723 544 c 0
 723 471.673517764 669.161444766 420.834770573 629.113302407 389.330231917 c 1
513.014808425 427.838218277 m 1
 551.063761393 448.435384817 627 506.690631247 627 544 c 0
 627 581.749311709 552.858329785 648 420 648 c 0
 277.994134842 648 213 582.508724485 213 544 c 0
 213 517.797562419 233.01005002 484.898735977 289.240241151 460.330971792 c 0
 325.764503144 444.373006194 374.790564585 434 432 434 c 0
 460.546760537 434 487.875871594 431.821370798 513.014808425 427.838218277 c 1
EndSplineSet
EndChar

StartChar: nine
Encoding: 57 57 25
Width: 840
VWidth: 0
Flags: HW
LayerCount: 2
Fore
SplineSet
606 532.229114157 m 1
 554.371321888 621.033389987 457.04797587 648 392 648 c 0
 244.278902546 648 186 568.747146479 186 514 c 0
 186 458.588692398 264.418762558 380 402 380 c 0
 539.577937718 380 606 430.743679769 606 532.229114157 c 1
643.993601165 370.537017288 m 1
 586.973516605 308.492804432 498.985052118 284 402 284 c 0
 239.581237442 284 90 377.411307602 90 514 c 0
 90 639.252853521 211.721097454 744 392 744 c 0
 495.733627777 744 674.783313093 691.771724804 726.148631766 487.613563516 c 0
 735.149972592 451.836559896 740 412.051999829 740 368 c 0
 740 77.7495792928 509.06528585 -8 392 -8 c 0
 234.553522535 -8 161.866535956 73.2232392826 154.699402534 81.779433935 c 0
 147.903263404 90.4542369808 144.378757032 101.305027519 144.378757032 112.189192082 c 0
 144.378757032 125.708854091 149.816764128 139.28000932 161.177414372 148.796307087 c 0
 170.117681509 156.285160484 180.729884775 159.892803505 191.369077562 159.892803505 c 0
 205.145767524 159.892803505 218.967712591 153.843630995 229.263332408 142.339267441 c 0
 230.142838717 141.37533365 279.264907158 88 392 88 c 0
 474.93471415 88 644 144.250420707 644 368 c 0
 644 368.831857041 643.993601165 369.694005387 643.993601165 370.537017288 c 1
EndSplineSet
EndChar

StartChar: colon
Encoding: 58 58 26
Width: 360
VWidth: 0
Flags: HW
HStem: 48 48<152.382 207.618> 432 48<152.382 207.618>
VStem: 150 60<49.9059 94.0941 433.906 478.094>
LayerCount: 2
Fore
SplineSet
258 464 m 0
 258 410.363174089 208.73146149 384 170 384 c 0
 141.250197543 384 102 402.363191667 102 448 c 0
 102 501.636825911 151.26853851 528 190 528 c 0
 218.749802457 528 258 509.636808333 258 464 c 0
258 80 m 0
 258 26.3631740889 208.73146149 0 170 0 c 0
 141.250197543 0 102 18.3631916673 102 64 c 0
 102 117.636825911 151.26853851 144 190 144 c 0
 218.749802457 144 258 125.636808333 258 80 c 0
EndSplineSet
EndChar

StartChar: semicolon
Encoding: 59 59 27
Width: 370
VWidth: 0
Flags: HW
HStem: 432 48<152.382 207.618>
VStem: 150 60<433.906 478.094>
LayerCount: 2
Fore
SplineSet
152.482277653 2.27974518411 m 1
 131.930288855 8.25204203703 102 25.939841855 102 64 c 0
 102 117.636825911 151.26853851 144 190 144 c 0
 217.930330849 144 268 121.921608502 268 64 c 0
 268 0.399605347479 221.610764803 -76.1904761584 220.152505047 -78.9735388642 c 0
 210.973363811 -95.1788113866 194.567809888 -103.971726016 177.842268318 -103.971726016 c 0
 170.324466789 -103.971726016 162.742017341 -102.195271097 155.722090015 -98.5169933872 c 0
 139.505273072 -90.0197606499 130.126259502 -73.0075898143 130.126259502 -55.6207271411 c 0
 130.126259502 -48.176930276 131.845369803 -40.6644549093 135.483006613 -33.7220900147 c 2
 135.483006613 -33.7220900147 143.353740648 -18.7717789285 152.482277653 2.27974518411 c 1
258 464 m 0
 258 410.363174089 208.73146149 384 170 384 c 0
 141.250197543 384 102 402.363191667 102 448 c 0
 102 501.636825911 151.26853851 528 190 528 c 0
 218.749802457 528 258 509.636808333 258 464 c 0
EndSplineSet
EndChar

StartChar: less
Encoding: 60 60 28
Width: 800
VWidth: 0
Flags: HW
LayerCount: 2
Fore
SplineSet
714.566881162 134.173247535 m 0
 707.130040751 115.581146506 688.724788447 104.08619315 669.608087356 104.08619315 c 0
 663.765318688 104.08619315 657.856090818 105.159981524 652.173247535 107.433118838 c 2
 112.173247535 323.433118838 l 2
 105.985563012 325.908192647 100.58398832 329.59817374 96.1306413695 334.124950813 c 0
 91.6013464299 338.579284347 87.9093090541 343.98277739 85.4331188375 350.173247535 c 0
 83.1091434463 355.983186013 82.0387630903 362.029748368 82.0878030104 368 c 0
 82.0387630903 373.970251632 83.1091434463 380.016813987 85.4331188375 385.826752465 c 0
 87.9093069403 392.017222722 91.6013431676 397.420714684 96.1306382413 401.87504606 c 0
 100.583984246 406.401826121 105.985560001 410.091808344 112.173247535 412.566881162 c 2
 652.173247535 628.566881162 l 2
 657.856090818 630.840018476 663.765318688 631.91380685 669.608087356 631.91380685 c 0
 688.724788447 631.91380685 707.130040751 620.418853494 714.566881162 601.826752465 c 0
 716.839946422 596.144089315 717.91373848 590.234868898 717.91373848 584.392011428 c 0
 717.91373848 565.276037055 706.419969015 546.870405457 687.826752465 539.433118838 c 2
 259.243955371 368 l 1
 687.826752465 196.566881162 l 2
 706.419969015 189.129594543 717.91373848 170.723962945 717.91373848 151.607988572 c 0
 717.91373848 145.765131102 716.839946422 139.855910685 714.566881162 134.173247535 c 0
EndSplineSet
EndChar

StartChar: equal
Encoding: 61 61 29
Width: 800
VWidth: 0
Flags: HW
AnchorPoint: "middle" 400 368 basechar 0
LayerCount: 2
Fore
SplineSet
82 248 m 0
 82 274.144471708 103.853633925 296 130 296 c 2
 670 296 l 2
 696.144471708 296 718 274.146366075 718 248 c 0
 718 221.853633925 696.144471708 200 670 200 c 2
 130 200 l 2
 103.853633925 200 82 221.855528292 82 248 c 0
82 488 m 0
 82 514.144471708 103.853633925 536 130 536 c 2
 670 536 l 2
 696.144471708 536 718 514.146366075 718 488 c 0
 718 461.853633925 696.144471708 440 670 440 c 2
 130 440 l 2
 103.853633925 440 82 461.855528292 82 488 c 0
EndSplineSet
EndChar

StartChar: greater
Encoding: 62 62 30
Width: 800
VWidth: 0
Flags: HW
LayerCount: 2
Fore
SplineSet
85.4331188375 134.173247535 m 0
 83.1600535775 139.855910685 82.08626152 145.765131102 82.08626152 151.607988572 c 0
 82.08626152 170.723962945 93.5800309851 189.129594543 112.173247535 196.566881162 c 2
 540.756044629 368 l 1
 112.173247535 539.433118838 l 2
 93.5800309851 546.870405457 82.08626152 565.276037055 82.08626152 584.392011428 c 0
 82.08626152 590.234868898 83.1600535775 596.144089315 85.4331188375 601.826752465 c 0
 92.8699592492 620.418853494 111.275211553 631.91380685 130.391912644 631.91380685 c 0
 136.234681312 631.91380685 142.143909182 630.840018476 147.826752465 628.566881162 c 2
 687.826752465 412.566881162 l 2
 694.014426373 410.091811599 699.415993149 406.401838919 703.869335524 401.87507229 c 0
 708.3986411 397.420734374 712.09068689 392.017233416 714.566881162 385.826752465 c 0
 716.890856554 380.016813987 717.96123691 373.970251632 717.91219699 368 c 0
 717.96123691 362.029748368 716.890856554 355.983186013 714.566881162 350.173247535 c 0
 712.090687743 343.982763987 708.398640979 338.579262113 703.869332826 334.124925013 c 0
 699.415992313 329.598158268 694.014426469 325.908186578 687.826752465 323.433118838 c 2
 147.826752465 107.433118838 l 2
 142.143909182 105.159981524 136.234681312 104.08619315 130.391912644 104.08619315 c 0
 111.275211553 104.08619315 92.8699592492 115.581146506 85.4331188375 134.173247535 c 0
EndSplineSet
EndChar

StartChar: question
Encoding: 63 63 31
Width: 800
VWidth: 0
Flags: HW
HStem: 48 48<352.382 407.618>
VStem: 350 60<49.9059 94.0941>
LayerCount: 2
Fore
SplineSet
458 80 m 0
 458 26.3631740889 408.73146149 0 370 0 c 0
 341.250197543 0 302 18.3631916673 302 64 c 0
 302 117.636825911 351.26853851 144 390 144 c 0
 418.749802457 144 458 125.636808333 458 80 c 0
140 488 m 0
 113.855528292 488 92 509.853633925 92 536 c 0
 92 685.334421514 239.142501794 744 380 744 c 0
 521.037091324 744 668 695.091732499 668 560 c 0
 668 461.404322008 596.426676253 415.561561801 520.213961204 380.463600923 c 0
 436.486724186 341.272128276 428 330.370324471 428 240 c 0
 428 213.855528292 406.146366075 192 380 192 c 0
 353.853633925 192 332 213.855528292 332 240 c 0
 332 357.629675529 375.513275814 418.727871724 479.786038796 467.536399077 c 0
 555.573323747 502.438438199 572 518.595677992 572 560 c 0
 572 600.908267501 518.962908676 648 380 648 c 0
 250.857498206 648 188 600.665578486 188 536 c 0
 188 509.853633925 166.144471708 488 140 488 c 0
EndSplineSet
EndChar

StartChar: at
Encoding: 64 64 32
Width: 1100
VWidth: 0
Flags: HW
LayerCount: 2
Fore
SplineSet
767.90888251 86.9467481168 m 0
 769.954324161 81.5263277401 770.921397319 75.9240799951 770.921397319 70.3863098135 c 0
 770.921397319 50.9337010922 758.988520033 32.2766917985 739.946748117 25.0911174904 c 0
 681.043262633 2.863387119 617.150767179 -8 550 -8 c 0
 306.66092043 -8 92 151.413103234 92 368 c 0
 92 584.586635661 306.66122513 744 550 744 c 0
 793.33907957 744 1008 584.586896766 1008 368 c 0
 1008 323.755758926 1005.987704 267.846593316 969.894927784 217.87198009 c 0
 934.519566582 169.020290812 870.294826221 152 820 152 c 0
 774.587226842 152 719.512105913 164.771483389 684.02673603 197.493552208 c 1
 645.112883412 163.114243451 594.186232604 142 538 142 c 0
 414.753684923 142 315 244.05276089 315 368 c 0
 315 491.947437701 414.756727089 594 538 594 c 0
 580.659860253 594 620.287727489 581.828193914 653.927756977 560.920113843 c 1
 661.817925208 576.835489748 678.312529439 588 697 588 c 0
 723.146366075 588 745 566.144471708 745 540 c 2
 745 274.044714225 l 1
 750.37176135 266.610448478 783.16244508 248 820 248 c 0
 849.711620523 248 885.463966776 264.95696954 892.122778166 274.152470983 c 0
 907.99372174 296.127623625 912 326.25542809 912 368 c 0
 912 513.413103234 758.66092043 648 550 648 c 0
 341.33877487 648 188 513.413364339 188 368 c 0
 188 222.586896766 341.33907957 88 550 88 c 0
 606.849232821 88 658.956737367 97.136612881 706.053251883 114.90888251 c 0
 711.473847723 116.954390374 717.076115144 117.921463488 722.613814853 117.921463488 c 0
 742.067177764 117.921463488 760.723746824 105.987357683 767.90888251 86.9467481168 c 0
649 430.667406544 m 1
 627.188061766 471.038818169 585.537948495 498 538 498 c 0
 469.243272911 498 411 440.052562299 411 368 c 0
 411 295.94723911 469.246315077 238 538 238 c 0
 585.537917682 238 627.188065572 264.961198939 649 305.332594326 c 1
 649 430.667406544 l 1
EndSplineSet
EndChar

StartChar: A
Encoding: 65 65 33
Width: 860
VWidth: 0
Flags: HW
AnchorPoint: "above" 430 784 basechar 0
LayerCount: 2
Fore
SplineSet
101.050299652 3.8988791898 m 0
 83.0409238054 11.6372828738 72.0961736023 29.7102489894 72.0961736023 48.3954607749 c 0
 72.0961736023 54.6325205122 73.3156393655 60.937796757 75.8988791898 66.9497003481 c 2
 350.89887919 706.949700348 l 2
 358.688513489 725.078303808 378.069444653 736 395 736 c 2
 465 736 l 2
 484.731311815 736 502.41718434 722.505043406 509.10112081 706.949700348 c 2
 784.10112081 66.9497003481 l 2
 786.684280664 60.9379828701 787.90375597 54.6326971988 787.90375597 48.3955241935 c 0
 787.90375597 29.7110072761 776.96013163 11.6377363812 758.949700348 3.8988791898 c 0
 752.937796757 1.31563936549 746.632520512 0.0961736023156 740.395460775 0.0961736023156 c 0
 721.710248989 0.0961736023156 703.637282874 11.0409238054 695.89887919 29.0502996519 c 2
 646.506429821 144 l 1
 213.493570179 144 l 1
 164.10112081 29.0502996519 l 2
 156.362263619 11.03986837 138.288992724 0.096244030355 119.604475806 0.096244030355 c 0
 113.367302801 0.096244030355 107.06201713 1.31571933595 101.050299652 3.8988791898 c 0
254.743570179 240 m 1
 605.256429821 240 l 1
 433.381429821 640 l 1
 426.618570179 640 l 1
 254.743570179 240 l 1
EndSplineSet
EndChar

StartChar: B
Encoding: 66 66 34
Width: 870
VWidth: 0
Flags: HW
AnchorPoint: "above" 435 784 basechar 0
LayerCount: 2
Fore
SplineSet
228 436 m 1
 500 436 l 2
 526.451506658 436 549.861934479 440.030949127 569.760523326 446.730264547 c 0
 626.90955786 465.970795181 652 504.396869642 652 538 c 0
 652 582.177800723 603.962095751 640 500 640 c 2
 228 640 l 1
 228 436 l 1
671.136559446 392.548213072 m 1
 733.44599511 350.18757085 768 283.30254708 768 218 c 0
 768 109.93374651 674.100962589 0 520 0 c 2
 180 0 l 2
 159.398583681 0 132 18.9455273174 132 48 c 2
 132 389 l 1
 132 688 l 2
 132 708.601416319 150.945527317 736 180 736 c 2
 500 736 l 2
 636.037904249 736 748 653.822199277 748 538 c 0
 748 479.909480733 717.719530153 427.717947507 671.136559446 392.548213072 c 1
228 340 m 1
 228 96 l 1
 520 96 l 2
 625.899037411 96 672 166.06625349 672 218 c 0
 672 269.933750767 625.898875983 340 520 340 c 0
 518.431737457 340 516.387395572 340.123559006 514.580198284 340.301552403 c 0
 509.765018913 340.105510864 504.796645242 340 500 340 c 2
 228 340 l 1
EndSplineSet
EndChar

StartChar: C
Encoding: 67 67 35
Width: 855
VWidth: 0
Flags: HW
AnchorPoint: "bottom" 460 40 basechar 0
AnchorPoint: "above" 460 784 basechar 0
LayerCount: 2
Fore
SplineSet
705 248 m 0
 731.144471708 248 753 226.146366075 753 200 c 0
 753 139.353720747 653.847547165 -8 460 -8 c 0
 261.195914322 -8 102 162.657449311 102 368 c 0
 102 573.207757098 260.172112542 744 460 744 c 0
 656.995418335 744 725.286629104 603.266187515 728.922814752 595.375331274 c 0
 731.622469995 588.973671122 732.891296039 582.404770437 732.891296039 575.996397067 c 0
 732.891296039 557.504444263 722.326234698 540.349145081 705.08860986 532.405874778 c 0
 698.683067501 529.454136654 691.905301469 528.03992533 685.197542979 528.03992533 c 0
 667.592973319 528.03992533 650.470618778 537.78107692 641.825017551 555.034115749 c 0
 639.683035702 559.340508575 596.440442762 648 460 648 c 0
 317.827887458 648 198 524.792242902 198 368 c 0
 198 211.342550689 318.804085678 88 460 88 c 0
 586.409183095 88 648.172423237 180.051049592 657.250536506 205.049099911 c 1
 660.353627175 228.619413621 680.077393343 248 705 248 c 0
EndSplineSet
EndChar

StartChar: D
Encoding: 68 68 36
Width: 870
VWidth: 0
Flags: HW
HStem: 48 21G<180 480> 668 20G<180 480>
VStem: 180 540<226.215 509.777>
AnchorPoint: "above" 435 784 basechar 0
LayerCount: 2
Fore
SplineSet
132 48 m 2
 132 688 l 2
 132 717.054472683 159.398583681 736 180 736 c 2
 440 736 l 2
 537.572367176 736 768 657.235800296 768 368 c 0
 768 78.7652151191 537.571406405 0 440 0 c 2
 180 0 l 2
 150.945527317 0 132 27.3985836813 132 48 c 2
228 96 m 1
 440 96 l 2
 502.428593595 96 672 145.234784881 672 368 c 0
 672 590.764199704 502.427632824 640 440 640 c 2
 228 640 l 1
 228 96 l 1
EndSplineSet
EndChar

StartChar: E
Encoding: 69 69 37
Width: 870
VWidth: 0
Flags: HW
AnchorPoint: "bottom" 435 48 basechar 0
AnchorPoint: "above" 435 784 basechar 0
LayerCount: 2
Fore
SplineSet
748 688 m 0
 748 661.855528292 726.146366075 640 700 640 c 2
 228 640 l 1
 228 436 l 1
 540 436 l 2
 566.144471708 436 588 414.146366075 588 388 c 0
 588 361.853633925 566.144471708 340 540 340 c 2
 228 340 l 1
 228 96 l 1
 720 96 l 2
 746.144471708 96 768 74.1463660754 768 48 c 0
 768 21.8536339246 746.144471708 0 720 0 c 2
 180 0 l 2
 159.398583681 0 132 18.9455273174 132 48 c 2
 132 688 l 2
 132 708.601416319 150.945527317 736 180 736 c 2
 700 736 l 2
 726.146366075 736 748 714.144471708 748 688 c 0
EndSplineSet
EndChar

StartChar: F
Encoding: 70 70 38
Width: 830
VWidth: 0
Flags: HW
AnchorPoint: "above" 415 784 basechar 0
LayerCount: 2
Fore
SplineSet
180 0 m 0
 153.855528292 0 132 21.8536339246 132 48 c 2
 132 688 l 2
 132 717.054472683 159.398583681 736 180 736 c 2
 680 736 l 2
 706.144471708 736 728 714.146366075 728 688 c 0
 728 661.853633925 706.144471708 640 680 640 c 2
 228 640 l 1
 228 436 l 1
 550 436 l 2
 576.144471708 436 598 414.146366075 598 388 c 0
 598 361.853633925 576.144471708 340 550 340 c 2
 228 340 l 1
 228 48 l 2
 228 21.8536339246 206.144471708 0 180 0 c 0
EndSplineSet
EndChar

StartChar: G
Encoding: 71 71 39
Width: 840
VWidth: 0
Flags: HW
AnchorPoint: "above" 460 784 basechar 0
LayerCount: 2
Fore
SplineSet
705.08860986 532.405874778 m 0
 698.754369098 529.486993144 692.165669199 528.147047038 685.692197097 528.147047038 c 0
 667.330696811 528.147047038 649.896237709 538.927303611 641.825017551 555.034115749 c 0
 639.333487633 560.043264902 595.945848664 648 460 648 c 0
 317.827885967 648 198 524.792240209 198 368 c 0
 198 211.342547637 318.804087717 88 460 88 c 0
 565.094957939 88 622.347805747 144.461683084 642 167.951104199 c 1
 642 296 l 1
 480 296 l 2
 453.855528292 296 432 317.853633925 432 344 c 0
 432 370.146366075 453.855528292 392 480 392 c 2
 690 392 l 2
 710.601416319 392 738 373.054472683 738 344 c 2
 738 152 l 2
 738 144.974700261 735.462474734 134.142527591 730.657068308 126.485243551 c 0
 727.484320469 121.429556429 644.927449614 -8 460 -8 c 0
 261.195912283 -8 102 162.657452363 102 368 c 0
 102 573.207759791 260.172114033 744 460 744 c 0
 656.297971813 744 724.802234636 604.317367922 728.922814752 595.375331274 c 0
 731.445497865 589.393323017 732.67431463 582.980454826 732.67431463 576.573051813 c 0
 732.67431463 558.594847565 723.000101164 540.659669503 705.08860986 532.405874778 c 0
EndSplineSet
EndChar

StartChar: H
Encoding: 72 72 40
Width: 890
VWidth: 0
Flags: HW
AnchorPoint: "above" 445 784 basechar 0
LayerCount: 2
Fore
SplineSet
710 736 m 0
 736.144471708 736 758 714.146366075 758 688 c 2
 758 48 l 2
 758 21.8555282921 736.146366075 0 710 0 c 0
 683.853633925 0 662 21.8555282921 662 48 c 2
 662 340 l 1
 228 340 l 1
 228 48 l 2
 228 21.8536339246 206.144471708 0 180 0 c 0
 153.855528292 0 132 21.8536339246 132 48 c 2
 132 688 l 2
 132 714.144471708 153.853633925 736 180 736 c 0
 206.146366075 736 228 714.144471708 228 688 c 2
 228 436 l 1
 662 436 l 1
 662 688 l 2
 662 714.146366075 683.855528292 736 710 736 c 0
EndSplineSet
EndChar

StartChar: I
Encoding: 73 73 41
Width: 420
VWidth: 0
Flags: HW
AnchorPoint: "above" 210 784 basechar 0
LayerCount: 2
Fore
SplineSet
210 736 m 0
 236.144471708 736 258 714.146366075 258 688 c 2
 258 48 l 2
 258 21.8555282921 236.146366075 0 210 0 c 0
 183.853633925 0 162 21.8555282921 162 48 c 2
 162 688 l 2
 162 714.146366075 183.855528292 736 210 736 c 0
EndSplineSet
EndChar

StartChar: J
Encoding: 74 74 42
Width: 680
VWidth: 0
Flags: HW
AnchorPoint: "above" 340 784 basechar 0
LayerCount: 2
Fore
SplineSet
120 328 m 0
 146.144471708 328 168 306.146366075 168 280 c 2
 168 216 l 2
 168 148.609806719 228.408326133 88 310 88 c 0
 386.295896806 88 452 154.358968132 452 240 c 2
 452 688 l 2
 452 714.144471708 473.853633925 736 500 736 c 0
 526.146366075 736 548 714.144471708 548 688 c 2
 548 240 l 2
 548 105.641031868 443.704103194 -8 310 -8 c 0
 181.591673867 -8 72 89.390193281 72 216 c 2
 72 280 l 2
 72 306.146366075 93.8555282921 328 120 328 c 0
EndSplineSet
EndChar

StartChar: K
Encoding: 75 75 43
Width: 840
VWidth: 0
Flags: HW
AnchorPoint: "above" 420 784 basechar 0
LayerCount: 2
Fore
SplineSet
751.831652224 12.0730474897 m 0
 742.835889782 4.10270874517 731.455864461 0.190133989242 720.100269209 0.190133989242 c 0
 706.753931456 0.190133989242 693.44134023 5.59477760735 684.07304749 16.1683477758 c 2
 371.194221303 369.300590197 l 1
 228 257.067281608 l 1
 228 48 l 2
 228 21.8555282921 206.146366075 0 180 0 c 0
 153.853633925 0 132 21.8555282921 132 48 c 2
 132 688 l 2
 132 714.146366075 153.855528292 736 180 736 c 0
 206.144471708 736 228 714.146366075 228 688 c 2
 228 379.040826501 l 1
 670.389680165 725.778683927 l 2
 679.023566095 732.54578371 689.435965854 735.818816786 699.805818378 735.818816786 c 0
 714.152251077 735.818816786 728.417248226 729.554220558 737.778683927 717.610319835 c 0
 744.545570637 708.976705757 747.818778256 698.564112895 747.818778256 688.193897578 c 0
 747.818778256 673.847975554 741.554732265 659.583152842 729.610319835 650.221316073 c 2
 446.888970311 428.628906987 l 1
 755.92695251 79.8316522242 l 2
 763.897558765 70.8355878545 767.809886105 59.4557798302 767.809886105 48.1005929743 c 0
 767.809886105 34.7537745134 762.404806171 21.4409714534 751.831652224 12.0730474897 c 0
EndSplineSet
EndChar

StartChar: L
Encoding: 76 76 44
Width: 820
VWidth: 0
Flags: HW
AnchorPoint: "above" 410 784 basechar 0
LayerCount: 2
Fore
SplineSet
180 736 m 0
 206.144471708 736 228 714.146366075 228 688 c 2
 228 96 l 1
 700 96 l 2
 726.144471708 96 748 74.1463660754 748 48 c 0
 748 21.8536339246 726.144471708 0 700 0 c 2
 180 0 l 2
 159.398583681 0 132 18.9455273174 132 48 c 2
 132 688 l 2
 132 714.146366075 153.855528292 736 180 736 c 0
EndSplineSet
EndChar

StartChar: M
Encoding: 77 77 45
Width: 1037
VWidth: 0
Flags: HW
AnchorPoint: "above" 519 784 basechar 0
LayerCount: 2
Fore
SplineSet
180 0 m 0
 153.855528292 0 132 21.8536339246 132 48 c 2
 132 688 l 2
 132 717.054472683 159.398583681 736 180 736 c 2
 202 736 l 1
 230 736 l 2
 249.600488699 736 267.139129309 722.33646831 273.72095581 707.811058101 c 2
 520 164.298684716 l 1
 766.27904419 707.811058101 l 2
 774.368761283 725.664226857 794.052963228 736 810 736 c 2
 838 736 l 1
 860 736 l 2
 889.054472683 736 908 708.601416319 908 688 c 2
 908 48 l 2
 908 21.8555282921 886.146366075 0 860 0 c 0
 833.853633925 0 812 21.8555282921 812 48 c 2
 812 576.115108388 l 1
 563.72095581 28.1889418988 l 2
 560.611720723 21.3271817085 552.375308853 11.0391497157 543.180209121 5.96813226702 c 0
 535.993246295 2.00458483933 528.169868192 0.141523908869 520.424902365 0.141523908869 c 0
 502.133418653 0.141523908869 484.279298826 10.5332075312 476.27904419 28.1889418988 c 2
 228 576.115108388 l 1
 228 48 l 2
 228 21.8536339246 206.144471708 0 180 0 c 0
EndSplineSet
EndChar

StartChar: N
Encoding: 78 78 46
Width: 900
VWidth: 0
Flags: HW
AnchorPoint: "above" 450 784 basechar 0
LayerCount: 2
Fore
SplineSet
180 0 m 0
 153.855528292 0 132 21.8536339246 132 48 c 2
 132 688 l 2
 132 717.054472683 159.398583681 736 180 736 c 2
 198 736 l 1
 230 736 l 2
 245.928263358 736 261.327664863 726.897706837 269.265399603 715.608484096 c 2
 672 142.830385752 l 1
 672 688 l 2
 672 714.144471708 693.853633925 736 720 736 c 0
 746.146366075 736 768 714.144471708 768 688 c 2
 768 48 l 2
 768 27.3985836813 749.054472683 0 720 0 c 2
 704 0 l 1
 680 0 l 2
 666.199486137 0 649.896167181 7.36173203515 640.734600397 20.3915159045 c 2
 228 607.39183647 l 1
 228 48 l 2
 228 21.8536339246 206.144471708 0 180 0 c 0
EndSplineSet
EndChar

StartChar: O
Encoding: 79 79 47
Width: 920
VWidth: 0
Flags: HW
HStem: 40 656<353.411 566.589>
VStem: 150 620<233.016 502.984>
AnchorPoint: "middle" 460 368 basechar 0
AnchorPoint: "above" 460 784 basechar 0
LayerCount: 2
Fore
SplineSet
818 368 m 0
 818 162.792242902 659.827887458 -8 460 -8 c 0
 260.172114033 -8 102 162.792240209 102 368 c 0
 102 573.207757098 260.172112542 744 460 744 c 0
 659.827885967 744 818 573.207759791 818 368 c 0
722 368 m 0
 722 524.792240209 602.172114033 648 460 648 c 0
 317.827887458 648 198 524.792242902 198 368 c 0
 198 211.207759791 317.827885967 88 460 88 c 0
 602.172112542 88 722 211.207757098 722 368 c 0
EndSplineSet
EndChar

StartChar: P
Encoding: 80 80 48
Width: 850
VWidth: 0
Flags: HW
AnchorPoint: "above" 425 784 basechar 0
LayerCount: 2
Fore
SplineSet
228 400 m 1
 480 400 l 2
 589.183502934 400 652 446.113592859 652 520 c 0
 652 593.886599075 589.183585556 640 480 640 c 2
 228 640 l 1
 228 400 l 1
228 304 m 1
 228 48 l 2
 228 21.8536339246 206.144471708 0 180 0 c 0
 153.855528292 0 132 21.8536339246 132 48 c 2
 132 351 l 1
 132 688 l 2
 132 717.054472683 159.398583681 736 180 736 c 2
 480 736 l 2
 610.816414444 736 748 670.113400925 748 520 c 0
 748 369.886407141 610.816497066 304 480 304 c 2
 228 304 l 1
EndSplineSet
EndChar

StartChar: Q
Encoding: 81 81 49
Width: 920
VWidth: 0
Flags: HW
HStem: 40 656<353.411 566.589>
VStem: 150 620<233.016 502.984>
AnchorPoint: "above" 460 784 basechar 0
LayerCount: 2
Fore
SplineSet
481.909957312 188.97546141 m 0
 489.655016397 206.97133399 507.720207551 217.903595357 526.395491084 217.903595357 c 0
 532.641665584 217.903595357 538.956088004 216.680659091 544.97546141 214.090042688 c 0
 588.86206228 195.202138517 611.712088315 173.084864049 625.683983249 151.31017911 c 1
 684.118927929 202.30305098 722 279.843010276 722 368 c 0
 722 524.792240209 602.172114033 648 460 648 c 0
 317.827887458 648 198 524.792242902 198 368 c 0
 198 211.207759791 317.827885967 88 460 88 c 0
 482.152143268 88 503.761826227 90.991167417 524.460295639 96.6344826593 c 1
 516.820625235 112.565013478 511.753552985 123.874685293 507.02453859 125.909957312 c 0
 489.027611955 133.65547004 478.096475108 151.720964309 478.096475108 170.395553664 c 0
 478.096475108 176.641842006 479.319421068 182.956274256 481.909957312 188.97546141 c 0
672.516912322 65.3883454275 m 1
 682.384575871 57.9511039368 696.145903647 52.7936089128 716.704512625 50.7688974225 c 0
 741.187212121 48.3577224721 759.994186598 27.0621931348 759.994186598 2.87729377389 c 0
 759.994186598 -24.7116554788 737.031908418 -44.9941760298 711.877103608 -44.9941760298 c 0
 710.359941844 -44.9941760298 708.831419644 -44.9201634793 707.295487375 -44.7688974225 c 0
 648.229556727 -38.951798192 607.920789797 -14.8733660192 579.643542272 13.4599118572 c 1
 542.336667176 -0.421817940928 502.092482837 -8 460 -8 c 0
 260.172114033 -8 102 162.792240209 102 368 c 0
 102 573.207757098 260.172112542 744 460 744 c 0
 659.827885967 744 818 573.207759791 818 368 c 0
 818 244.956445102 761.133027484 134.286159224 672.516912322 65.3883454275 c 1
EndSplineSet
EndChar

StartChar: R
Encoding: 82 82 50
Width: 880
VWidth: 0
Flags: HW
AnchorPoint: "above" 440 784 basechar 0
LayerCount: 2
Fore
SplineSet
228 432 m 1
 510 432 l 2
 625.748419102 432 682 465.956861913 682 536 c 0
 682 606.002208974 625.729152854 640 510 640 c 2
 228 640 l 1
 228 432 l 1
228 336 m 1
 228 48 l 2
 228 21.8536339246 206.144471708 0 180 0 c 0
 153.855528292 0 132 21.8536339246 132 48 c 2
 132 383 l 1
 132 688 l 2
 132 717.054472683 159.398583681 736 180 736 c 2
 510 736 l 2
 634.270847146 736 778 689.997791026 778 536 c 0
 778 422.494872024 699.866740566 367.645352457 609.017108149 346.658187584 c 1
 757.282860317 70.719148827 l 2
 761.076310503 63.6591165364 762.869890835 55.9824109505 762.869890835 48.3740440449 c 0
 762.869890835 31.1614141301 753.690108163 14.2985506696 737.719148827 5.71713968311 c 0
 730.659324812 1.92380140636 722.982545161 0.130179477048 715.373976848 0.130179477048 c 0
 698.161957451 0.130179477048 681.299009511 9.3090378815 672.717139683 25.280851173 c 2
 505.763567179 336 l 1
 228 336 l 1
EndSplineSet
EndChar

StartChar: S
Encoding: 83 83 51
Width: 840
VWidth: 0
Flags: HW
AnchorPoint: "bottom" 420 40 basechar 0
AnchorPoint: "above" 420 784 basechar 0
LayerCount: 2
Fore
SplineSet
688.562555068 531.734533219 m 0
 682.558591572 529.216793972 676.400610476 528.037786804 670.361919038 528.037786804 c 0
 651.581762386 528.037786804 633.95536588 539.441051059 625.703646821 557.443150639 c 0
 624.659557425 559.632916508 585.00712294 648 420 648 c 0
 283.738165926 648 218 594.321281167 218 544 c 0
 218 521.140946434 230.883137188 457.047855321 445.676250932 431.663214606 c 0
 654.820486708 406.565906313 738 317.231001824 738 216 c 0
 738 80.1901860764 600.510645803 -8 420 -8 c 0
 196.065727014 -8 112.255659479 137.013484054 107.550211208 145.580532804 c 0
 103.845822999 152.881404521 102.106960359 160.553805187 102.106960359 168.044088424 c 0
 102.106960359 185.252357821 111.28485755 201.499392559 126.892141664 210.071687429 c 0
 133.830207813 213.882417625 141.49746663 215.595468937 149.100471869 215.595468937 c 0
 166.016738021 215.595468937 182.614924611 207.115215896 190.155761375 194.391120675 c 0
 195.07269212 186.010235156 251.086899034 88 420 88 c 0
 579.489354197 88 642 159.809813924 642 216 c 0
 642 250.770504551 625.215235638 313.429807005 434.28102941 336.341911753 c 0
 209.152521409 362.948008153 122 446.860447203 122 544 c 0
 122 685.678718833 276.261834074 744 420 744 c 0
 642.919919389 744 709.283913811 606.441895652 714.569189812 593.838285405 c 0
 716.673604966 588.320303975 717.695642502 582.48319196 717.695642502 576.653481065 c 0
 717.695642502 558.09267262 707.335479513 539.606887655 688.562555068 531.734533219 c 0
EndSplineSet
EndChar

StartChar: T
Encoding: 84 84 52
Width: 860
VWidth: 0
Flags: HW
AnchorPoint: "bottom" 430 48 basechar 0
AnchorPoint: "above" 430 784 basechar 0
LayerCount: 2
Fore
SplineSet
72 688 m 0
 72 714.144471708 93.8536339246 736 120 736 c 2
 740 736 l 2
 766.144471708 736 788 714.146366075 788 688 c 0
 788 661.853633925 766.144471708 640 740 640 c 2
 478 640 l 1
 478 48 l 2
 478 21.8555282921 456.146366075 0 430 0 c 0
 403.853633925 0 382 21.8555282921 382 48 c 2
 382 640 l 1
 120 640 l 2
 93.8536339246 640 72 661.855528292 72 688 c 0
EndSplineSet
EndChar

StartChar: U
Encoding: 85 85 53
Width: 890
VWidth: 0
Flags: HW
AnchorPoint: "above" 445 784 basechar 0
LayerCount: 2
Fore
SplineSet
710 736 m 0
 736.144471708 736 758 714.146366075 758 688 c 2
 758 216 l 2
 758 76.1743141882 600.797418445 -8 445 -8 c 0
 289.17362811 -8 132 76.163870446 132 216 c 2
 132 688 l 2
 132 714.144471708 153.853633925 736 180 736 c 0
 206.146366075 736 228 714.144471708 228 688 c 2
 228 216 l 2
 228 161.836129554 308.82637189 88 445 88 c 0
 581.202581555 88 662 161.825685812 662 216 c 2
 662 688 l 2
 662 714.146366075 683.855528292 736 710 736 c 0
EndSplineSet
EndChar

StartChar: V
Encoding: 86 86 54
Width: 860
VWidth: 0
Flags: HW
AnchorPoint: "above" 430 784 basechar 0
LayerCount: 2
Fore
SplineSet
99.6271739409 731.462028926 m 0
 106.045730071 734.470727112 112.860677509 735.890912154 119.606403064 735.890912154 c 0
 137.740080489 735.890912154 155.373541612 725.628265661 163.462028926 708.372826059 c 2
 430 139.758487768 l 1
 696.537971074 708.372826059 l 2
 704.625999438 725.627286569 722.259244611 735.890983873 740.393581282 735.890983873 c 0
 747.139161152 735.890983873 753.954075981 734.470818025 760.372826059 731.462028926 c 0
 777.628265661 723.373541612 787.890912154 705.740080489 787.890912154 687.606403064 c 0
 787.890912154 680.860677509 786.470727112 674.045730071 783.462028926 667.627173941 c 2
 483.462028926 27.6271739409 l 2
 476.961397023 13.7591592148 459.501609669 0 440 0 c 2
 420 0 l 2
 404.683993746 0 384.815114859 9.9692672003 376.537971074 27.6271739409 c 2
 76.537971074 667.627173941 l 2
 73.5291819749 674.045924019 72.1090161274 680.860838848 72.1090161274 687.606418718 c 0
 72.1090161274 705.740755389 82.3727134311 723.374000562 99.6271739409 731.462028926 c 0
EndSplineSet
EndChar

StartChar: W
Encoding: 87 87 55
Width: 1090
VWidth: 0
Flags: HW
AnchorPoint: "above" 545 784 basechar 0
LayerCount: 2
Fore
SplineSet
105.035019941 733.607558275 m 0
 109.85270231 735.188360303 114.77337155 735.937880424 119.63534059 735.937880424 c 0
 139.843091381 735.937880424 159.036811366 722.990113496 165.607558275 702.964980059 c 2
 338.208970644 176.941628078 l 1
 493.984950419 701.660717844 l 2
 500.065361711 722.142103249 519.8457388 736 540 736 c 2
 550 736 l 2
 571.364890581 736 590.279181339 720.981537186 596.015049581 701.660717844 c 2
 751.791029356 176.941628078 l 1
 924.392441725 702.964980059 l 2
 930.962773094 722.988847088 950.155908089 735.937939982 970.364483754 735.937939982 c 0
 975.226420306 735.937939982 980.147133086 735.188414313 984.964980059 733.607558275 c 0
 1004.9901135 727.036811366 1017.93788042 707.843091381 1017.93788042 687.63534059 c 0
 1017.93788042 682.77337155 1017.1883603 677.85270231 1015.60755828 673.035019941 c 2
 805.607558275 33.0350199409 l 2
 799.841787911 15.463148356 781.330178913 0 760 0 c 2
 740 0 l 2
 719.8457388 0 700.065361711 13.8578967512 693.984950419 34.3392821555 c 2
 545 536.183325671 l 1
 396.015049581 34.3392821555 l 2
 390.279181339 15.0184628138 371.364890581 0 350 0 c 2
 330 0 l 2
 311.50635842 0 291.042560518 12.7679912365 284.392441725 33.0350199409 c 2
 74.3924417247 673.035019941 l 2
 72.8115856866 677.852866914 72.0620600175 682.773579694 72.0620600175 687.635516246 c 0
 72.0620600175 707.844091911 85.0111529122 727.037226906 105.035019941 733.607558275 c 0
EndSplineSet
EndChar

StartChar: X
Encoding: 88 88 56
Width: 790
VWidth: 0
Flags: HW
AnchorPoint: "above" 395 784 basechar 0
LayerCount: 2
Fore
SplineSet
88.7151963222 11.5958648113 m 0
 77.8016708328 20.9746757787 72.18840811 34.5275959428 72.18840811 48.1249549835 c 0
 72.18840811 59.2322541612 75.9340234797 70.369206492 83.5958648113 79.2848036778 c 2
 331.710486651 368 l 1
 83.5958648113 656.715196322 l 2
 75.9340234797 665.630793508 72.18840811 676.767745839 72.18840811 687.875045017 c 0
 72.18840811 701.472404057 77.8016708328 715.025324221 88.7151963222 724.404135189 c 0
 97.6304994501 732.065723814 108.767664384 735.811566956 119.875361162 735.811566956 c 0
 133.472231777 735.811566956 147.024947089 730.198768012 156.404135189 719.284803678 c 2
 395 441.64597917 l 1
 633.595864811 719.284803678 l 2
 642.974675779 730.198329167 656.527595943 735.81159189 670.124954983 735.81159189 c 0
 681.232254161 735.81159189 692.369206492 732.06597652 701.284803678 724.404135189 c 0
 712.198768012 715.024947089 717.811566956 701.472231777 717.811566956 687.875361162 c 0
 717.811566956 676.767664384 714.065723814 665.63049945 706.404135189 656.715196322 c 2
 458.289513349 368 l 1
 706.404135189 79.2848036778 l 2
 714.065723814 70.3695005499 717.811566956 59.2323356156 717.811566956 48.1246388381 c 0
 717.811566956 34.5277682228 712.198768012 20.9750529106 701.284803678 11.5958648113 c 0
 692.369206492 3.93402347972 681.232254161 0.188408110015 670.124954983 0.188408110015 c 0
 656.527595943 0.188408110015 642.974675779 5.80167083279 633.595864811 16.7151963222 c 2
 395 294.35402083 l 1
 156.404135189 16.7151963222 l 2
 147.024947089 5.80123198837 133.472231777 0.188433044062 119.875361162 0.188433044062 c 0
 108.767664384 0.188433044062 97.6304994501 3.93427618571 88.7151963222 11.5958648113 c 0
EndSplineSet
EndChar

StartChar: Y
Encoding: 89 89 57
Width: 820
VWidth: 0
Flags: HW
AnchorPoint: "middle" 410 368 basechar 0
AnchorPoint: "above" 410 784 basechar 0
LayerCount: 2
Fore
SplineSet
86.8680347969 722.731439385 m 0
 96.0291672249 731.470677557 108.000078113 735.807290489 119.960590367 735.807290489 c 0
 132.698092244 735.807290489 145.423800552 730.888938324 154.731439385 721.131965203 c 2
 410 453.540094766 l 1
 665.268560615 721.131965203 l 2
 674.575851322 730.888573393 687.301782157 735.807298425 700.03974498 735.807298425 c 0
 711.999824326 735.807298425 723.97051099 731.470984523 733.131965203 722.731439385 c 0
 742.888938324 713.423800552 747.807290489 700.698092244 747.807290489 687.960590367 c 0
 747.807290489 676.000078113 743.470677557 664.029167225 734.731439385 654.868034797 c 2
 458 364.777146614 l 1
 458 48 l 2
 458 21.8555282921 436.146366075 0 410 0 c 0
 383.853633925 0 362 21.8555282921 362 48 c 2
 362 364.777146614 l 1
 85.2685606146 654.868034797 l 2
 76.5290154774 664.02948901 72.1927015753 676.000175674 72.1927015753 687.96025502 c 0
 72.1927015753 700.698217843 77.1114266072 713.424148678 86.8680347969 722.731439385 c 0
EndSplineSet
EndChar

StartChar: Z
Encoding: 90 90 58
Width: 790
VWidth: 0
Flags: HW
AnchorPoint: "above" 395 784 basechar 0
LayerCount: 2
Fore
SplineSet
82 688 m 0
 82 714.144471708 103.853633925 736 130 736 c 2
 660 736 l 2
 686.354847908 736 707.996663789 713.865582227 707.996663789 687.910164833 c 0
 707.996663789 675.612009077 703.529989268 665.157600025 696.685991208 657.046194918 c 2
 223.303264246 96 l 1
 670 96 l 2
 696.144471708 96 718 74.1463660754 718 48 c 0
 718 21.8536339246 696.144471708 0 670 0 c 2
 120 0 l 2
 112.164367508 0 100.248415623 3.09530167357 92.0198862183 8.99854832496 c 0
 79.0407430359 18.3099428355 72.2082885801 33.2190113014 72.2082885801 48.2153479002 c 0
 72.2082885801 59.1219414061 75.8222593865 70.074694676 83.3140087916 78.9538050821 c 2
 556.696735754 640 l 1
 130 640 l 2
 103.853633925 640 82 661.855528292 82 688 c 0
EndSplineSet
EndChar

StartChar: bracketleft
Encoding: 91 91 59
Width: 390
VWidth: 0
Flags: HW
LayerCount: 2
Fore
SplineSet
338 768 m 0
 338 741.855528292 316.146366075 720 290 720 c 2
 188 720 l 1
 188 16 l 1
 290 16 l 2
 316.144471708 16 338 -5.85363392464 338 -32 c 0
 338 -58.1463660754 316.144471708 -80 290 -80 c 2
 140 -80 l 2
 119.398583681 -80 92 -61.0544726826 92 -32 c 2
 92 768 l 2
 92 788.601416319 110.945527317 816 140 816 c 2
 290 816 l 2
 316.146366075 816 338 794.144471708 338 768 c 0
EndSplineSet
EndChar

StartChar: backslash
Encoding: 92 92 60
Width: 720
VWidth: 0
Flags: HW
LayerCount: 2
Fore
SplineSet
607.193383499 8.44598763843 m 0
 599.046211697 2.84480702467 589.633941977 0.1664079155 580.277432766 0.1664079155 c 0
 564.891865034 0.1664079155 549.657071172 7.40867681676 540.445987638 20.8066165014 c 2
 100.445987638 660.806616501 l 2
 94.8448070247 668.953788303 92.1664079155 678.366058023 92.1664079155 687.722567234 c 0
 92.1664079155 703.108134966 99.4086768168 718.342928828 112.806616501 727.554012362 c 0
 120.954033134 733.155361297 130.366147422 735.833646448 139.722348093 735.833646448 c 0
 155.108457633 735.833646448 170.343358684 728.590697939 179.554012362 715.193383499 c 2
 619.554012362 75.1933834986 l 2
 625.155361297 67.0459668658 627.833646448 57.6338525778 627.833646448 48.277651907 c 0
 627.833646448 32.8915423673 620.590697939 17.6566413164 607.193383499 8.44598763843 c 0
EndSplineSet
EndChar

StartChar: bracketright
Encoding: 93 93 61
Width: 390
VWidth: 0
Flags: HW
LayerCount: 2
Fore
SplineSet
52 768 m 0
 52 794.144471708 73.8536339246 816 100 816 c 2
 250 816 l 2
 279.054472683 816 298 788.601416319 298 768 c 2
 298 -32 l 2
 298 -61.0544726826 270.601416319 -80 250 -80 c 2
 100 -80 l 2
 73.8555282921 -80 52 -58.1463660754 52 -32 c 0
 52 -5.85363392464 73.8555282921 16 100 16 c 2
 202 16 l 1
 202 720 l 1
 100 720 l 2
 73.8536339246 720 52 741.855528292 52 768 c 0
EndSplineSet
EndChar

StartChar: asciicircum
Encoding: 94 94 62
Width: 640
VWidth: 0
Flags: HW
LayerCount: 2
Fore
SplineSet
111.2 409.6 m 0
 98.7642108426 418.926841868 92.1767271952 433.524419706 92.1767271952 448.224459187 c 0
 92.1767271952 458.24820757 95.239698024 468.319597365 101.6 476.8 c 2
 281.6 716.8 l 2
 291.179782628 729.573043505 305.415466552 735.452269569 319.535883672 735.452269569 c 0
 334.521376275 735.452269569 349.377045997 728.830605338 358.4 716.8 c 2
 538.4 476.8 l 2
 544.76010537 468.319859507 547.823228436 458.248288249 547.823228436 448.22419479 c 0
 547.823228436 433.524676367 541.236337916 418.927253437 528.8 409.6 c 0
 520.319597365 403.239698024 510.24820757 400.176727195 500.224459187 400.176727195 c 0
 485.524419706 400.176727195 470.926841868 406.764210843 461.6 419.2 c 2
 320 608 l 1
 178.4 419.2 l 2
 169.072746563 406.763662084 154.475323633 400.176771564 139.77580521 400.176771564 c 0
 129.751711751 400.176771564 119.680140493 403.23989463 111.2 409.6 c 0
EndSplineSet
EndChar

StartChar: underscore
Encoding: 95 95 63
Width: 720
VWidth: 0
Flags: HW
LayerCount: 2
Fore
SplineSet
12 -96 m 0
 12 -69.8555282921 33.8536339246 -48 60 -48 c 2
 660 -48 l 2
 686.144471708 -48 708 -69.8536339246 708 -96 c 0
 708 -122.146366075 686.144471708 -144 660 -144 c 2
 60 -144 l 2
 33.8536339246 -144 12 -122.144471708 12 -96 c 0
EndSplineSet
EndChar

StartChar: grave
Encoding: 96 96 64
Width: 480
VWidth: 0
Flags: HW
LayerCount: 2
Fore
SplineSet
106.73078162 722.599987115 m 0
 115.907072571 731.423343799 127.941509341 735.807147581 139.96722324 735.807147581 c 0
 152.63930895 735.807147581 165.301708893 730.939427731 174.599987115 721.26921838 c 2
 374.599987115 513.26921838 l 2
 383.423343799 504.092927429 387.807147581 492.058490659 387.807147581 480.03277676 c 0
 387.807147581 467.36069105 382.939427731 454.698291107 373.26921838 445.400012885 c 0
 364.09260346 436.576344693 352.058391249 432.192845813 340.033112751 432.192845813 c 0
 327.360568322 432.192845813 314.697945211 437.060932 305.400012885 446.73078162 c 2
 105.400012885 654.73078162 l 2
 96.5763446927 663.90739654 92.1928458127 675.941608751 92.1928458127 687.966887249 c 0
 92.1928458127 700.639431678 97.0609320002 713.302054789 106.73078162 722.599987115 c 0
EndSplineSet
EndChar

StartChar: a
Encoding: 97 97 65
Width: 735
VWidth: 0
Flags: HW
AnchorPoint: "above" 368 576 basechar 0
LayerCount: 2
Fore
SplineSet
555 528 m 1
 581.144471708 528 603 506.146366075 603 480 c 2
 603 48 l 2
 603 21.8555282921 581.146366075 0 555 0 c 0
 531.534088879 0 511.525867002 17.6040858035 507.670111057 40.1133724086 c 1
 464.36753945 9.75052124782 411.731980525 -8 355 -8 c 1
 205.7952742 -8 87 114.321398024 87 264 c 0
 87 413.678594804 205.795255951 536 355 536 c 0
 411.732543498 536 464.367871938 518.249727825 507.670161244 487.887076649 c 1
 511.526203618 510.39742956 531.535782044 528 555 528 c 1
507 181.104276239 m 1
 507 346.895705383 l 1
 478.228254935 402.713117109 420.914810246 440 355 440 c 0
 260.204744049 440 183 362.321405196 183 264 c 0
 183 165.678601976 260.2047258 88 355 88 c 0
 420.916096165 88 478.228135515 125.286358164 507 181.104276239 c 1
EndSplineSet
EndChar

StartChar: b
Encoding: 98 98 66
Width: 735
VWidth: 0
Flags: HW
LayerCount: 2
Fore
SplineSet
180 736 m 0
 206.144471708 736 228 714.146366075 228 688 c 2
 228 488.355453444 l 1
 271.174703345 518.432193077 323.559802958 536 380 536 c 0
 529.204744049 536 648 413.678594804 648 264 c 0
 648 114.321398024 529.2047258 -8 380 -8 c 0
 319.586963333 -8 263.819187336 12.1287382632 219.020131213 46.1815484014 c 1
 217.44891649 39.1014857271 216.148179875 34.7592195757 215.624923385 33.0673569262 c 0
 208.494183846 12.4292458219 189.745181461 0.0055275387898 169.917671858 0.0055275387898 c 0
 165.231461084 0.0055275387898 160.485004014 0.699526616689 155.8174533 2.1430990025 c 0
 135.363659169 8.46901471318 121.996127308 28.3610378934 121.996127308 48.4803326782 c 0
 121.996127308 52.3648176929 122.494429297 56.2577747198 123.536240675 60.063201817 c 0
 124.916179318 64.930621756 132 88.7719949008 132 144 c 2
 132 688 l 2
 132 714.146366075 153.855528292 736 180 736 c 0
228 346.895705383 m 1
 228 181.104276239 l 1
 256.771864485 125.286358164 314.083903835 88 380 88 c 0
 474.7952742 88 552 165.678601976 552 264 c 0
 552 362.321405196 474.795255951 440 380 440 c 0
 314.085189754 440 256.771745065 402.713117109 228 346.895705383 c 1
EndSplineSet
EndChar

StartChar: c
Encoding: 99 99 67
Width: 660
VWidth: 0
Flags: HW
AnchorPoint: "middle" 350 264 basechar 0
AnchorPoint: "bottom" 350 40 basechar 0
AnchorPoint: "above" 350 576 basechar 0
LayerCount: 2
Fore
SplineSet
552.104827948 173.61474854 m 0
 565.554593091 164.412277653 572.834270569 149.143081583 572.834270569 133.719691497 c 0
 572.834270569 124.399607357 570.176043237 115.023218147 564.61474854 106.895172052 c 0
 517.342270781 37.8046276349 438.856943544 -8 350 -8 c 0
 202.863677482 -8 87 115.220436216 87 264 c 0
 87 412.779741459 202.859917122 536 350 536 c 0
 431.224453894 536 504.837116807 497.846748522 552.556362539 437.891798756 c 0
 559.468464635 429.207362789 562.817370432 418.674890714 562.817370432 408.182862259 c 0
 562.817370432 393.96106393 556.664283606 379.813574383 544.891798756 370.443637461 c 0
 536.207087406 363.531316183 525.674812178 360.182593184 515.183152544 360.182593184 c 0
 500.960847181 360.182593184 486.813177141 366.336215493 477.443637461 378.108201244 c 0
 447.162883193 416.153251478 400.775546106 440 350 440 c 0
 259.140082878 440 183 363.220258541 183 264 c 0
 183 164.779563784 259.136322518 88 350 88 c 0
 405.143056456 88 454.657729219 116.195372365 485.38525146 161.104827948 c 0
 494.588153103 174.555222657 509.857244955 181.834215718 525.280092063 181.834215718 c 0
 534.600482683 181.834215718 543.977025802 179.175876325 552.104827948 173.61474854 c 0
EndSplineSet
EndChar

StartChar: d
Encoding: 100 100 68
Width: 740
VWidth: 0
Flags: HW
AnchorPoint: "above" 370 784 basechar 0
LayerCount: 2
Fore
SplineSet
560 736 m 0
 586.144471708 736 608 714.146366075 608 688 c 2
 608 144 l 2
 608 88.7719949008 615.083820682 64.930621756 616.463759325 60.063201817 c 0
 617.505570703 56.2577747198 618.003872692 52.3648176929 618.003872692 48.4803326782 c 0
 618.003872692 28.3610378934 604.636340831 8.46901471318 584.1825467 2.1430990025 c 0
 579.514995986 0.69952661669 574.768538916 0.00552753878996 570.082328142 0.00552753878996 c 0
 550.254818539 0.00552753878996 531.505816154 12.4292458219 524.375076615 33.0673569262 c 0
 523.851820125 34.7592195757 522.55108351 39.1014857271 520.979868787 46.1815484014 c 1
 476.180812664 12.1287382632 420.413036667 -8 360 -8 c 1
 210.7952742 -8 92 114.321398024 92 264 c 0
 92 413.678594804 210.795255951 536 360 536 c 0
 416.440197042 536 468.825296655 518.432193077 512 488.355453444 c 1
 512 688 l 2
 512 714.146366075 533.855528292 736 560 736 c 0
512 181.104276239 m 1
 512 346.895705383 l 1
 483.228254935 402.713117109 425.914810246 440 360 440 c 0
 265.204744049 440 188 362.321405196 188 264 c 0
 188 165.678601976 265.2047258 88 360 88 c 0
 425.916096165 88 483.228135515 125.286358164 512 181.104276239 c 1
EndSplineSet
EndChar

StartChar: e
Encoding: 101 101 69
Width: 680
VWidth: 0
Flags: HW
AnchorPoint: "bottom" 340 40 basechar 0
AnchorPoint: "above" 340 576 basechar 0
LayerCount: 2
Fore
SplineSet
196.393634155 336 m 1
 491.869215248 336 l 1
 487.375577511 353.111874572 481.000412588 367.27476475 466.310489866 386.276767183 c 0
 437.402213398 422.229881507 397.484252817 440 345 440 c 0
 278.998288821 440 221.804712287 399.492006126 196.393634155 336 c 1
184.384327008 240 m 1
 195.009427338 149.22306335 263.956835042 88 345 88 c 0
 455.472794269 88 502.731834453 151.53184776 505.959932331 155.920443456 c 0
 515.059351528 168.310745848 530.217302754 175.731218221 545.709124017 175.731218221 c 0
 554.785655898 175.731218221 563.976795101 173.183998127 572.131205244 167.596688018 c 0
 585.828613639 158.211377856 592.616514382 143.042706203 592.616514382 127.905102649 c 0
 592.616514382 118.655130342 590.081957198 109.416758657 585.040589328 101.516639642 c 0
 579.479925626 93.4011186477 506.867421814 -8 345 -8 c 0
 200.692356131 -8 87 111.96580311 87 264 c 0
 87 277.073644662 87.8289508444 289.929335246 89.4456606524 302.502623631 c 0
 106.601459832 435.924719237 213.405568008 536 345 536 c 0
 420.690316805 536 492.360933769 507.701440031 541.698613809 445.7130728 c 0
 581.095316432 395.236047565 593 342.344634077 593 288 c 0
 593 258.945527317 565.601416319 240 545 240 c 2
 184.384327008 240 l 1
EndSplineSet
EndChar

StartChar: f
Encoding: 102 102 70
Width: 470
VWidth: 0
Flags: HW
AnchorPoint: "above" 235 784 basechar 0
LayerCount: 2
Fore
SplineSet
57 480 m 0
 57 506.144471708 78.8536339246 528 105 528 c 2
 177 528 l 1
 177 624 l 2
 177 727.009630709 289.76041374 752 335 752 c 0
 361.4810872 752 381.956042661 747.553333948 385.068578475 746.938706622 c 0
 408.114460923 741.598911252 423.000201553 721.688251137 423.000201553 699.972979661 c 0
 423.000201553 696.906352795 422.703334642 693.803736493 422.090659162 690.701085026 c 0
 417.62328478 668.077842964 397.124376567 652.023934745 374.750948593 652.023934745 c 0
 371.756591025 652.023934745 368.728657201 652.311491143 365.701085026 652.909340838 c 0
 365.383947145 652.97029721 348.227398701 656 335 656 c 0
 300.23958626 656 273 632.990369291 273 624 c 2
 273 528 l 1
 365 528 l 2
 391.144471708 528 413 506.146366075 413 480 c 0
 413 453.853633925 391.144471708 432 365 432 c 2
 273 432 l 1
 273 48 l 2
 273 21.8536339246 251.144471708 0 225 0 c 0
 198.855528292 0 177 21.8536339246 177 48 c 2
 177 432 l 1
 105 432 l 2
 78.8536339246 432 57 453.855528292 57 480 c 0
EndSplineSet
EndChar

StartChar: g
Encoding: 103 103 71
Width: 735
VWidth: 0
Flags: HW
LayerCount: 2
Fore
SplineSet
579.1825467 525.856900998 m 0
 600.576096718 519.240339136 612.875688151 498.045941161 612.875688151 478.797971994 c 0
 612.875688151 475.064126931 612.412845426 471.403527423 611.463759325 467.936798183 c 0
 609.889488597 462.383915978 603 438.661571056 603 384 c 2
 603 0 l 2
 603 -96.0946047431 530.698564657 -192 395 -192 c 0
 312.013676637 -192 256.049276936 -160.387557217 250.961449346 -157.554367579 c 0
 235.381654249 -148.198066869 227.032345692 -132.143146025 227.032345692 -115.836618869 c 0
 227.032345692 -107.92032066 229.000104417 -99.9447240655 233.063631605 -92.6474625394 c 0
 241.735872773 -77.073895811 258.329360186 -68.1196910343 275.323567396 -68.1196910343 c 0
 282.688209296 -68.1196910343 290.128107391 -69.8013133912 297.03119263 -73.3545827046 c 0
 300.483246517 -75.1994323838 340.544795747 -96 395 -96 c 0
 479.301435343 -96 507 -47.9053952569 507 0 c 2
 507 39.6450306454 l 1
 463.825005935 9.56806823148 411.439660739 -8 355 -8 c 0
 205.7952742 -8 87 114.321398024 87 264 c 0
 87 413.678594804 205.795255951 536 355 536 c 0
 415.408785633 536 471.17215687 515.874776227 515.969072852 481.827140894 c 1
 517.494070964 488.670735916 518.778408171 493.003415106 519.375076615 494.932643074 c 0
 525.993703524 514.088574485 544.798833031 527.943070062 565.44907687 527.943070062 c 0
 569.974566751 527.943070062 574.588670993 527.277687299 579.1825467 525.856900998 c 0
507 181.104276239 m 1
 507 346.895705383 l 1
 478.228254935 402.713117109 420.914810246 440 355 440 c 0
 260.204744049 440 183 362.321405196 183 264 c 0
 183 165.678601976 260.2047258 88 355 88 c 0
 420.916096165 88 478.228135515 125.286358164 507 181.104276239 c 1
EndSplineSet
EndChar

StartChar: h
Encoding: 104 104 72
Width: 730
VWidth: 0
Flags: HW
AnchorPoint: "above" 365 784 basechar 0
LayerCount: 2
Fore
SplineSet
180 736 m 0
 206.144471708 736 228 714.146366075 228 688 c 2
 228 484.670028901 l 1
 270.332356281 512.110906732 327.886173661 536 400 536 c 0
 500.773429016 536 598 463.561941541 598 352 c 2
 598 48 l 2
 598 21.8536339246 576.144471708 0 550 0 c 0
 523.855528292 0 502 21.8536339246 502 48 c 2
 502 352 l 2
 502 400.438058459 459.226570984 440 400 440 c 0
 310.684087607 440 249.803095102 382.827061148 228 358.514216386 c 1
 228 48 l 2
 228 21.8555282921 206.146366075 0 180 0 c 0
 153.853633925 0 132 21.8555282921 132 48 c 2
 132 688 l 2
 132 714.146366075 153.855528292 736 180 736 c 0
EndSplineSet
EndChar

StartChar: i
Encoding: 105 105 73
Width: 360
VWidth: 0
Flags: HW
LayerCount: 2
Fore
SplineSet
180 0 m 0
 153.855528292 0 132 21.8536339246 132 48 c 2
 132 480 l 2
 132 506.144471708 153.853633925 528 180 528 c 0
 206.146366075 528 228 506.144471708 228 480 c 2
 228 48 l 2
 228 21.8536339246 206.144471708 0 180 0 c 0
180 608 m 0
 153.855528292 608 132 629.853633925 132 656 c 2
 132 704 l 2
 132 730.144471708 153.853633925 752 180 752 c 0
 206.146366075 752 228 730.144471708 228 704 c 2
 228 656 l 2
 228 629.853633925 206.144471708 608 180 608 c 0
EndSplineSet
EndChar

StartChar: j
Encoding: 106 106 74
Width: 360
VWidth: 0
Flags: HW
LayerCount: 2
Fore
SplineSet
180 528 m 0
 206.144471708 528 228 506.146366075 228 480 c 2
 228 -64 l 2
 228 -132.10554422 171.220470532 -192 80 -192 c 0
 63.5977586981 -192 52.885394095 -189.516600459 50.0516395366 -188.964381622 c 0
 26.9461566801 -183.671614615 11.9996425369 -163.736095593 11.9996425369 -141.975004692 c 0
 11.9996425369 -138.946794 12.289077351 -135.88323165 12.8862376244 -132.818856563 c 0
 17.3024249826 -110.156842488 37.7553100746 -94.0301962233 60.2464047554 -94.0301962233 c 0
 63.2253705497 -94.0301962233 66.2400931473 -94.3131098756 69.2580454065 -94.9012236492 c 0
 69.2997240846 -94.9088835143 76.5349427573 -96 80 -96 c 0
 128.779529468 -96 132 -75.8944557803 132 -64 c 2
 132 480 l 2
 132 506.146366075 153.855528292 528 180 528 c 0
180 608 m 0
 153.855528292 608 132 629.853633925 132 656 c 2
 132 704 l 2
 132 730.144471708 153.853633925 752 180 752 c 0
 206.146366075 752 228 730.144471708 228 704 c 2
 228 656 l 2
 228 629.853633925 206.144471708 608 180 608 c 0
EndSplineSet
EndChar

StartChar: k
Encoding: 107 107 75
Width: 660
VWidth: 0
Flags: HW
AnchorPoint: "above" 330 784 basechar 0
LayerCount: 2
Fore
SplineSet
551.905761311 8.24977977103 m 0
 543.82186403 2.77802616923 534.525408048 0.164364428854 525.285962494 0.164364428854 c 0
 509.779505602 0.164364428854 494.433627298 7.52614234156 485.249779771 21.0942386886 c 2
 315.96867612 271.18792951 l 1
 228 194.324933432 l 1
 228 48 l 2
 228 21.8536339246 206.144471708 0 180 0 c 0
 153.855528292 0 132 21.8536339246 132 48 c 2
 132 688 l 2
 132 714.144471708 153.853633925 736 180 736 c 0
 206.146366075 736 228 714.144471708 228 688 c 2
 228 321.807956934 l 1
 450.417291765 516.145989273 l 2
 459.377480296 523.974991212 470.646333516 527.81061971 481.888218273 527.81061971 c 0
 495.349475621 527.81061971 508.772065192 522.311039598 518.145989273 511.582708235 c 0
 525.974730564 502.622818012 529.81059739 491.353749515 529.81059739 480.11146124 c 0
 529.81059739 466.65068815 524.311466043 453.228307416 513.582708235 443.854010727 c 2
 388.811788584 334.83490153 l 1
 564.750220229 74.9057613114 l 2
 570.222137629 66.8216220371 572.835691493 57.5253165168 572.835691493 48.2861727968 c 0
 572.835691493 32.7791702785 565.473218339 17.433194562 551.905761311 8.24977977103 c 0
EndSplineSet
EndChar

StartChar: l
Encoding: 108 108 76
Width: 360
VWidth: 0
Flags: HW
AnchorPoint: "above" 180 784 basechar 0
LayerCount: 2
Fore
SplineSet
180 736 m 0
 206.144471708 736 228 714.146366075 228 688 c 2
 228 144 l 2
 228 88.7719949008 235.083820682 64.930621756 236.463759325 60.063201817 c 0
 237.505570703 56.2577747198 238.003872692 52.3648176929 238.003872692 48.4803326782 c 0
 238.003872692 28.3610378934 224.636340831 8.46901471318 204.1825467 2.1430990025 c 0
 199.514995986 0.699526616689 194.768538916 0.00552753878977 190.082328142 0.00552753878977 c 0
 170.254818539 0.00552753878977 151.505816154 12.4292458219 144.375076615 33.0673569262 c 0
 142.610157705 38.7739280676 132 74.6336196729 132 144 c 2
 132 688 l 2
 132 714.146366075 153.855528292 736 180 736 c 0
EndSplineSet
EndChar

StartChar: m
Encoding: 109 109 77
Width: 1080
VWidth: 0
Flags: HW
AnchorPoint: "above" 540 576 basechar 0
LayerCount: 2
Fore
SplineSet
180 0 m 0
 153.855528292 0 132 21.8536339246 132 48 c 2
 132 480 l 2
 132 506.144471708 153.853633925 528 180 528 c 0
 203.394518013 528 223.352354246 510.50286922 227.294248301 488.091938993 c 1
 267.224485149 514.161606473 321.200477494 536 390 536 c 0
 452.484262505 536 513.604906057 508.150588332 551.030353989 460.393271626 c 1
 591.83179921 496.545701133 657.525446033 536 750 536 c 0
 850.773429016 536 948 463.561941541 948 352 c 2
 948 48 l 2
 948 21.8536339246 926.144471708 0 900 0 c 0
 873.855528292 0 852 21.8536339246 852 48 c 2
 852 352 l 2
 852 400.438058459 809.226570984 440 750 440 c 0
 660.576472409 440 606.34325865 383.168256677 587.84014314 359.799684036 c 0
 587.946309156 357.221682716 588.000000003 354.621643932 588 352 c 2
 588 48 l 2
 588 21.8536339246 566.144471708 0 540 0 c 0
 513.855528292 0 492 21.8536339246 492 48 c 2
 492 352 l 2
 492 400.438058459 449.226570984 440 390 440 c 0
 300.832579597 440 246.654192966 383.493320465 228 360.001286717 c 1
 228 48 l 2
 228 21.8536339246 206.144471708 0 180 0 c 0
EndSplineSet
EndChar

StartChar: n
Encoding: 110 110 78
Width: 725
VWidth: 0
Flags: HW
AnchorPoint: "above" 362 576 basechar 0
LayerCount: 2
Fore
SplineSet
180 0 m 0
 153.855528292 0 132 21.8536339246 132 48 c 2
 132 480 l 2
 132 506.144471708 153.853633925 528 180 528 c 0
 204.011940954 528 224.403406102 509.567121208 227.572651289 486.307509609 c 1
 268.702607209 513.104805829 324.473146406 536 395 536 c 0
 495.773429016 536 593 463.561941541 593 352 c 2
 593 48 l 2
 593 21.8536339246 571.144471708 0 545 0 c 0
 518.855528292 0 497 21.8536339246 497 48 c 2
 497 352 l 2
 497 400.438058459 454.226570984 440 395 440 c 0
 305.756631574 440 248.168547397 383.080042995 228 359.244919594 c 1
 228 48 l 2
 228 21.8536339246 206.144471708 0 180 0 c 0
EndSplineSet
EndChar

StartChar: o
Encoding: 111 111 79
Width: 710
VWidth: 0
Flags: HW
HStem: 40 448<259.621 450.379>
VStem: 135 440<157.228 370.772>
AnchorPoint: "middle" 355 264 basechar 0
AnchorPoint: "above" 355 576 basechar 0
LayerCount: 2
Fore
SplineSet
623 264 m 0
 623 114.321398024 504.2047258 -8 355 -8 c 0
 205.795255951 -8 87 114.321405196 87 264 c 0
 87 413.678601976 205.7952742 536 355 536 c 0
 504.204744049 536 623 413.678594804 623 264 c 0
527 264 m 0
 527 362.321405196 449.795255951 440 355 440 c 0
 260.2047258 440 183 362.321398024 183 264 c 0
 183 165.678594804 260.204744049 88 355 88 c 0
 449.7952742 88 527 165.678601976 527 264 c 0
EndSplineSet
EndChar

StartChar: p
Encoding: 112 112 80
Width: 735
VWidth: 0
Flags: HW
AnchorPoint: "above" 368 576 basechar 0
LayerCount: 2
Fore
SplineSet
228 39.6450306454 m 1
 228 -144 l 2
 228 -170.144471708 206.146366075 -192 180 -192 c 0
 153.853633925 -192 132 -170.144471708 132 -144 c 2
 132 480 l 2
 132 506.146366075 153.855528292 528 180 528 c 0
 203.464217936 528 223.473796306 510.397429594 227.329838778 487.887076794 c 1
 270.63212808 518.249727831 323.267456511 536 380 536 c 0
 529.204744049 536 648 413.678594804 648 264 c 0
 648 114.321398024 529.2047258 -8 380 -8 c 0
 323.560339261 -8 271.174994065 9.56806823148 228 39.6450306454 c 1
228 181.104276239 m 1
 256.771864485 125.286358164 314.083903835 88 380 88 c 0
 474.7952742 88 552 165.678601976 552 264 c 0
 552 362.321405196 474.795255951 440 380 440 c 0
 314.085189754 440 256.771745065 402.713117109 228 346.895705383 c 1
 228 181.104276239 l 1
EndSplineSet
EndChar

StartChar: q
Encoding: 113 113 81
Width: 735
VWidth: 0
Flags: HW
AnchorPoint: "above" 368 576 basechar 0
LayerCount: 2
Fore
SplineSet
555 -192 m 0
 528.855528292 -192 507 -170.146366075 507 -144 c 2
 507 39.6450306454 l 1
 463.825005935 9.56806823148 411.439660739 -8 355 -8 c 0
 205.7952742 -8 87 114.321398024 87 264 c 0
 87 413.678594804 205.795255951 536 355 536 c 0
 415.413679782 536 471.181192421 515.871515118 515.979960594 481.81886529 c 1
 517.551134179 488.89868342 518.851830317 493.240813377 519.375076615 494.932643074 c 0
 526.505816154 515.570754178 545.254818539 527.994472461 565.082328142 527.994472461 c 0
 569.768538916 527.994472461 574.514995986 527.300473383 579.1825467 525.856900998 c 0
 599.636340831 519.530985287 613.003872692 499.638962107 613.003872692 479.519667322 c 0
 613.003872692 475.635182307 612.505570703 471.74222528 611.463759325 467.936798183 c 0
 610.083820682 463.069378244 603 439.228005099 603 384 c 2
 603 -144 l 2
 603 -170.146366075 581.144471708 -192 555 -192 c 0
507 181.104276239 m 1
 507 346.895705383 l 1
 478.228254935 402.713117109 420.914810246 440 355 440 c 0
 260.204744049 440 183 362.321405196 183 264 c 0
 183 165.678601976 260.2047258 88 355 88 c 0
 420.916096165 88 478.228135515 125.286358164 507 181.104276239 c 1
EndSplineSet
EndChar

StartChar: r
Encoding: 114 114 82
Width: 530
VWidth: 0
Flags: HW
AnchorPoint: "above" 265 576 basechar 0
LayerCount: 2
Fore
SplineSet
180 528 m 0
 206.144471708 528 228 506.146366075 228 480 c 2
 228 434.856766136 l 1
 275.387993759 488.263663936 335.602592161 528 410 528 c 0
 436.146366075 528 458 506.144471708 458 480 c 0
 458 453.855528292 436.146366075 432 410 432 c 0
 346.077226114 432 276.123792301 357.600704449 228 259.002821739 c 1
 228 48 l 2
 228 21.8555282921 206.146366075 0 180 0 c 0
 153.853633925 0 132 21.8555282921 132 48 c 2
 132 480 l 2
 132 506.146366075 153.855528292 528 180 528 c 0
EndSplineSet
EndChar

StartChar: s
Encoding: 115 115 83
Width: 620
VWidth: 0
Flags: HW
AnchorPoint: "bottom" 310 40 basechar 0
LayerCount: 2
Fore
SplineSet
508.727670883 397.846753935 m 0
 499.433356681 388.668253891 487.928131389 383.916191209 475.985976881 383.916191209 c 0
 463.443600507 383.916191209 450.419270374 389.157942937 438.968122676 400.018679322 c 1
 438.968122676 400.018679322 396.383679891 440 310 440 c 0
 223.215915335 440 193 395.593815023 193 388 c 0
 193 375.995244558 193.144989234 332.787432328 313.557754396 323.867968242 c 0
 473.238781141 311.999783822 533 241.36570173 533 160 c 0
 533 59.2353881061 437.247688416 -8 310 -8 c 0
 182.842372847 -8 103.82299666 75.2213282916 100.098723152 79.0376265807 c 0
 91.3258557617 88.6364584661 87.0801385114 100.465522443 87.0801385114 112.144038221 c 0
 87.0801385114 124.709802857 91.9954789929 137.101275232 101.4755868 146.352783288 c 0
 110.667200134 155.322753516 122.796791617 159.845898002 134.964651448 159.845898002 c 0
 147.004874396 159.845898002 159.082567058 155.417148442 168.388316813 146.485707147 c 0
 172.23272445 142.666433619 230.11627051 88 310 88 c 0
 410.752311584 88 437 132.764611894 437 160 c 0
 437 161.764067932 437.034995396 163.605471595 437.034995396 165.506237332 c 0
 437.034995396 187.993703954 432.136814852 218.789867827 306.442245604 228.132031758 c 0
 156.855010766 239.212567672 97 316.004755442 97 388 c 0
 97 486.406184977 208.784084665 536 310 536 c 0
 436.80754802 536 502.809404583 472.151567988 509.7050298 465.168933888 c 0
 518.128923195 456.061054956 522.645632981 443.865564571 522.645632981 431.599892404 c 0
 522.645632981 419.437156036 518.204415225 407.205410901 508.727670883 397.846753935 c 0
EndSplineSet
EndChar

StartChar: t
Encoding: 116 116 84
Width: 430
VWidth: 0
Flags: HW
AnchorPoint: "bottom" 215 48 basechar 0
AnchorPoint: "above" 215 736 basechar 0
LayerCount: 2
Fore
SplineSet
57 480 m 0
 57 506.144471708 78.8536339246 528 105 528 c 2
 167 528 l 1
 167 640 l 2
 167 666.146366075 188.855528292 688 215 688 c 0
 241.144471708 688 263 666.146366075 263 640 c 2
 263 528 l 1
 325 528 l 2
 351.144471708 528 373 506.146366075 373 480 c 0
 373 453.853633925 351.144471708 432 325 432 c 2
 263 432 l 1
 263 48 l 2
 263 21.8555282921 241.146366075 0 215 0 c 0
 188.853633925 0 167 21.8555282921 167 48 c 2
 167 432 l 1
 105 432 l 2
 78.8536339246 432 57 453.855528292 57 480 c 0
EndSplineSet
EndChar

StartChar: u
Encoding: 117 117 85
Width: 725
VWidth: 0
Flags: HW
AnchorPoint: "above" 362 576 basechar 0
LayerCount: 2
Fore
SplineSet
545 528 m 0
 571.144471708 528 593 506.146366075 593 480 c 2
 593 48 l 2
 593 21.8555282921 571.146366075 0 545 0 c 0
 520.988059046 0 500.596593898 18.4328787918 497.427348711 41.6924903913 c 1
 456.297392791 14.8951941709 400.526853594 -8 330 -8 c 0
 229.226570984 -8 132 64.4380584587 132 176 c 2
 132 480 l 2
 132 506.146366075 153.855528292 528 180 528 c 0
 206.144471708 528 228 506.146366075 228 480 c 2
 228 176 l 2
 228 127.561941541 270.773429016 88 330 88 c 0
 419.243368426 88 476.831452603 144.919957005 497 168.755080406 c 1
 497 480 l 2
 497 506.146366075 518.855528292 528 545 528 c 0
EndSplineSet
EndChar

StartChar: v
Encoding: 118 118 86
Width: 620
VWidth: 0
Flags: HW
AnchorPoint: "above" 310 576 basechar 0
LayerCount: 2
Fore
SplineSet
102.423097673 524.666010619 m 0
 108.031676768 526.873090355 113.853449665 527.915930007 119.609350006 527.915930007 c 0
 138.821016156 527.915930007 157.298831052 516.298205697 164.666010619 497.576902327 c 2
 310 128.257588134 l 1
 455.333989381 497.576902327 l 2
 462.700724727 516.297076852 481.178143247 527.915997802 500.390543683 527.915997802 c 0
 506.146360508 527.915997802 511.968144423 526.87316072 517.576902327 524.666010619 c 0
 536.298205697 517.298831052 547.915930007 498.821016156 547.915930007 479.609350006 c 0
 547.915930007 473.853449665 546.873090355 468.031676768 544.666010619 462.423097673 c 2
 374.666010619 30.4230976732 l 2
 367.877507392 13.1723130023 349.886952566 0 330 0 c 2
 310 0 l 1
 290 0 l 2
 271.461571053 0 252.616302357 11.9174552882 245.333989381 30.4230976732 c 2
 75.3339893813 462.423097673 l 2
 73.1268392801 468.031855577 72.0840021977 473.853639492 72.0840021977 479.609456317 c 0
 72.0840021977 498.821856753 83.7029231482 517.299275273 102.423097673 524.666010619 c 0
EndSplineSet
EndChar

StartChar: w
Encoding: 119 119 87
Width: 870
VWidth: 0
Flags: HW
AnchorPoint: "above" 435 576 basechar 0
LayerCount: 2
Fore
SplineSet
105.202114252 525.662047451 m 0
 109.968290846 527.206641717 114.83205099 527.93921137 119.637687832 527.93921137 c 0
 139.90900787 527.93921137 159.146109095 514.904209816 165.662047451 494.797885748 c 2
 272.334828853 165.636160278 l 1
 379.98113671 456.652385656 l 2
 386.903825584 475.367516957 405.350387685 488 425 488 c 2
 445 488 l 2
 464.954442134 488 483.20192741 475.081619208 490.01886329 456.652385656 c 2
 597.665171147 165.636160278 l 1
 704.337952549 494.797885748 l 2
 710.853477689 514.902934749 730.089981274 527.939270278 750.362132738 527.939270278 c 0
 755.167740059 527.939270278 760.031545506 527.206694751 764.797885748 525.662047451 c 0
 784.904209816 519.146109095 797.93921137 499.90900787 797.93921137 479.637687832 c 0
 797.93921137 474.83205099 797.206641717 469.968290846 795.662047451 465.202114252 c 2
 655.662047451 33.2021142521 l 2
 649.895941248 15.4095579695 631.33821043 0 610 0 c 2
 590 0 l 2
 570.350387685 0 551.903825584 12.6324830429 544.98113671 31.3476143441 c 2
 435 328.675928759 l 1
 325.01886329 31.3476143441 l 2
 318.20192741 12.9183807917 299.954442134 0 280 0 c 2
 260 0 l 2
 241.296443124 0 220.916294216 12.9032313941 214.337952549 33.2021142521 c 2
 74.3379525493 465.202114252 l 2
 72.7933052487 469.968454494 72.0607297217 474.832259941 72.0607297217 479.637867262 c 0
 72.0607297217 499.910018726 85.0970652507 519.146522311 105.202114252 525.662047451 c 0
EndSplineSet
EndChar

StartChar: x
Encoding: 120 120 88
Width: 620
VWidth: 0
Flags: HW
AnchorPoint: "above" 310 576 basechar 0
LayerCount: 2
Fore
SplineSet
500.216413812 517.295687905 m 0
 511.789481023 507.919360304 517.815874603 493.908170034 517.815874603 479.82988223 c 0
 517.815874603 469.196697853 514.378043771 458.525236857 507.295687905 449.783586188 c 2
 371.776578725 282.514285714 l 1
 537.295687905 78.2164138122 l 2
 544.377817279 69.4750426994 547.815840767 58.8033807519 547.815840767 48.1698206891 c 0
 547.815840767 34.0920356843 541.789965758 20.0810324209 530.216413812 10.7043120947 c 0
 521.474763143 3.62195622861 510.803302147 0.184125396595 500.17011777 0.184125396595 c 0
 486.091829966 0.184125396595 472.080639696 6.21051897665 462.704312095 17.7835861878 c 2
 310 206.264337116 l 1
 157.295687905 17.7835861878 l 2
 147.919360304 6.21051897665 133.908170034 0.184125396594 119.82988223 0.184125396594 c 0
 109.196697853 0.184125396594 98.5252368568 3.62195622861 89.7835861878 10.7043120947 c 0
 78.2100342424 20.0810324209 72.1841592335 34.0920356843 72.1841592335 48.1698206891 c 0
 72.1841592335 58.8033807519 75.6221827209 69.4750426994 82.7043120947 78.2164138122 c 2
 248.223421275 282.514285714 l 1
 112.704312095 449.783586188 l 2
 105.621956229 458.525236857 102.184125397 469.196697853 102.184125397 479.82988223 c 0
 102.184125397 493.908170034 108.210518977 507.919360304 119.783586188 517.295687905 c 0
 128.524957301 524.377817279 139.196619248 527.815840767 149.830179311 527.815840767 c 0
 163.907964316 527.815840767 177.918967579 521.789965758 187.295687905 510.216413812 c 2
 310 358.764234312 l 1
 432.704312095 510.216413812 l 2
 442.081032421 521.789965758 456.092035684 527.815840767 470.169820689 527.815840767 c 0
 480.803380752 527.815840767 491.475042699 524.377817279 500.216413812 517.295687905 c 0
EndSplineSet
EndChar

StartChar: y
Encoding: 121 121 89
Width: 620
VWidth: 0
Flags: HW
AnchorPoint: "above" 310 576 basechar 0
LayerCount: 2
Fore
SplineSet
100.450402871 523.838490532 m 0
 106.635089071 526.59652627 113.154111197 527.898357789 119.604398995 527.898357789 c 0
 138.057339401 527.898357789 155.947748545 517.243988252 163.838490532 499.549597129 c 2
 316.66324983 156.851652036 l 1
 455.540879609 498.093828066 l 2
 463.051904035 516.549488083 481.379664577 527.911382643 500.393236514 527.911382643 c 0
 506.329351317 527.911382643 512.332313109 526.80392299 518.093828066 524.459120391 c 0
 536.548386826 516.948544151 547.911451581 498.621144843 547.911451581 479.60685408 c 0
 547.911451581 473.670833795 546.803996876 467.667868439 544.459120391 461.906171934 c 2
 334.384167957 -54.277996904 l 2
 312.298868216 -107.282716281 259.93668425 -194 150 -194 c 0
 128.086607644 -194 114.785313842 -191.782203167 111.528960455 -191.25315976 c 0
 87.7409810655 -186.584879713 71.999131436 -166.336034113 71.999131436 -143.988455052 c 0
 71.999131436 -141.447037974 72.2027168609 -138.878478499 72.6212061262 -136.302604917 c 0
 76.389247569 -113.109660174 96.8488522774 -96.0335337988 120.241668645 -96.0335337988 c 0
 122.287931839 -96.0335337988 124.356639091 -96.1641952034 126.438581593 -96.4328533497 c 0
 129.508052612 -96.8915099389 136.210388241 -98 150 -98 c 0
 200.06331575 -98 227.701131784 -60.717283719 245.615832043 -17.722003096 c 2
 266.50795316 33.612923077 l 1
 76.1615094683 460.450402871 l 2
 73.4033892837 466.635278437 72.1015710526 473.154281587 72.1015710526 479.604442622 c 0
 72.1015710526 498.058062264 82.757035006 515.948204862 100.450402871 523.838490532 c 0
EndSplineSet
EndChar

StartChar: z
Encoding: 122 122 90
Width: 630
VWidth: 0
Flags: HW
AnchorPoint: "above" 315 576 basechar 0
LayerCount: 2
Fore
SplineSet
543 48 m 0
 543 21.8555282921 521.146366075 0 495 0 c 2
 135 0 l 2
 108.645152092 0 87.0033362114 22.1344177733 87.0033362114 48.0898351674 c 0
 87.0033362114 59.9976771731 92.1900304457 71.4102147483 97.7043120947 78.2164138122 c 2
 384.334532386 432 l 1
 145 432 l 2
 118.855528292 432 97 453.853633925 97 480 c 0
 97 506.146366075 118.855528292 528 145 528 c 2
 485 528 l 2
 493.139700322 528 504.164188619 525.075213312 512.197160501 519.551415407 c 0
 525.647004755 510.302755931 532.796313034 495.082284119 532.796313034 479.753924363 c 0
 532.796313034 469.17216411 529.389184715 458.538987965 522.295687905 449.783586188 c 2
 235.665467614 96 l 1
 495 96 l 2
 521.146366075 96 543 74.1444717079 543 48 c 0
EndSplineSet
EndChar

StartChar: braceleft
Encoding: 123 123 91
Width: 540
VWidth: 0
Flags: HW
LayerCount: 2
Fore
SplineSet
133.433159993 356.358289998 m 0
 132.463329865 360.237610511 132.013785419 364.14358464 132.038815991 368 c 0
 132.013785419 371.85641536 132.463329865 375.762389489 133.433159993 379.641710002 c 0
 135.601647599 388.315660425 140.127969937 395.883119652 146.160352714 401.832833993 c 0
 152.110932254 407.868514412 159.680744729 412.397455001 168.358289998 414.566840007 c 0
 245.755900207 433.916242559 265.265583124 469.245216679 265.265583124 511.786247919 c 0
 265.265583124 555.037941369 245.098624069 605.744664267 245.098624069 654.692128274 c 0
 245.098624069 717.282274886 278.074167612 776.99580941 428.358289998 814.566840007 c 0
 432.135436358 815.511126597 435.937850811 815.962173315 439.695185637 815.962173315 c 0
 461.168677804 815.962173315 481.169769779 801.229990913 486.566840007 779.641710002 c 0
 487.511162476 775.864420127 487.962217935 772.061935219 487.962217935 768.304582072 c 0
 487.962217935 746.83011572 473.228556948 726.82987173 451.641710002 721.433159993 c 0
 374.261114442 702.088011103 354.764091844 666.747510717 354.764091844 624.190386556 c 0
 354.764091844 580.959765222 374.883106418 530.282296136 374.883106418 481.360126889 c 0
 374.883106418 440.576460207 360.901153634 401.012660402 309.625309503 368 c 1
 360.901153634 334.987339598 374.883106418 295.423539793 374.883106418 254.639873111 c 0
 374.883106418 205.717703864 354.764091844 155.040234778 354.764091844 111.809613444 c 0
 354.764091844 69.2524892831 374.261114442 33.9119888968 451.641710002 14.566840007 c 0
 473.228556948 9.17012827038 487.962217935 -10.8301157199 487.962217935 -32.3045820715 c 0
 487.962217935 -36.0619352193 487.511162476 -39.8644201266 486.566840007 -43.6417100017 c 0
 481.169769779 -65.2299909126 461.168677804 -79.9621733149 439.695185637 -79.9621733149 c 0
 435.937850811 -79.9621733149 432.135436358 -79.511126597 428.358289998 -78.566840007 c 0
 278.074167612 -40.9958094104 245.098624069 18.7177251145 245.098624069 81.3078717264 c 0
 245.098624069 130.255335733 265.265583124 180.962058631 265.265583124 224.213752081 c 0
 265.265583124 266.754783321 245.755900207 302.083757441 168.358289998 321.433159993 c 0
 159.680746453 323.602545879 152.110934473 328.131485941 146.160354104 334.167164617 c 0
 140.12797168 340.116880216 135.601648805 347.684339948 133.433159993 356.358289998 c 0
EndSplineSet
EndChar

StartChar: bar
Encoding: 124 124 92
Width: 360
VWidth: 0
Flags: HW
LayerCount: 2
Fore
SplineSet
180 816 m 0
 206.144471708 816 228 794.146366075 228 768 c 2
 228 -32 l 2
 228 -58.1444717079 206.146366075 -80 180 -80 c 0
 153.853633925 -80 132 -58.1444717079 132 -32 c 2
 132 768 l 2
 132 794.146366075 153.855528292 816 180 816 c 0
EndSplineSet
EndChar

StartChar: braceright
Encoding: 125 125 93
Width: 540
VWidth: 0
Flags: HW
LayerCount: 2
Fore
SplineSet
406.566840007 379.641710002 m 0
 407.536670135 375.762389489 407.986214581 371.85641536 407.961184009 368 c 0
 407.986214581 364.14358464 407.536670135 360.237610511 406.566840007 356.358289998 c 0
 404.398352401 347.684339575 399.872030063 340.116880348 393.839647286 334.167166007 c 0
 387.889067746 328.131485588 380.319255271 323.602544999 371.641710002 321.433159993 c 0
 294.244099793 302.083757441 274.734416876 266.754783321 274.734416876 224.213752081 c 0
 274.734416876 180.962058631 294.901375931 130.255335733 294.901375931 81.3078717264 c 0
 294.901375931 18.7177251145 261.925832388 -40.9958094104 111.641710002 -78.566840007 c 0
 107.864563642 -79.511126597 104.062149189 -79.9621733149 100.304814363 -79.9621733149 c 0
 78.8313221959 -79.9621733149 58.8302302207 -65.2299909126 53.433159993 -43.6417100017 c 0
 52.4888375242 -39.8644201266 52.037782065 -36.0619352193 52.037782065 -32.3045820715 c 0
 52.037782065 -10.8301157199 66.7714430519 9.17012827038 88.3582899983 14.566840007 c 0
 165.738885558 33.9119888968 185.235908156 69.2524892831 185.235908156 111.809613444 c 0
 185.235908156 155.040234778 165.116893582 205.717703864 165.116893582 254.639873111 c 0
 165.116893582 295.423539793 179.098846366 334.987339598 230.374690497 368 c 1
 179.098846366 401.012660402 165.116893582 440.576460207 165.116893582 481.360126889 c 0
 165.116893582 530.282296136 185.235908156 580.959765222 185.235908156 624.190386556 c 0
 185.235908156 666.747510717 165.738885558 702.088011103 88.3582899983 721.433159993 c 0
 66.7714430519 726.82987173 52.037782065 746.83011572 52.037782065 768.304582072 c 0
 52.037782065 772.061935219 52.4888375242 775.864420127 53.433159993 779.641710002 c 0
 58.8302302207 801.229990913 78.8313221959 815.962173315 100.304814363 815.962173315 c 0
 104.062149189 815.962173315 107.864563642 815.511126597 111.641710002 814.566840007 c 0
 261.925832388 776.99580941 294.901375931 717.282274886 294.901375931 654.692128274 c 0
 294.901375931 605.744664267 274.734416876 555.037941369 274.734416876 511.786247919 c 0
 274.734416876 469.245216679 294.244099793 433.916242559 371.641710002 414.566840007 c 0
 380.319253547 412.397454121 387.889065527 407.868514059 393.839645896 401.832835383 c 0
 399.87202832 395.883119784 404.398351195 388.315660052 406.566840007 379.641710002 c 0
EndSplineSet
EndChar

StartChar: asciitilde
Encoding: 126 126 94
Width: 810
VWidth: 0
Flags: HW
LayerCount: 2
Fore
SplineSet
109.834068731 172.441588458 m 0
 92.4687339355 180.481095308 82.1071428225 198.179558359 82.1071428225 216.394310709 c 0
 82.1071428225 223.065310841 83.496973223 229.805562361 86.4415884582 236.165931269 c 0
 127.35876474 324.547032037 189.463254223 351.161694331 257.471429824 351.161694331 c 0
 360.454255933 351.161694331 476.974337417 290.133808881 553.963093154 290.133808881 c 0
 586.541599873 290.133808881 612.041478004 301.061692688 626.441588458 332.165931269 c 0
 634.481095308 349.531266064 652.179558359 359.892857177 670.394310709 359.892857177 c 0
 677.065310841 359.892857177 683.805562361 358.503026777 690.165931269 355.558411542 c 0
 707.532256253 347.518446271 717.89278555 329.819754763 717.89278555 311.605666529 c 0
 717.89278555 304.934525507 716.502937527 298.194244858 713.558411542 291.834068731 c 0
 672.641023154 203.452509813 610.53693854 176.837623206 542.529296658 176.837623206 c 0
 439.546438693 176.837623206 323.026399959 237.867018665 246.037365334 237.867018665 c 0
 213.458814775 237.867018665 187.958802977 226.93891423 173.558411542 195.834068731 c 0
 165.518446271 178.467743747 147.819754763 168.10721445 129.605666529 168.10721445 c 0
 122.934525507 168.10721445 116.194244858 169.497062473 109.834068731 172.441588458 c 0
EndSplineSet
EndChar

StartChar: tildecomb
Encoding: 771 771 95
Width: 0
VWidth: 0
Flags: HW
AnchorPoint: "above" 0 728 mark 0
LayerCount: 2
Fore
SplineSet
-194.507242707 778.244782713 m 0
 -215.464818534 784.889634537 -227.762258464 804.746552625 -227.762258464 824.814309861 c 0
 -227.762258464 829.163395634 -227.184677357 833.522384013 -225.992491684 837.758937857 c 0
 -223.521880179 845.5511399 -191.359371719 936 -80 936 c 0
 38.1901124936 936 38.202104406 872 80 872 c 0
 123.276409436 872 133.062797804 899.640559794 134.423696474 903.090526293 c 0
 141.738101085 923.783814829 160.355360395 936.0057351 180.026882237 936.0057351 c 0
 184.840596998 936.0057351 189.717441434 935.273881469 194.507242707 933.755217287 c 0
 214.566987304 927.395033668 227.897060852 908.777577123 227.897060852 887.892852765 c 0
 227.897060852 883.413693907 227.283909089 878.830246107 225.992491684 874.241062143 c 0
 223.983111682 867.903564353 192.193704123 776 80 776 c 0
 -38.202104406 776 -38.1901124936 840 -80 840 c 0
 -122.975645336 840 -132.852327688 812.892995615 -134.423696474 808.909473707 c 0
 -141.222737925 789.674206589 -159.916683579 776.049720106 -180.408099124 776.049720106 c 0
 -185.054634424 776.049720106 -189.7935919 776.750262954 -194.507242707 778.244782713 c 0
EndSplineSet
EndChar

StartChar: dotlessi
Encoding: 305 305 96
Width: 360
VWidth: 0
Flags: HW
AnchorPoint: "above" 180 576 basechar 0
LayerCount: 2
Fore
SplineSet
180 0 m 0
 153.855528292 0 132 21.8536339246 132 48 c 2
 132 480 l 2
 132 506.144471708 153.853633925 528 180 528 c 0
 206.146366075 528 228 506.144471708 228 480 c 2
 228 48 l 2
 228 21.8536339246 206.144471708 0 180 0 c 0
EndSplineSet
EndChar

StartChar: uni0237
Encoding: 567 567 97
Width: 360
VWidth: 0
Flags: HW
AnchorPoint: "above" 180 576 basechar 0
LayerCount: 2
Fore
SplineSet
180 528 m 0
 206.144471708 528 228 506.146366075 228 480 c 2
 228 -64 l 2
 228 -132.10554422 171.220470532 -192 80 -192 c 0
 63.5977586981 -192 52.885394095 -189.516600459 50.0516395366 -188.964381622 c 0
 26.9461566801 -183.671614615 11.9996425369 -163.736095593 11.9996425369 -141.975004692 c 0
 11.9996425369 -138.946794 12.289077351 -135.88323165 12.8862376244 -132.818856563 c 0
 17.3024249826 -110.156842488 37.7553100746 -94.0301962233 60.2464047554 -94.0301962233 c 0
 63.2253705497 -94.0301962233 66.2400931473 -94.3131098756 69.2580454065 -94.9012236492 c 0
 69.2997240846 -94.9088835143 76.5349427573 -96 80 -96 c 0
 128.779529468 -96 132 -75.8944557803 132 -64 c 2
 132 480 l 2
 132 506.146366075 153.855528292 528 180 528 c 0
EndSplineSet
EndChar

StartChar: gravecomb
Encoding: 768 768 98
Width: 0
VWidth: 0
Flags: HW
AnchorPoint: "above" 0 720 mark 0
LayerCount: 2
Fore
SplineSet
-164.566881162 929.826752465 m 0
 -157.130040751 948.418853494 -138.724788447 959.91380685 -119.608087356 959.91380685 c 0
 -113.765318688 959.91380685 -107.856090818 958.840018476 -102.173247535 956.566881162 c 2
 137.826752465 860.566881162 l 2
 156.418853494 853.130040751 167.91380685 834.724788447 167.91380685 815.608087356 c 0
 167.91380685 809.765318688 166.840018476 803.856090818 164.566881162 798.173247535 c 0
 157.129594543 779.580030985 138.723962945 768.08626152 119.607988572 768.08626152 c 0
 113.765131102 768.08626152 107.855910685 769.160053578 102.173247535 771.433118838 c 2
 -137.826752465 867.433118838 l 2
 -156.419969015 874.870405457 -167.91373848 893.276037055 -167.91373848 912.392011428 c 0
 -167.91373848 918.234868898 -166.839946422 924.144089315 -164.566881162 929.826752465 c 0
EndSplineSet
EndChar

StartChar: acutecomb
Encoding: 769 769 99
Width: 0
VWidth: 0
Flags: H
AnchorPoint: "above" 0 720 mark 0
LayerCount: 2
Fore
SplineSet
-164.566881162 798.173247535 m 0
 -166.839946422 803.855910685 -167.91373848 809.765131102 -167.91373848 815.607988572 c 0
 -167.91373848 834.723962945 -156.419969015 853.129594543 -137.826752465 860.566881162 c 2
 102.173247535 956.566881162 l 2
 107.855910685 958.839946422 113.765131102 959.91373848 119.607988572 959.91373848 c 0
 138.723962945 959.91373848 157.129594543 948.419969015 164.566881162 929.826752465 c 0
 166.840018476 924.143909182 167.91380685 918.234681312 167.91380685 912.391912644 c 0
 167.91380685 893.275211553 156.418853494 874.869959249 137.826752465 867.433118838 c 2
 -102.173247535 771.433118838 l 2
 -107.856090818 769.159981524 -113.765318688 768.08619315 -119.608087356 768.08619315 c 0
 -138.724788447 768.08619315 -157.130040751 779.581146506 -164.566881162 798.173247535 c 0
EndSplineSet
EndChar

StartChar: uni0302
Encoding: 770 770 100
Width: 0
VWidth: 0
Flags: H
AnchorPoint: "above" 0 736 mark 0
LayerCount: 2
Fore
SplineSet
-181.675670822 808.185330959 m 0
 -185.872475433 815.529739027 -187.860266142 823.619334145 -187.860266142 831.642447326 c 0
 -187.860266142 848.416802921 -179.17113185 864.900549217 -163.814669041 873.675670822 c 2
 -23.8146690411 953.675670822 l 2
 -16.5759976655 957.812054465 -8.2812095503 959.603052696 -0.251626713867 959.603052696 c 0
 8.71433347469 959.603052696 17.3496274584 957.369980298 23.8146690411 953.675670822 c 2
 163.814669041 873.675670822 l 2
 179.170335479 864.901004286 187.860334189 848.417288018 187.860334189 831.642341111 c 0
 187.860334189 823.619455815 185.872598801 815.529954922 181.675670822 808.185330959 c 0
 172.900549217 792.82886815 156.416802921 784.139733858 139.642447326 784.139733858 c 0
 131.619334145 784.139733858 123.529739027 786.127524567 116.185330959 790.324329178 c 2
 -7.11187061623e-15 856.715946869 l 1
 -116.185330959 790.324329178 l 2
 -123.529954922 786.127401199 -131.619455815 784.139665811 -139.642341111 784.139665811 c 0
 -156.417288018 784.139665811 -172.901004286 792.829664521 -181.675670822 808.185330959 c 0
EndSplineSet
EndChar

StartChar: uni0308
Encoding: 776 776 101
Width: 0
VWidth: 0
Flags: H
AnchorPoint: "above" 0 720 mark 0
LayerCount: 2
Fore
SplineSet
-120 768 m 0
 -146.144471708 768 -168 789.853633925 -168 816 c 2
 -168 864 l 2
 -168 890.144471708 -146.146366075 912 -120 912 c 0
 -93.8536339246 912 -72 890.144471708 -72 864 c 2
 -72 816 l 2
 -72 789.853633925 -93.8555282921 768 -120 768 c 0
120 768 m 0
 93.8555282921 768 72 789.853633925 72 816 c 2
 72 864 l 2
 72 890.144471708 93.8536339246 912 120 912 c 0
 146.146366075 912 168 890.144471708 168 864 c 2
 168 816 l 2
 168 789.853633925 146.144471708 768 120 768 c 0
EndSplineSet
EndChar

StartChar: uni030A
Encoding: 778 778 102
Width: 0
VWidth: 0
Flags: H
HStem: 816 160<-68.9831 68.9831>
VStem: -100 200<840.814 951.186>
AnchorPoint: "above" 0 720 mark 0
LayerCount: 2
Fore
SplineSet
148 896 m 0
 148 816.369554922 72.4094061382 768 0 768 c 0
 -72.4113233581 768 -148 816.370569238 -148 896 c 0
 -148 975.630445078 -72.4094061382 1024 0 1024 c 0
 72.4113233581 1024 148 975.629430762 148 896 c 0
52 896 m 0
 52 904.370569238 37.5886766419 928 0 928 c 0
 -37.5905938618 928 -52 904.369554922 -52 896 c 0
 -52 887.629430762 -37.5886766419 864 0 864 c 0
 37.5905938618 864 52 887.630445078 52 896 c 0
EndSplineSet
EndChar

StartChar: uni0327
Encoding: 807 807 103
Width: 0
VWidth: 0
Flags: H
AnchorPoint: "bottom" 0 40 mark 0
LayerCount: 2
Fore
SplineSet
-128 -200 m 0
 -128 -173.855528292 -106.146366075 -152 -80 -152 c 0
 -16.9673706222 -152 22.4044063089 -142.044610706 31.2854367366 -136 c 1
 21.8088014842 -129.550008485 -17.4763288122 -120 -80 -120 c 0
 -106.354847908 -120 -127.996663789 -97.8655822267 -127.996663789 -71.9101648326 c 0
 -127.996663789 -61.0099748482 -124.394039754 -51.5693330926 -119.059206618 -44.1005667015 c 2
 -39.0592066179 67.8994332985 l 2
 -29.789879741 80.8764909262 -14.8315034786 87.8288564729 0.255429087455 87.8288564729 c 0
 9.90206427387 87.8288564729 19.6012579876 84.9864746971 27.8994332985 79.0592066179 c 0
 40.877082093 69.789457479 47.8288062347 54.8312108283 47.8288062347 39.7448108638 c 0
 47.8288062347 30.0978508734 44.986294606 20.3984898848 39.0592066179 12.1005667015 c 2
 9.13243442835 -29.7969143639 l 1
 61.648591909 -38.3255272127 128 -64.6856997405 128 -136 c 0
 128 -239.789938662 7.53065223643 -248 -80 -248 c 0
 -106.146366075 -248 -128 -226.144471708 -128 -200 c 0
EndSplineSet
EndChar

StartChar: dieresis
Encoding: 168 168 104
Width: 600
VWidth: 0
Flags: HW
AnchorPoint: "above" 300 544 mark 0
LayerCount: 2
Fore
SplineSet
180 592 m 0
 153.855528292 592 132 613.853633925 132 640 c 2
 132 688 l 2
 132 714.144471708 153.853633925 736 180 736 c 0
 206.146366075 736 228 714.144471708 228 688 c 2
 228 640 l 2
 228 613.853633925 206.144471708 592 180 592 c 0
420 592 m 0
 393.855528292 592 372 613.853633925 372 640 c 2
 372 688 l 2
 372 714.144471708 393.853633925 736 420 736 c 0
 446.146366075 736 468 714.144471708 468 688 c 2
 468 640 l 2
 468 613.853633925 446.144471708 592 420 592 c 0
EndSplineSet
EndChar

StartChar: cedilla
Encoding: 184 184 106
Width: 400
VWidth: 0
Flags: HW
AnchorPoint: "bottom" 200 40 mark 0
LayerCount: 2
Fore
SplineSet
72 -200 m 0
 72 -173.855528292 93.8536339246 -152 120 -152 c 0
 183.032629378 -152 222.404406309 -142.044610706 231.285436737 -136 c 1
 221.808801484 -129.550008485 182.523671188 -120 120 -120 c 0
 93.6451520917 -120 72.0033362114 -97.8655822267 72.0033362114 -71.9101648326 c 0
 72.0033362114 -61.0099748482 75.6059602456 -51.5693330926 80.9407933821 -44.1005667015 c 2
 160.940793382 67.8994332985 l 2
 170.210120259 80.8764909262 185.168496521 87.8288564729 200.255429087 87.8288564729 c 0
 209.902064274 87.8288564729 219.601257988 84.9864746971 227.899433299 79.0592066179 c 0
 240.877082093 69.789457479 247.828806235 54.8312108283 247.828806235 39.7448108638 c 0
 247.828806235 30.0978508734 244.986294606 20.3984898848 239.059206618 12.1005667015 c 2
 209.132434428 -29.7969143639 l 1
 261.648591909 -38.3255272127 328 -64.6856997405 328 -136 c 0
 328 -239.789938662 207.530652236 -248 120 -248 c 0
 93.8536339246 -248 72 -226.144471708 72 -200 c 0
EndSplineSet
EndChar

StartChar: minus
Encoding: 8722 8722 161
Width: 800
VWidth: 0
Flags: HW
LayerCount: 2
Fore
SplineSet
82 368 m 0
 82 394.144471708 103.853633925 416 130 416 c 2
 670 416 l 2
 696.144471708 416 718 394.146366075 718 368 c 0
 718 341.853633925 696.144471708 320 670 320 c 2
 130 320 l 2
 103.853633925 320 82 341.855528292 82 368 c 0
EndSplineSet
EndChar

StartChar: degree
Encoding: 176 176 164
Width: 600
VWidth: 32
Flags: HW
HStem: 432 256<210.562 389.438>
VStem: 140 320<488.45 631.55>
AnchorPoint: "above" 300 336 mark 0
LayerCount: 2
Fore
SplineSet
508 560 m 0
 508 453.346899807 405.209166122 384 300 384 c 0
 194.787959814 384 92 453.344452017 92 560 c 0
 92 666.653100193 194.790833878 736 300 736 c 0
 405.212040186 736 508 666.655547983 508 560 c 0
412 560 m 0
 412 595.344452017 370.787959814 640 300 640 c 0
 229.209166122 640 188 595.346899807 188 560 c 0
 188 524.655547983 229.212040186 480 300 480 c 0
 370.790833878 480 412 524.653100193 412 560 c 0
EndSplineSet
EndChar

StartChar: uni00B2
Encoding: 178 178 165
Width: 660
VWidth: 516
Flags: HW
LayerCount: 2
Fore
SplineSet
135 846 m 0
 108.855528292 846 87 867.853633925 87 894 c 0
 87 1017.05499358 210.592120051 1062 317 1062 c 0
 433.127427087 1062 547 1000.10200952 547 888 c 0
 547 813.140232637 492.858489437 774.287019844 410.747681432 734.715546106 c 0
 259.297192309 662.512405943 209.092486233 637.071180995 194.733577109 576 c 1
 525 576 l 2
 551.144471708 576 573 554.146366075 573 528 c 0
 573 501.853633925 551.144471708 480 525 480 c 2
 142 480 l 2
 121.398583681 480 94 498.945527317 94 528 c 0
 94 696.555018148 204.324723801 742.65618197 369.252318568 821.284453894 c 0
 453.141510563 861.712980156 451 870.859767363 451 888 c 0
 451 919.897990482 410.872572913 966 317 966 c 0
 221.407879949 966 183 930.945006421 183 894 c 0
 183 867.853633925 161.144471708 846 135 846 c 0
EndSplineSet
EndChar

StartChar: uni00B3
Encoding: 179 179 166
Width: 660
VWidth: 516
Flags: HW
LayerCount: 2
Fore
SplineSet
115.559574 647.061251515 m 0
 123.538927675 652.32762494 132.649360017 654.839047401 141.700899571 654.839047401 c 0
 157.401792483 654.839047401 172.925484501 647.282497233 182.061251515 633.440426 c 0
 203.621541438 600.773320056 258.592382771 570 328 570 c 0
 428.97274698 570 488 628.805857943 488 672 c 0
 488 721.583546512 444.730434981 777 338 777 c 0
 316.955395112 777 281.24343889 769.238705472 258.116120744 762.122607581 c 0
 253.561079553 760.721056446 248.928697104 760.055467388 244.351952098 760.055467388 c 0
 236.586220205 760.055467388 228.980672085 761.97174103 222.184927333 765.46050624 c 0
 211.380921428 770.994950358 202.608203756 780.507313373 198.508443318 792.686010622 c 0
 198.441721204 792.884214549 198.376411899 793.08260451 198.31251043 793.281169335 c 0
 198.247939769 793.481383262 198.184634752 793.682288529 198.122607581 793.883879256 c 0
 196.721007317 798.439080114 196.055411259 803.071514637 196.055411259 807.648241822 c 0
 196.055411259 815.414102361 197.971783472 823.01957133 201.460553113 829.815173429 c 0
 206.994781764 840.618880187 216.506804082 849.391624747 228.686010622 853.491556682 c 0
 319.279876192 883.988501527 366.380217749 926.676759643 392.111055126 960 c 1
 124 960 l 2
 97.8555282921 960 76 981.853633925 76 1008 c 0
 76 1034.14636608 97.8555282921 1056 124 1056 c 2
 469 1056 l 2
 491.834979288 1056 516.987196697 1035.32501864 516.987196697 1007.76250007 c 0
 516.987196697 1005.12103586 516.756188209 1002.41631364 516.269992834 999.660468989 c 0
 515.013206358 992.536772507 500.49178283 926.095298469 429.732445735 859.952377887 c 1
 522.298756614 831.958326383 584 761.356236539 584 672 c 1
 584 549.194142057 455.02725302 474 328 474 c 0
 233.407617229 474 146.378458562 513.226679944 101.938748485 580.559574 c 0
 96.6722182687 588.539165237 94.1608943101 597.649455302 94.1608943101 606.700703959 c 0
 94.1608943101 622.402148786 101.718165079 637.925921627 115.559574 647.061251515 c 0
EndSplineSet
EndChar

StartChar: uni00B9
Encoding: 185 185 167
Width: 360
VWidth: 492
Flags: HW
LayerCount: 2
Fore
SplineSet
180 1056 m 0
 206.144471708 1056 228 1034.14636608 228 1008 c 2
 228 528 l 2
 228 501.855528292 206.146366075 480 180 480 c 0
 153.853633925 480 132 501.855528292 132 528 c 2
 132 1008 l 2
 132 1034.14636608 153.855528292 1056 180 1056 c 0
EndSplineSet
EndChar

StartChar: minute
Encoding: 8242 8242 168
Width: 320
VWidth: 0
Flags: HW
LayerCount: 2
Fore
SplineSet
189.064674895 735.136309455 m 0
 211.786711786 730.766686976 227.977319891 710.222384471 227.977319891 687.757223574 c 0
 227.977319891 684.838593525 227.70404345 681.88754188 227.136309455 678.935325105 c 2
 187.136309455 470.935325105 l 2
 182.766686976 448.213288214 162.222384471 432.022680109 139.757223574 432.022680109 c 0
 136.838593525 432.022680109 133.88754188 432.29595655 130.935325105 432.863690545 c 0
 108.211732891 437.233612125 92.0227114654 457.778980754 92.0227114654 480.243021523 c 0
 92.0227114654 483.161607766 92.2959801728 486.11258096 92.8636905449 489.064674895 c 2
 132.863690545 697.064674895 l 2
 137.233612125 719.788267109 157.778980754 735.977288535 180.243021523 735.977288535 c 0
 183.161607766 735.977288535 186.11258096 735.704019827 189.064674895 735.136309455 c 0
EndSplineSet
EndChar

StartChar: second
Encoding: 8243 8243 169
Width: 520
VWidth: 0
Flags: HW
LayerCount: 2
Fore
SplineSet
389.064674895 735.136309455 m 0
 411.786711786 730.766686976 427.977319891 710.222384471 427.977319891 687.757223574 c 0
 427.977319891 684.838593525 427.70404345 681.88754188 427.136309455 678.935325105 c 2
 387.136309455 470.935325105 l 2
 382.766686976 448.213288214 362.222384471 432.022680109 339.757223574 432.022680109 c 0
 336.838593525 432.022680109 333.88754188 432.29595655 330.935325105 432.863690545 c 0
 308.211732891 437.233612125 292.022711465 457.778980754 292.022711465 480.243021523 c 0
 292.022711465 483.161607766 292.295980173 486.11258096 292.863690545 489.064674895 c 2
 332.863690545 697.064674895 l 2
 337.233612125 719.788267109 357.778980754 735.977288535 380.243021523 735.977288535 c 0
 383.161607766 735.977288535 386.11258096 735.704019827 389.064674895 735.136309455 c 0
189.064674895 735.136309455 m 0
 211.786711786 730.766686976 227.977319891 710.222384471 227.977319891 687.757223574 c 0
 227.977319891 684.838593525 227.70404345 681.88754188 227.136309455 678.935325105 c 2
 187.136309455 470.935325105 l 2
 182.766686976 448.213288214 162.222384471 432.022680109 139.757223574 432.022680109 c 0
 136.838593525 432.022680109 133.88754188 432.29595655 130.935325105 432.863690545 c 0
 108.211732891 437.233612125 92.0227114654 457.778980754 92.0227114654 480.243021523 c 0
 92.0227114654 483.161607766 92.2959801728 486.11258096 92.8636905449 489.064674895 c 2
 132.863690545 697.064674895 l 2
 137.233612125 719.788267109 157.778980754 735.977288535 180.243021523 735.977288535 c 0
 183.161607766 735.977288535 186.11258096 735.704019827 189.064674895 735.136309455 c 0
EndSplineSet
EndChar

StartChar: uni2034
Encoding: 8244 8244 170
Width: 720
VWidth: 0
Flags: HW
LayerCount: 2
Fore
SplineSet
589.064674895 735.136309455 m 0
 611.786711786 730.766686976 627.977319891 710.222384471 627.977319891 687.757223574 c 0
 627.977319891 684.838593525 627.70404345 681.88754188 627.136309455 678.935325105 c 2
 587.136309455 470.935325105 l 2
 582.766686976 448.213288214 562.222384471 432.022680109 539.757223574 432.022680109 c 0
 536.838593525 432.022680109 533.88754188 432.29595655 530.935325105 432.863690545 c 0
 508.211732891 437.233612125 492.022711465 457.778980754 492.022711465 480.243021523 c 0
 492.022711465 483.161607766 492.295980173 486.11258096 492.863690545 489.064674895 c 2
 532.863690545 697.064674895 l 2
 537.233612125 719.788267109 557.778980754 735.977288535 580.243021523 735.977288535 c 0
 583.161607766 735.977288535 586.11258096 735.704019827 589.064674895 735.136309455 c 0
389.064674895 735.136309455 m 0
 411.786711786 730.766686976 427.977319891 710.222384471 427.977319891 687.757223574 c 0
 427.977319891 684.838593525 427.70404345 681.88754188 427.136309455 678.935325105 c 2
 387.136309455 470.935325105 l 2
 382.766686976 448.213288214 362.222384471 432.022680109 339.757223574 432.022680109 c 0
 336.838593525 432.022680109 333.88754188 432.29595655 330.935325105 432.863690545 c 0
 308.211732891 437.233612125 292.022711465 457.778980754 292.022711465 480.243021523 c 0
 292.022711465 483.161607766 292.295980173 486.11258096 292.863690545 489.064674895 c 2
 332.863690545 697.064674895 l 2
 337.233612125 719.788267109 357.778980754 735.977288535 380.243021523 735.977288535 c 0
 383.161607766 735.977288535 386.11258096 735.704019827 389.064674895 735.136309455 c 0
189.064674895 735.136309455 m 0
 211.786711786 730.766686976 227.977319891 710.222384471 227.977319891 687.757223574 c 0
 227.977319891 684.838593525 227.70404345 681.88754188 227.136309455 678.935325105 c 2
 187.136309455 470.935325105 l 2
 182.766686976 448.213288214 162.222384471 432.022680109 139.757223574 432.022680109 c 0
 136.838593525 432.022680109 133.88754188 432.29595655 130.935325105 432.863690545 c 0
 108.211732891 437.233612125 92.0227114654 457.778980754 92.0227114654 480.243021523 c 0
 92.0227114654 483.161607766 92.2959801728 486.11258096 92.8636905449 489.064674895 c 2
 132.863690545 697.064674895 l 2
 137.233612125 719.788267109 157.778980754 735.977288535 180.243021523 735.977288535 c 0
 183.161607766 735.977288535 186.11258096 735.704019827 189.064674895 735.136309455 c 0
EndSplineSet
EndChar

StartChar: uni00AD
Encoding: 173 173 171
Width: 520
VWidth: 32
Flags: HW
LayerCount: 2
Fore
SplineSet
52 264 m 0
 52 290.144471708 73.8536339246 312 100 312 c 2
 420 312 l 2
 446.144471708 312 468 290.146366075 468 264 c 0
 468 237.853633925 446.144471708 216 420 216 c 2
 100 216 l 2
 73.8536339246 216 52 237.855528292 52 264 c 0
EndSplineSet
EndChar

StartChar: endash
Encoding: 8211 8211 173
Width: 640
VWidth: 0
Flags: HW
LayerCount: 2
Fore
SplineSet
12 264 m 0
 12 290.144471708 33.8536339246 312 60 312 c 2
 580 312 l 2
 606.144471708 312 628 290.146366075 628 264 c 0
 628 237.853633925 606.144471708 216 580 216 c 2
 60 216 l 2
 33.8536339246 216 12 237.855528292 12 264 c 0
EndSplineSet
EndChar

StartChar: emdash
Encoding: 8212 8212 174
Width: 1280
VWidth: 0
Flags: H
LayerCount: 2
Fore
SplineSet
12 264 m 0
 12 290.144471708 33.8536339246 312 60 312 c 2
 1220 312 l 2
 1246.14447171 312 1268 290.146366075 1268 264 c 0
 1268 237.853633925 1246.14447171 216 1220 216 c 2
 60 216 l 2
 33.8536339246 216 12 237.855528292 12 264 c 0
EndSplineSet
EndChar

StartChar: figuredash
Encoding: 8210 8210 190
Width: 840
VWidth: 0
Flags: HW
LayerCount: 2
Fore
SplineSet
12 368 m 0
 12 394.144471708 33.8536339246 416 60 416 c 2
 780 416 l 2
 806.144471708 416 828 394.146366075 828 368 c 0
 828 341.853633925 806.144471708 320 780 320 c 2
 60 320 l 2
 33.8536339246 320 12 341.855528292 12 368 c 0
EndSplineSet
EndChar

StartChar: uni2057
Encoding: 8279 8279 191
Width: 920
VWidth: 0
Flags: HW
LayerCount: 2
Fore
SplineSet
789.064674895 735.136309455 m 0
 811.786711786 730.766686976 827.977319891 710.222384471 827.977319891 687.757223574 c 0
 827.977319891 684.838593525 827.70404345 681.88754188 827.136309455 678.935325105 c 2
 787.136309455 470.935325105 l 2
 782.766686976 448.213288214 762.222384471 432.022680109 739.757223574 432.022680109 c 0
 736.838593525 432.022680109 733.88754188 432.29595655 730.935325105 432.863690545 c 0
 708.211732891 437.233612125 692.022711465 457.778980754 692.022711465 480.243021523 c 0
 692.022711465 483.161607766 692.295980173 486.11258096 692.863690545 489.064674895 c 2
 732.863690545 697.064674895 l 2
 737.233612125 719.788267109 757.778980754 735.977288535 780.243021523 735.977288535 c 0
 783.161607766 735.977288535 786.11258096 735.704019827 789.064674895 735.136309455 c 0
589.064674895 735.136309455 m 0
 611.786711786 730.766686976 627.977319891 710.222384471 627.977319891 687.757223574 c 0
 627.977319891 684.838593525 627.70404345 681.88754188 627.136309455 678.935325105 c 2
 587.136309455 470.935325105 l 2
 582.766686976 448.213288214 562.222384471 432.022680109 539.757223574 432.022680109 c 0
 536.838593525 432.022680109 533.88754188 432.29595655 530.935325105 432.863690545 c 0
 508.211732891 437.233612125 492.022711465 457.778980754 492.022711465 480.243021523 c 0
 492.022711465 483.161607766 492.295980173 486.11258096 492.863690545 489.064674895 c 2
 532.863690545 697.064674895 l 2
 537.233612125 719.788267109 557.778980754 735.977288535 580.243021523 735.977288535 c 0
 583.161607766 735.977288535 586.11258096 735.704019827 589.064674895 735.136309455 c 0
389.064674895 735.136309455 m 0
 411.786711786 730.766686976 427.977319891 710.222384471 427.977319891 687.757223574 c 0
 427.977319891 684.838593525 427.70404345 681.88754188 427.136309455 678.935325105 c 2
 387.136309455 470.935325105 l 2
 382.766686976 448.213288214 362.222384471 432.022680109 339.757223574 432.022680109 c 0
 336.838593525 432.022680109 333.88754188 432.29595655 330.935325105 432.863690545 c 0
 308.211732891 437.233612125 292.022711465 457.778980754 292.022711465 480.243021523 c 0
 292.022711465 483.161607766 292.295980173 486.11258096 292.863690545 489.064674895 c 2
 332.863690545 697.064674895 l 2
 337.233612125 719.788267109 357.778980754 735.977288535 380.243021523 735.977288535 c 0
 383.161607766 735.977288535 386.11258096 735.704019827 389.064674895 735.136309455 c 0
189.064674895 735.136309455 m 0
 211.786711786 730.766686976 227.977319891 710.222384471 227.977319891 687.757223574 c 0
 227.977319891 684.838593525 227.70404345 681.88754188 227.136309455 678.935325105 c 2
 187.136309455 470.935325105 l 2
 182.766686976 448.213288214 162.222384471 432.022680109 139.757223574 432.022680109 c 0
 136.838593525 432.022680109 133.88754188 432.29595655 130.935325105 432.863690545 c 0
 108.211732891 437.233612125 92.0227114654 457.778980754 92.0227114654 480.243021523 c 0
 92.0227114654 483.161607766 92.2959801728 486.11258096 92.8636905449 489.064674895 c 2
 132.863690545 697.064674895 l 2
 137.233612125 719.788267109 157.778980754 735.977288535 180.243021523 735.977288535 c 0
 183.161607766 735.977288535 186.11258096 735.704019827 189.064674895 735.136309455 c 0
EndSplineSet
EndChar

StartChar: copyright
Encoding: 169 169 192
Width: 920
VWidth: 0
Flags: HW
HStem: 48 640<313.377 606.622>
VStem: 60 800<250.702 485.298>
LayerCount: 2
Fore
SplineSet
908 368 m 0
 908 155.464910926 698.304185685 0 460 0 c 0
 221.696010149 0 12 155.465074863 12 368 c 0
 12 580.535089074 221.695814315 736 460 736 c 0
 698.303989851 736 908 580.534925137 908 368 c 0
812 368 m 0
 812 509.465074863 663.696010149 640 460 640 c 0
 256.304185685 640 108 509.464910926 108 368 c 0
 108 226.534925137 256.303989851 96 460 96 c 0
 663.695814315 96 812 226.535089074 812 368 c 0
582 332 m 0
 608.144471708 332 630 310.146366075 630 284 c 0
 630 235.710821342 569.068711484 156 460 156 c 0
 346.328085703 156 257 252.628712777 257 368 c 0
 257 483.101605217 345.27990707 580 460 580 c 0
 572.091601186 580 612.46820716 498.960311111 616.015434963 491.164004935 c 0
 618.651897809 484.827185773 619.891279993 478.333934043 619.891279993 471.999450001 c 0
 619.891279993 453.418159789 609.226927573 436.202997467 591.878573675 428.309700062 c 0
 585.506483207 425.410473689 578.780250325 424.014308436 572.124926547 424.014308436 c 0
 554.483243746 424.014308436 537.339806741 433.824522107 528.611495034 451.453939738 c 0
 527.276254119 453.901368837 512.036804905 484 460 484 c 0
 402.72009293 484 353 434.898394783 353 368 c 0
 353 301.371287223 403.671914297 252 460 252 c 0
 505.276144389 252 528.447006339 280.779312608 534.897656419 293.240410925 c 0
 538.912350306 313.423640052 558.352090159 332 582 332 c 0
EndSplineSet
EndChar

StartChar: registered
Encoding: 174 174 193
Width: 920
VWidth: 0
Flags: HW
HStem: 48 640<313.377 606.622>
VStem: 60 800<250.702 485.298>
LayerCount: 2
Fore
SplineSet
378 424 m 1
 495 424 l 2
 550.733308777 424 557 437.957279348 557 452 c 0
 557 466.034223439 550.729272519 480 495 480 c 2
 378 480 l 1
 378 424 l 1
378 328 m 1
 378 208 l 2
 378 181.853633925 356.144471708 160 330 160 c 0
 303.855528292 160 282 181.853633925 282 208 c 2
 282 376 l 1
 282 528 l 2
 282 557.054472683 309.398583681 576 330 576 c 2
 495 576 l 2
 559.270727481 576 653 549.965776561 653 452 c 0
 653 393.82165661 619.936926691 361.010137002 579.620563267 343.955515017 c 1
 640.311038561 230.666627801 l 2
 644.085752595 223.620494938 645.870355709 215.963403109 645.870355709 208.374712105 c 0
 645.870355709 191.141228445 636.666833585 174.260500252 620.666627801 165.688961439 c 0
 613.620702866 161.914358795 605.96353793 160.129714685 598.374646785 160.129714685 c 0
 581.141774614 160.129714685 564.260959216 169.332309681 555.688961439 185.333372199 c 2
 479.260410831 328 l 1
 378 328 l 1
908 368 m 0
 908 155.464910926 698.304185685 0 460 0 c 0
 221.696010149 0 12 155.465074863 12 368 c 0
 12 580.535089074 221.695814315 736 460 736 c 0
 698.303989851 736 908 580.534925137 908 368 c 0
812 368 m 0
 812 509.465074863 663.696010149 640 460 640 c 0
 256.304185685 640 108 509.464910926 108 368 c 0
 108 226.534925137 256.303989851 96 460 96 c 0
 663.695814315 96 812 226.535089074 812 368 c 0
EndSplineSet
EndChar

StartChar: brokenbar
Encoding: 166 166 194
Width: 360
VWidth: 0
Flags: HW
LayerCount: 2
Fore
SplineSet
180 320 m 0
 206.144471708 320 228 298.146366075 228 272 c 2
 228 -32 l 2
 228 -58.1444717079 206.146366075 -80 180 -80 c 0
 153.853633925 -80 132 -58.1444717079 132 -32 c 2
 132 272 l 2
 132 298.146366075 153.855528292 320 180 320 c 0
180 816 m 0
 206.144471708 816 228 794.146366075 228 768 c 2
 228 464 l 2
 228 437.855528292 206.146366075 416 180 416 c 0
 153.853633925 416 132 437.855528292 132 464 c 2
 132 768 l 2
 132 794.146366075 153.855528292 816 180 816 c 0
EndSplineSet
EndChar

StartChar: plusminus
Encoding: 177 177 195
Width: 800
VWidth: 0
Flags: HW
LayerCount: 2
Fore
SplineSet
718 56 m 0
 718 29.8555282921 696.146366075 8 670 8 c 2
 130 8 l 2
 103.855528292 8 82 29.8536339246 82 56 c 0
 82 82.1463660754 103.855528292 104 130 104 c 2
 670 104 l 2
 696.146366075 104 718 82.1444717079 718 56 c 0
718 464 m 0
 718 437.855528292 696.146366075 416 670 416 c 2
 448 416 l 1
 448 248 l 2
 448 221.855528292 426.146366075 200 400 200 c 0
 373.853633925 200 352 221.855528292 352 248 c 2
 352 416 l 1
 130 416 l 2
 103.855528292 416 82 437.853633925 82 464 c 0
 82 490.146366075 103.855528292 512 130 512 c 2
 352 512 l 1
 352 680 l 2
 352 706.146366075 373.855528292 728 400 728 c 0
 426.144471708 728 448 706.146366075 448 680 c 2
 448 512 l 1
 670 512 l 2
 696.146366075 512 718 490.144471708 718 464 c 0
EndSplineSet
EndChar

StartChar: divide
Encoding: 247 247 196
Width: 800
VWidth: 0
Flags: HW
HStem: 128 48<372.382 427.618> 560 48<372.382 427.618>
VStem: 370 60<129.906 174.094 561.906 606.094>
LayerCount: 2
Fore
SplineSet
478 160 m 0
 478 106.363174089 428.73146149 80 390 80 c 0
 361.250197543 80 322 98.3631916673 322 144 c 0
 322 197.636825911 371.26853851 224 410 224 c 0
 438.749802457 224 478 205.636808333 478 160 c 0
478 592 m 0
 478 538.363174089 428.73146149 512 390 512 c 0
 361.250197543 512 322 530.363191667 322 576 c 0
 322 629.636825911 371.26853851 656 410 656 c 0
 438.749802457 656 478 637.636808333 478 592 c 0
82 368 m 0
 82 394.144471708 103.853633925 416 130 416 c 2
 670 416 l 2
 696.144471708 416 718 394.146366075 718 368 c 0
 718 341.853633925 696.144471708 320 670 320 c 2
 130 320 l 2
 103.853633925 320 82 341.855528292 82 368 c 0
EndSplineSet
EndChar

StartChar: uni2070
Encoding: 8304 8304 197
Width: 660
VWidth: 516
Flags: HW
HStem: 522 492<250.058 409.942>
VStem: 98 465<666.762 869.238>
LayerCount: 2
Fore
SplineSet
611 768 m 0
 611 607.599905643 486.680936577 474 330 474 c 0
 173.127357243 474 50 607.876271261 50 768 c 0
 50 928.124180387 173.12585071 1062 330 1062 c 0
 486.679394599 1062 611 928.399591306 611 768 c 0
515 768 m 0
 515 879.600408694 429.320605401 966 330 966 c 0
 230.87414929 966 146 879.875819613 146 768 c 0
 146 656.123728739 230.872642757 570 330 570 c 0
 429.319063423 570 515 656.400094357 515 768 c 0
EndSplineSet
EndChar

StartChar: uni2074
Encoding: 8308 8308 198
Width: 660
VWidth: 516
Flags: HW
LayerCount: 2
Fore
SplineSet
417 742 m 1
 417 949.901131163 l 1
 191.839152288 742 l 1
 417 742 l 1
618 694 m 0
 618 667.855528292 596.146366075 646 570 646 c 2
 513 646 l 1
 513 526 l 2
 513 499.855528292 491.146366075 478 465 478 c 0
 438.853633925 478 417 499.855528292 417 526 c 2
 417 646 l 1
 120 646 l 2
 90.9455273174 646 72 673.398583681 72 694 c 2
 72 709 l 1
 72 741 l 2
 72 754.561519533 78.7353201121 768.23078462 87.4374518696 776.265854013 c 2
 374.43745187 1041.26585401 l 2
 383.252602927 1049.40527921 395.070244814 1054 407 1054 c 2
 448 1054 l 1
 465 1054 l 2
 494.054472683 1054 513 1026.60141632 513 1006 c 2
 513 742 l 1
 570 742 l 2
 596.146366075 742 618 720.144471708 618 694 c 0
EndSplineSet
EndChar

StartChar: uni2075
Encoding: 8309 8309 199
Width: 660
VWidth: 492
Flags: HW
LayerCount: 2
Fore
SplineSet
108.197934308 648.820211886 m 0
 116.258764591 654.24577073 125.513624013 656.836384815 134.711038717 656.836384815 c 0
 150.260944997 656.836384815 165.646650913 649.431356281 174.820211886 635.802065692 c 0
 199.226500893 599.541293453 252.713700848 570 317 570 c 0
 414.317347558 570 477 632.140706645 477 690 c 0
 477 747.860735528 414.318882257 810 317 810 c 0
 260.267034872 810 210.269223231 790.05943119 174.751276017 756.909347124 c 0
 165.615367869 748.382499519 153.858397231 744.217018784 142.132063003 744.217018784 c 0
 127.968462382 744.217018784 113.849556939 750.294000614 104.447944684 762.102790406 c 0
 95.8850707273 772.85809235 93.1954882001 789.524926472 94.4563708875 798.603281821 c 2
 124.456370887 1014.60328182 l 2
 127.729071299 1038.16672478 148.620515056 1056 172 1056 c 2
 472 1056 l 2
 498.144471708 1056 520 1034.14636608 520 1008 c 0
 520 981.853633925 498.144471708 960 472 960 c 2
 213.794084921 960 l 1
 203.443371409 885.474862714 l 1
 237.643684486 898.462323376 277.210771273 906 317 906 c 0
 449.681117743 906 573 818.139264472 573 690 c 0
 573 561.859293355 449.682652442 474 317 474 c 0
 225.286299152 474 140.773499107 514.458706547 95.1797881143 582.197934308 c 0
 89.7540670658 590.25900558 87.1635587197 599.513716349 87.1635587197 608.710831647 c 0
 87.1635587197 624.261284942 94.5692881387 639.647084657 108.197934308 648.820211886 c 0
EndSplineSet
EndChar

StartChar: uni2076
Encoding: 8310 8310 200
Width: 660
VWidth: 492
Flags: HW
LayerCount: 2
Fore
SplineSet
202.04249387 648.651278978 m 1
 237.942065288 588.736648212 305.178024589 570 351 570 c 0
 458.191831647 570 494 625.592196491 494 658 c 0
 494 689.113378897 442.645796377 747 343 747 c 0
 244.959745702 747 203.869972238 712.453058982 202.04249387 648.651278978 c 1
175.183743249 794.741958189 m 1
 220.443359764 829.428666066 279.673408607 843 343 843 c 0
 467.354203623 843 590 770.886621103 590 658 c 0
 590 554.407803509 489.808168353 474 351 474 c 0
 267.422818606 474 119.363900781 518.190676689 85.0900127283 691.537062973 c 0
 80.4415220816 715.047644966 78 740.504484636 78 768 c 0
 78 993.229195331 258.762284236 1062 351 1062 c 0
 473.418058867 1062 531.097779731 998.80574735 538.275106889 990.252004268 c 0
 545.087429265 981.571588653 548.62141456 970.706817166 548.62141456 959.808422405 c 0
 548.62141456 946.30278285 543.19428764 932.745508169 531.853513886 923.229622236 c 0
 522.93686959 915.747789703 512.235042769 912.256476804 501.593478784 912.256476804 c 0
 487.77543785 912.256476804 474.059005777 918.143161862 464.484581364 928.823573965 c 0
 462.820060017 930.591786806 429.465829286 966 351 966 c 0
 296.330395117 966 187.92609529 929.364404013 175.183743249 794.741958189 c 1
EndSplineSet
EndChar

StartChar: uni2077
Encoding: 8311 8311 201
Width: 660
VWidth: 492
Flags: HW
LayerCount: 2
Fore
SplineSet
64 1008 m 0
 64 1034.14447171 85.8536339246 1056 112 1056 c 2
 532 1056 l 2
 561.054472683 1056 580 1028.60141632 580 1008 c 2
 580 964 l 2
 580 944.353595113 565.480154614 926.500119236 552.43012015 920.560722313 c 0
 544.765000533 917.088274818 326 815.485042594 326 552 c 2
 326 528 l 2
 326 501.855528292 304.146366075 480 278 480 c 0
 251.853633925 480 230 501.855528292 230 528 c 2
 230 552 l 2
 230 768.993542152 352.170420625 898.516335362 434.314072934 960 c 1
 112 960 l 2
 85.8536339246 960 64 981.855528292 64 1008 c 0
EndSplineSet
EndChar

StartChar: uni2078
Encoding: 8312 8312 202
Width: 660
VWidth: 492
Flags: HW
LayerCount: 2
Fore
SplineSet
507.565714008 785.643436562 m 1
 555.572520468 753.273187038 584 704.605725795 584 654 c 0
 584 546.392116154 474.131817002 474 330 474 c 0
 192.037038671 474 76 554.78612893 76 663 c 0
 76 724.010746701 112.226489745 767.414515048 144.704760526 793.062534104 c 1
 113.358239385 819.285104673 91 856.729946407 91 900 c 0
 91 1008.43856197 212.94244567 1062 330 1062 c 0
 439.407204748 1062 569 1010.065511 569 900 c 0
 569 847.027628463 534.736935975 809.624465949 507.565714008 785.643436562 c 1
398.375725093 825.711286698 m 1
 430.674789244 844.047734576 473 883.551989272 473 900 c 0
 473 915.934489 428.592795252 966 330 966 c 0
 225.05755433 966 187 917.561438034 187 900 c 0
 187 887.19927517 196.269558395 867.131214942 233.499320518 850.005311967 c 0
 259.221793754 838.17282753 295.594983384 830 339 830 c 0
 359.706476676 830 379.787996872 828.487225586 398.375725093 825.711286698 c 1
250.821246759 743.521803318 m 1
 220.986374678 731.956350673 172 701.587842025 172 663 c 0
 172 633.21387107 219.962961329 570 330 570 c 0
 451.868182998 570 488 625.607883846 488 654 c 0
 488 672.104391057 474.934083508 702.03161604 424.837201875 720.552202324 c 0
 403.183932961 728.55731606 374.777245315 734 339 734 c 0
 308.02580954 734 278.073527604 737.358369821 250.821246759 743.521803318 c 1
EndSplineSet
EndChar

StartChar: uni2079
Encoding: 8313 8313 203
Width: 660
VWidth: 492
Flags: HW
LayerCount: 2
Fore
SplineSet
457.95750613 887.348721022 m 1
 422.057934712 947.263351788 354.821975411 966 309 966 c 0
 201.808168353 966 166 910.407803509 166 878 c 0
 166 846.886621103 217.354203623 789 317 789 c 0
 415.040254298 789 456.130027762 823.546941018 457.95750613 887.348721022 c 1
484.816256751 741.258041811 m 1
 439.556640236 706.571333934 380.326591393 693 317 693 c 0
 192.645796377 693 70 765.113378897 70 878 c 0
 70 981.592196491 170.191831647 1062 309 1062 c 0
 392.577181394 1062 540.636099219 1017.80932331 574.909987272 844.462937027 c 0
 579.558477918 820.952355034 582 795.495515364 582 768 c 0
 582 542.770804669 401.237715764 474 309 474 c 0
 186.581941133 474 128.902220269 537.19425265 121.724893111 545.747995732 c 0
 114.912570735 554.428411347 111.37858544 565.293182834 111.37858544 576.191577595 c 0
 111.37858544 589.69721715 116.80571236 603.254491831 128.146486114 612.770377764 c 0
 137.06313041 620.252210297 147.764957231 623.743523196 158.406521216 623.743523196 c 0
 172.22456215 623.743523196 185.940994223 617.856838138 195.515418636 607.176426035 c 0
 197.179939983 605.408213194 230.534170714 570 309 570 c 0
 363.669604883 570 472.07390471 606.635595987 484.816256751 741.258041811 c 1
EndSplineSet
EndChar

StartChar: uni2080
Encoding: 8320 8320 204
Width: 660
VWidth: -284
Flags: HW
HStem: -278 492<250.058 409.942>
VStem: 98 465<-133.238 69.238>
LayerCount: 2
Fore
SplineSet
611 -32 m 0
 611 -192.400094357 486.680936577 -326 330 -326 c 0
 173.127357243 -326 50 -192.123728739 50 -32 c 0
 50 128.124180387 173.12585071 262 330 262 c 0
 486.679394599 262 611 128.399591306 611 -32 c 0
515 -32 m 0
 515 79.6004086944 429.320605401 166 330 166 c 0
 230.87414929 166 146 79.8758196132 146 -32 c 0
 146 -143.876271261 230.872642757 -230 330 -230 c 0
 429.319063423 -230 515 -143.599905643 515 -32 c 0
EndSplineSet
EndChar

StartChar: uni2081
Encoding: 8321 8321 205
Width: 360
VWidth: -308
Flags: HW
LayerCount: 2
Fore
SplineSet
180 256 m 0
 206.144471708 256 228 234.146366075 228 208 c 2
 228 -272 l 2
 228 -298.144471708 206.146366075 -320 180 -320 c 0
 153.853633925 -320 132 -298.144471708 132 -272 c 2
 132 208 l 2
 132 234.146366075 153.855528292 256 180 256 c 0
EndSplineSet
EndChar

StartChar: uni2082
Encoding: 8322 8322 206
Width: 660
VWidth: -284
Flags: HW
LayerCount: 2
Fore
SplineSet
135 46 m 0
 108.855528292 46 87 67.8536339246 87 94 c 0
 87 217.054993579 210.592120051 262 317 262 c 0
 433.127427087 262 547 200.102009518 547 88 c 0
 547 13.1402326367 492.858489437 -25.7129801561 410.747681432 -65.2844538937 c 0
 259.297192309 -137.487594057 209.092486233 -162.928819005 194.733577109 -224 c 1
 525 -224 l 2
 551.144471708 -224 573 -245.853633925 573 -272 c 0
 573 -298.146366075 551.144471708 -320 525 -320 c 2
 142 -320 l 2
 121.398583681 -320 94 -301.054472683 94 -272 c 0
 94 -103.444981852 204.324723801 -57.3438180302 369.252318568 21.2844538937 c 0
 453.141510563 61.7129801561 451 70.8597673633 451 88 c 0
 451 119.897990482 410.872572913 166 317 166 c 0
 221.407879949 166 183 130.945006421 183 94 c 0
 183 67.8536339246 161.144471708 46 135 46 c 0
EndSplineSet
EndChar

StartChar: uni2083
Encoding: 8323 8323 207
Width: 660
VWidth: -284
Flags: HW
LayerCount: 2
Fore
SplineSet
115.559574 -152.938748485 m 0
 123.538927675 -147.67237506 132.649360017 -145.160952599 141.700899571 -145.160952599 c 0
 157.401792483 -145.160952599 172.925484501 -152.717502767 182.061251515 -166.559574 c 0
 203.621541438 -199.226679944 258.592382771 -230 328 -230 c 0
 428.97274698 -230 488 -171.194142057 488 -128 c 0
 488 -78.4164534882 444.730434981 -23 338 -23 c 0
 316.955395112 -23 281.24343889 -30.7612945278 258.116120744 -37.8773924187 c 0
 253.561079553 -39.2789435544 248.928697104 -39.9445326116 244.351952098 -39.9445326116 c 0
 236.586220205 -39.9445326116 228.980672086 -38.02825897 222.184927334 -34.5394937599 c 0
 211.380921428 -29.0050496421 202.608203756 -19.4926866268 198.508443318 -7.31398937802 c 0
 198.441721204 -7.11578545061 198.376411899 -6.91739548947 198.31251043 -6.71883066486 c 0
 198.247939769 -6.51861673791 198.184634752 -6.31771147097 198.122607581 -6.1161207442 c 0
 196.721007317 -1.56091988621 196.055411259 3.07151463727 196.055411259 7.64824182198 c 0
 196.055411259 15.4141023606 197.971783472 23.0195713303 201.460553113 29.8151734285 c 0
 206.994781764 40.6188801867 216.506804082 49.3916247469 228.686010622 53.4915566818 c 0
 319.279876192 83.9885015271 366.380217749 126.676759643 392.111055126 160 c 1
 124 160 l 2
 97.8555282921 160 76 181.853633925 76 208 c 0
 76 234.146366075 97.8555282921 256 124 256 c 2
 469 256 l 2
 491.834979288 256 516.987196697 235.325018644 516.987196697 207.762500065 c 0
 516.987196697 205.121035863 516.756188209 202.416313638 516.269992834 199.660468989 c 0
 515.013206358 192.536772507 500.49178283 126.095298469 429.732445735 59.9523778874 c 1
 522.298756614 31.9583263834 584 -38.6437634609 584 -128 c 0
 584 -250.805857943 455.02725302 -326 328 -326 c 0
 233.407617229 -326 146.378458562 -286.773320056 101.938748485 -219.440426 c 0
 96.6722182687 -211.460834763 94.1608943101 -202.350544698 94.1608943101 -193.299296041 c 0
 94.1608943101 -177.597851214 101.718165079 -162.074078373 115.559574 -152.938748485 c 0
EndSplineSet
EndChar

StartChar: uni2084
Encoding: 8324 8324 208
Width: 660
VWidth: -284
Flags: HW
LayerCount: 2
Fore
SplineSet
417 -58 m 1
 417 149.901131163 l 1
 191.839152288 -58 l 1
 417 -58 l 1
618 -106 m 0
 618 -132.144471708 596.146366075 -154 570 -154 c 2
 513 -154 l 1
 513 -274 l 2
 513 -300.144471708 491.146366075 -322 465 -322 c 0
 438.853633925 -322 417 -300.144471708 417 -274 c 2
 417 -154 l 1
 120 -154 l 2
 90.9455273174 -154 72 -126.601416319 72 -106 c 2
 72 -91 l 1
 72 -59 l 2
 72 -45.4384804672 78.7353201121 -31.7692153799 87.4374518696 -23.7341459871 c 2
 374.43745187 241.265854013 l 2
 383.252602927 249.405279205 395.070244814 254 407 254 c 2
 448 254 l 1
 465 254 l 2
 494.054472683 254 513 226.601416319 513 206 c 2
 513 -58 l 1
 570 -58 l 2
 596.146366075 -58 618 -79.8555282921 618 -106 c 0
EndSplineSet
EndChar

StartChar: uni2085
Encoding: 8325 8325 209
Width: 660
VWidth: -308
Flags: HW
LayerCount: 2
Fore
SplineSet
108.197934308 -151.179788114 m 0
 116.258764591 -145.75422927 125.513624013 -143.163615185 134.711038717 -143.163615185 c 0
 150.260944997 -143.163615185 165.646650913 -150.568643719 174.820211886 -164.197934308 c 0
 199.226500893 -200.458706547 252.713700848 -230 317 -230 c 0
 414.317347558 -230 477 -167.859293355 477 -110 c 0
 477 -52.1392644722 414.318882257 10 317 10 c 0
 260.267034872 10 210.269223231 -9.94056880953 174.751276017 -43.0906528757 c 0
 165.615367869 -51.6175004805 153.858397231 -55.7829812156 142.132063003 -55.7829812156 c 0
 127.968462382 -55.7829812156 113.849556939 -49.7059993861 104.447944684 -37.8972095942 c 0
 95.8850707273 -27.1419076499 93.1954882001 -10.4750735282 94.4563708875 -1.39671817881 c 2
 124.456370887 214.603281821 l 2
 127.729071299 238.166724781 148.620515056 256 172 256 c 2
 472 256 l 2
 498.144471708 256 520 234.146366075 520 208 c 0
 520 181.853633925 498.144471708 160 472 160 c 2
 213.794084921 160 l 1
 203.443371409 85.4748627143 l 1
 237.643684486 98.4623233763 277.210771273 106 317 106 c 0
 449.681117743 106 573 18.1392644722 573 -110 c 0
 573 -238.140706645 449.682652442 -326 317 -326 c 0
 225.286299152 -326 140.773499107 -285.541293453 95.1797881143 -217.802065692 c 0
 89.7540670658 -209.74099442 87.1635587197 -200.486283651 87.1635587197 -191.289168353 c 0
 87.1635587197 -175.738715058 94.5692881387 -160.352915343 108.197934308 -151.179788114 c 0
EndSplineSet
EndChar

StartChar: uni2086
Encoding: 8326 8326 210
Width: 660
VWidth: -308
Flags: HW
LayerCount: 2
Fore
SplineSet
202.04249387 -151.348721022 m 1
 237.942065288 -211.263351788 305.178024589 -230 351 -230 c 0
 458.191831647 -230 494 -174.407803509 494 -142 c 0
 494 -110.886621103 442.645796377 -53 343 -53 c 0
 244.959745702 -53 203.869972238 -87.5469410181 202.04249387 -151.348721022 c 1
175.183743249 -5.25804181069 m 1
 220.443359764 29.4286660656 279.673408607 43 343 43 c 0
 467.354203623 43 590 -29.113378897 590 -142 c 0
 590 -245.592196491 489.808168353 -326 351 -326 c 0
 267.422818606 -326 119.363900781 -281.809323311 85.0900127283 -108.462937027 c 0
 80.4415220816 -84.9523550338 78 -59.4955153639 78 -32 c 0
 78 193.229195331 258.762284236 262 351 262 c 0
 473.418058867 262 531.097779731 198.80574735 538.275106889 190.252004268 c 0
 545.087429265 181.571588653 548.62141456 170.706817166 548.62141456 159.808422405 c 0
 548.62141456 146.30278285 543.19428764 132.745508169 531.853513886 123.229622236 c 0
 522.93686959 115.747789703 512.235042769 112.256476804 501.593478784 112.256476804 c 0
 487.77543785 112.256476804 474.059005777 118.143161862 464.484581364 128.823573965 c 0
 462.820060017 130.591786806 429.465829286 166 351 166 c 0
 296.330395117 166 187.92609529 129.364404013 175.183743249 -5.25804181069 c 1
EndSplineSet
EndChar

StartChar: uni2087
Encoding: 8327 8327 211
Width: 660
VWidth: -308
Flags: HW
LayerCount: 2
Fore
SplineSet
64 208 m 0
 64 234.144471708 85.8536339246 256 112 256 c 2
 532 256 l 2
 561.054472683 256 580 228.601416319 580 208 c 2
 580 164 l 2
 580 144.353595113 565.480154614 126.500119236 552.43012015 120.560722313 c 0
 544.765000533 117.088274818 326 15.4850425939 326 -248 c 2
 326 -272 l 2
 326 -298.144471708 304.146366075 -320 278 -320 c 0
 251.853633925 -320 230 -298.144471708 230 -272 c 2
 230 -248 l 2
 230 -31.006457848 352.170420625 98.5163353624 434.314072934 160 c 1
 112 160 l 2
 85.8536339246 160 64 181.855528292 64 208 c 0
EndSplineSet
EndChar

StartChar: uni2088
Encoding: 8328 8328 212
Width: 660
VWidth: -308
Flags: HW
LayerCount: 2
Fore
SplineSet
507.565714008 -14.3565634378 m 1
 555.572520468 -46.726812962 584 -95.3942742054 584 -146 c 0
 584 -253.607883846 474.131817002 -326 330 -326 c 0
 192.037038671 -326 76 -245.21387107 76 -137 c 0
 76 -75.9892532992 112.226489745 -32.5854849515 144.704760526 -6.93746589649 c 1
 113.358239385 19.2851046732 91 56.7299464073 91 100 c 0
 91 208.438561966 212.94244567 262 330 262 c 0
 439.407204748 262 569 210.065511 569 100 c 0
 569 47.027628463 534.736935975 9.62446594936 507.565714008 -14.3565634378 c 1
398.375725093 25.7112866981 m 1
 430.674789244 44.0477345757 473 83.5519892725 473 100 c 0
 473 115.934489 428.592795252 166 330 166 c 0
 225.05755433 166 187 117.561438034 187 100 c 0
 187 87.1992751696 196.269558395 67.1312149424 233.499320518 50.0053119671 c 0
 259.221793754 38.1728275296 295.594983384 30 339 30 c 0
 359.706476676 30 379.787996872 28.487225586 398.375725093 25.7112866981 c 1
250.821246759 -56.478196682 m 1
 220.986374678 -68.0436493267 172 -98.4121579755 172 -137 c 0
 172 -166.78612893 219.962961329 -230 330 -230 c 0
 451.868182998 -230 488 -174.392116154 488 -146 c 0
 488 -127.895608943 474.934083508 -97.9683839605 424.837201875 -79.4477976757 c 0
 403.183932961 -71.4426839405 374.777245315 -66 339 -66 c 0
 308.02580954 -66 278.073527604 -62.6416301795 250.821246759 -56.478196682 c 1
EndSplineSet
EndChar

StartChar: uni2089
Encoding: 8329 8329 213
Width: 660
VWidth: -308
Flags: HW
LayerCount: 2
Fore
SplineSet
457.95750613 87.3487210219 m 1
 422.057934712 147.263351788 354.821975411 166 309 166 c 0
 201.808168353 166 166 110.407803509 166 78 c 0
 166 46.886621103 217.354203623 -11 317 -11 c 0
 415.040254298 -11 456.130027762 23.5469410181 457.95750613 87.3487210219 c 1
484.816256751 -58.7419581893 m 1
 439.556640236 -93.4286660656 380.326591393 -107 317 -107 c 0
 192.645796377 -107 70 -34.886621103 70 78 c 0
 70 181.592196491 170.191831647 262 309 262 c 0
 392.577181394 262 540.636099219 217.809323311 574.909987272 44.462937027 c 0
 579.558477918 20.9523550338 582 -4.50448463611 582 -32 c 0
 582 -257.229195331 401.237715764 -326 309 -326 c 0
 186.581941133 -326 128.902220269 -262.80574735 121.724893111 -254.252004268 c 0
 114.912570735 -245.571588653 111.37858544 -234.706817166 111.37858544 -223.808422405 c 0
 111.37858544 -210.30278285 116.80571236 -196.745508169 128.146486114 -187.229622236 c 0
 137.06313041 -179.747789703 147.764957231 -176.256476804 158.406521216 -176.256476804 c 0
 172.22456215 -176.256476804 185.940994223 -182.143161862 195.515418636 -192.823573965 c 0
 197.179939983 -194.591786806 230.534170714 -230 309 -230 c 0
 363.669604883 -230 472.07390471 -193.364404013 484.816256751 -58.7419581893 c 1
EndSplineSet
EndChar

StartChar: uni00B5
Encoding: 181 181 214
Width: 725
VWidth: 0
Flags: HW
LayerCount: 2
Fore
SplineSet
545 528 m 0
 571.144471708 528 593 506.146366075 593 480 c 2
 593 48 l 2
 593 21.8555282921 571.146366075 0 545 0 c 0
 520.988059046 0 500.596593898 18.4328787918 497.427348711 41.6924903913 c 1
 456.297392791 14.8951941709 400.526853594 -8 330 -8 c 0
 294.144427416 -8 258.737874182 1.1703952163 228 18.0105994609 c 1
 228 -144 l 2
 228 -170.144471708 206.146366075 -192 180 -192 c 0
 153.853633925 -192 132 -170.144471708 132 -144 c 2
 132 175.999996883 l 1
 132 176 l 1
 132 464 l 1
 132 480 l 2
 132 506.146366075 153.855528292 528 180 528 c 0
 206.144471708 528 228 506.146366075 228 480 c 2
 228 464 l 1
 228 176 l 2
 228 127.561941541 270.773429016 88 330 88 c 0
 419.243368426 88 476.831452603 144.919957005 497 168.755080406 c 1
 497 480 l 2
 497 506.146366075 518.855528292 528 545 528 c 0
EndSplineSet
EndChar

StartChar: paragraph
Encoding: 182 182 215
Width: 820
VWidth: 0
Flags: HW
LayerCount: 2
Fore
SplineSet
400 -192 m 0
 373.855528292 -192 352 -170.146366075 352 -144 c 2
 352 304 l 1
 340 304 l 2
 209.183502934 304 72 369.886407141 72 520 c 0
 72 670.113400925 209.183585556 736 340 736 c 2
 640 736 l 2
 660.601416319 736 688 717.054472683 688 688 c 2
 688 -144 l 2
 688 -170.146366075 666.144471708 -192 640 -192 c 0
 613.855528292 -192 592 -170.146366075 592 -144 c 2
 592 640 l 1
 448 640 l 1
 448 -144 l 2
 448 -170.146366075 426.144471708 -192 400 -192 c 0
352 400 m 1
 352 640 l 1
 340 640 l 2
 338.246082643 640 336.504130325 639.988100446 334.774211236 639.964377364 c 1
 342.591768271 631.821633959 347.999999999 620.908524008 348 608 c 2
 348 432 l 2
 348 419.818089898 343.255729812 408.568020971 335.543829682 400.025858473 c 1
 337.020509152 400.008635304 338.505913309 400.000000221 340 400 c 2
 352 400 l 1
192 451.446942241 m 1
 192 588.553167157 l 1
 176.261519991 569.937967738 168 546.795328414 168 520 c 0
 168 493.204752983 176.261523586 470.062141356 192 451.446942241 c 1
EndSplineSet
EndChar

StartChar: periodcentered
Encoding: 183 183 216
Width: 360
VWidth: 0
Flags: HW
HStem: 344 48<152.382 207.618>
VStem: 150 60<345.906 390.094>
LayerCount: 2
Fore
SplineSet
258 376 m 0
 258 322.363174089 208.73146149 296 170 296 c 0
 141.250197543 296 102 314.363191667 102 360 c 0
 102 413.636825911 151.26853851 440 190 440 c 0
 218.749802457 440 258 421.636808333 258 376 c 0
EndSplineSet
EndChar

StartChar: ordmasculine
Encoding: 186 186 217
Width: 540
VWidth: 0
Flags: HW
HStem: 468 224<204.185 335.815>
VStem: 160 220<506.704 653.296>
LayerCount: 2
Fore
SplineSet
428 580 m 0
 428 492.321482633 358.224748454 420 270 420 c 0
 181.795357938 420 112 492.315201946 112 580 c 0
 112 667.678517367 181.775251546 740 270 740 c 0
 358.204642062 740 428 667.684798054 428 580 c 0
332 580 m 0
 332 616.315201946 303.795357938 644 270 644 c 0
 236.224748454 644 208 616.321482633 208 580 c 0
 208 543.684798054 236.204642062 516 270 516 c 0
 303.775251546 516 332 543.678517367 332 580 c 0
EndSplineSet
EndChar

StartChar: uniE000
Encoding: 57344 57344 218
Width: 780
VWidth: 0
Flags: HW
LayerCount: 2
Fore
SplineSet
72 368 m 0
 72 394.144471708 93.8536339246 416 120 416 c 2
 660 416 l 2
 686.144471708 416 708 394.146366075 708 368 c 0
 708 341.853633925 686.144471708 320 660 320 c 2
 120 320 l 2
 93.8536339246 320 72 341.855528292 72 368 c 0
EndSplineSet
EndChar

StartChar: macron
Encoding: 175 175 222
Width: 400
VWidth: 0
Flags: HW
AnchorPoint: "above" 200 592 mark 0
LayerCount: 2
Fore
SplineSet
32 688 m 0
 32 714.144471708 53.8536339246 736 80 736 c 2
 320 736 l 2
 346.144471708 736 368 714.146366075 368 688 c 0
 368 661.853633925 346.144471708 640 320 640 c 2
 80 640 l 2
 53.8536339246 640 32 661.855528292 32 688 c 0
EndSplineSet
EndChar

StartChar: sterling
Encoding: 163 163 224
Width: 880
VWidth: 0
Flags: HW
LayerCount: 2
Fore
SplineSet
112 368 m 0
 112 394.144471708 133.853633925 416 160 416 c 2
 222.113312767 416 l 1
 205.652825796 443.853935094 192 477.62719615 192 528 c 0
 192 663.924518344 330.740666765 744 482 744 c 0
 622.28815683 744 773 686.080764288 773 536 c 0
 773 509.853633925 751.144471708 488 725 488 c 0
 698.855528292 488 677 509.853633925 677 536 c 0
 677 599.919235712 611.71184317 648 482 648 c 0
 353.259333235 648 288 584.075481656 288 528 c 0
 288 504.854278908 320.421703575 470.057183488 344.287430088 416 c 1
 520 416 l 2
 546.144471708 416 568 394.146366075 568 368 c 0
 568 341.853633925 546.144471708 320 520 320 c 2
 368.513954629 320 l 1
 368.952682613 313.648902906 369.184428332 307.133060672 369.184428332 300.447875232 c 0
 369.184428332 244.879223745 353.172467531 177.610175896 306.926554759 96 c 1
 720 96 l 2
 746.144471708 96 768 74.1463660754 768 48 c 0
 768 21.8536339246 746.144471708 0 720 0 c 2
 220 0 l 2
 212.577537727 0 203.276099083 2.22845940005 195.993732853 6.43439958755 c 0
 180.672690484 15.2830877436 172.180084362 31.7078115158 172.180084362 48.3488780204 c 0
 172.180084362 57.658917184 174.838247834 67.0366710562 180.445987638 75.1933834986 c 0
 254.367629601 182.715771808 278.547662058 246.839675235 278.547662058 292.737896135 c 0
 278.547662058 302.580673572 277.43567302 311.585290051 275.463783473 320 c 1
 160 320 l 2
 133.853633925 320 112 341.855528292 112 368 c 0
EndSplineSet
EndChar

StartChar: currency
Encoding: 164 164 225
Width: 720
VWidth: 0
Flags: HW
HStem: 240 256<270.562 449.438>
VStem: 200 320<296.45 439.55>
LayerCount: 2
Fore
SplineSet
617.481702853 573.985362283 m 0
 624.442529124 565.284329444 627.816919057 554.711842918 627.816919057 544.179137544 c 0
 627.816919057 529.998751546 621.700580736 515.890471909 609.985362283 506.518297147 c 2
 543.023290089 452.948639392 l 1
 558.774939365 428.555224251 568 399.951918743 568 368 c 0
 568 336.048628691 558.774574085 307.445470202 543.022473173 283.052014141 c 1
 609.985362283 229.481702853 l 2
 621.700085796 220.109924042 627.816954715 206.001461984 627.816954715 191.820570167 c 0
 627.816954715 181.288235602 624.442750384 170.715947131 617.481702853 162.014637717 c 0
 608.109528091 150.299419264 594.001248454 144.183080943 579.820862456 144.183080943 c 0
 569.288157082 144.183080943 558.715670556 147.557470876 550.014637717 154.518297147 c 2
 470.029889052 218.506096079 l 1
 437.000904895 201.365433877 398.663752687 192 360 192 c 0
 321.335305556 192 282.99798595 201.365047858 249.969136596 218.505316597 c 1
 169.985362283 154.518297147 l 2
 161.284329444 147.557470876 150.711842918 144.183080943 140.179137544 144.183080943 c 0
 125.998751546 144.183080943 111.890471909 150.299419264 102.518297147 162.014637717 c 0
 95.5572496162 170.715947131 92.1830452847 181.288235602 92.1830452847 191.820570167 c 0
 92.1830452847 206.001461984 98.2999142036 220.109924042 110.014637717 229.481702853 c 2
 176.976709911 283.051360608 l 1
 161.225060635 307.444775749 152 336.048081257 152 368 c 0
 152 399.951371309 161.225425915 428.554529798 176.977526827 452.947985859 c 1
 110.014637717 506.518297147 l 2
 98.2994192643 515.890471909 92.1830809428 529.998751546 92.1830809428 544.179137544 c 0
 92.1830809428 554.711842918 95.5574708756 565.284329444 102.518297147 573.985362283 c 0
 111.890075958 585.700085796 125.998538016 591.816954715 140.179429833 591.816954715 c 0
 150.711764398 591.816954715 161.284052869 588.442750384 169.985362283 581.481702853 c 2
 249.970110948 517.493903921 l 1
 282.999095105 534.634566123 321.336247313 544 360 544 c 1
 398.664694444 544 437.00201405 534.634952142 470.030863404 517.494683403 c 1
 550.014637717 581.481702853 l 2
 558.715947131 588.442750384 569.288235602 591.816954715 579.820570167 591.816954715 c 0
 594.001461984 591.816954715 608.109924042 585.700085796 617.481702853 573.985362283 c 0
472 368 m 0
 472 403.344452017 430.787959814 448 360 448 c 0
 289.209166122 448 248 403.346899807 248 368 c 0
 248 332.655547983 289.212040186 288 360 288 c 0
 430.790833878 288 472 332.653100193 472 368 c 0
EndSplineSet
EndChar

StartChar: section
Encoding: 167 167 227
Width: 780
VWidth: 0
Flags: HW
LayerCount: 2
Fore
SplineSet
149.332808325 -2.77855774676 m 0
 155.314345909 -0.253572063133 161.462286784 0.919429746857 167.495106747 0.919429746857 c 0
 186.321152142 0.919429746857 204.026130222 -10.5034644837 212.054805956 -27.9101695084 c 0
 213.345367536 -30.5307936406 246.888405066 -104 390 -104 c 0
 510.831960544 -104 564 -56.7384290826 564 -19 c 0
 564 -3.59006261006 557.79662191 50.8679871964 366.376082205 73.3306015494 c 0
 179.60041392 95.365933201 102 175.381118273 102 268 c 0
 102 338.678975268 146.519666069 392.8525643 212.72089202 427.387103117 c 1
 148.386485289 462.183340521 120 509.633504135 120 563 c 0
 120 693.261570917 262.831960544 744 390 744 c 0
 590.497988368 744 651.075786101 621.856948348 656.526867832 608.943667111 c 0
 658.658618107 603.393470507 659.694102249 597.517232574 659.694102249 591.648282627 c 0
 659.694102249 573.127106502 649.381701922 554.678511527 630.667191675 546.778557747 c 0
 624.685654091 544.253572063 618.537713216 543.080570253 612.504893253 543.080570253 c 0
 593.678847858 543.080570253 575.973869778 554.503464484 567.945194044 571.910169508 c 0
 566.654632464 574.530793641 533.111594934 648 390 648 c 0
 269.168039456 648 216 600.738429083 216 563 c 0
 216 547.59006261 222.20337809 493.132012804 413.623917795 470.669398451 c 0
 600.39958608 448.634066799 678 368.618881727 678 276 c 0
 678 205.321024732 633.480333931 151.1474357 567.27910798 116.612896883 c 1
 631.613514711 81.8166594789 660 34.3664958655 660 -19 c 0
 660 -149.261570917 517.168039456 -200 390 -200 c 0
 189.502011632 -200 128.924213899 -77.8569483482 123.473132168 -64.9436671108 c 0
 121.341381893 -59.3934705075 120.305897751 -53.5172325741 120.305897751 -47.6482826269 c 0
 120.305897751 -29.1271065016 130.618298078 -10.6785115266 149.332808325 -2.77855774676 c 0
405.208464463 374.991480513 m 1
 262.88355326 374.121126758 198 306.762699839 198 268 c 1
 198 242.761234739 208.283258591 189.238727499 374.791535537 169.008519487 c 1
 517.11644674 169.878873242 582 237.237300161 582 276 c 1
 582 301.238765261 571.716741409 354.761272501 405.208464463 374.991480513 c 1
EndSplineSet
EndChar

StartChar: ordfeminine
Encoding: 170 170 228
Width: 550
VWidth: 0
Flags: HW
LayerCount: 2
Fore
SplineSet
370 736 m 0
 396.144471708 736 418 714.146366075 418 688 c 2
 418 472 l 2
 418 445.855528292 396.146366075 424 370 424 c 0
 358.088012226 424 347.067028329 428.536355817 338.597650164 435.947928189 c 1
 317.995195572 425.768458925 294.78148019 420 270 420 c 0
 181.775251546 420 112 492.321482633 112 580 c 0
 112 667.684798054 181.795357938 740 270 740 c 0
 294.781475714 740 317.995198718 734.231533708 338.59766309 724.052053787 c 1
 347.067313548 731.463768001 358.088521598 736 370 736 c 0
322 545.834484794 m 1
 322 614.165517833 l 1
 310.579494263 632.881166008 291.74731395 644 270 644 c 0
 236.204642062 644 208 616.315201946 208 580 c 0
 208 543.678517367 236.224748454 516 270 516 c 0
 291.747275947 516 310.57949084 527.118843536 322 545.834484794 c 1
EndSplineSet
EndChar

StartChar: guillemotleft
Encoding: 171 171 229
Width: 960
VWidth: 0
Flags: HW
LayerCount: 2
Fore
SplineSet
817.481702853 509.985362283 m 0
 824.442529124 501.284329444 827.816919057 490.711842918 827.816919057 480.179137544 c 0
 827.816919057 465.998751546 821.700580736 451.890471909 809.985362283 442.518297147 c 2
 586.837490849 264 l 1
 809.985362283 85.4817028533 l 2
 821.700085796 76.1099240422 827.816954715 62.0014619837 827.816954715 47.8205701666 c 0
 827.816954715 37.2882356015 824.442750384 26.7159471306 817.481702853 18.0146377174 c 0
 808.109528091 6.29941926427 794.001248454 0.183080942809 779.820862456 0.183080942809 c 0
 769.288157082 0.183080942809 758.715670556 3.55747087564 750.014637717 10.5182971467 c 2
 480.014637717 226.518297147 l 2
 469.935633315 234.581500669 462.881479725 249.739937902 462.881479725 265.337978673 c 0
 462.881479725 278.373872383 467.808523608 291.716811566 480.014637717 301.481702853 c 2
 750.014637717 517.481702853 l 2
 758.715947131 524.442750384 769.288235602 527.816954715 779.820570167 527.816954715 c 0
 794.001461984 527.816954715 808.109924042 521.700085796 817.481702853 509.985362283 c 0
467.481702853 509.985362283 m 0
 474.442529124 501.284329444 477.816919057 490.711842918 477.816919057 480.179137544 c 0
 477.816919057 465.998751546 471.700580736 451.890471909 459.985362283 442.518297147 c 2
 236.837490849 264 l 1
 459.985362283 85.4817028533 l 2
 471.700085796 76.1099240422 477.816954715 62.0014619837 477.816954715 47.8205701666 c 0
 477.816954715 37.2882356015 474.442750384 26.7159471306 467.481702853 18.0146377174 c 0
 458.109528091 6.29941926427 444.001248454 0.183080942809 429.820862456 0.183080942809 c 0
 419.288157082 0.183080942809 408.715670556 3.55747087564 400.014637717 10.5182971467 c 2
 130.014637717 226.518297147 l 2
 119.935633315 234.581500669 112.881479725 249.739937902 112.881479725 265.337978673 c 0
 112.881479725 278.373872383 117.808523608 291.716811566 130.014637717 301.481702853 c 2
 400.014637717 517.481702853 l 2
 408.715947131 524.442750384 419.288235602 527.816954715 429.820570167 527.816954715 c 0
 444.001461984 527.816954715 458.109924042 521.700085796 467.481702853 509.985362283 c 0
EndSplineSet
EndChar

StartChar: logicalnot
Encoding: 172 172 230
Width: 800
VWidth: 0
Flags: HW
LayerCount: 2
Fore
SplineSet
82 460 m 0
 82 486.144471708 103.853633925 508 130 508 c 2
 670 508 l 2
 699.054472683 508 718 480.601416319 718 460 c 2
 718 276 l 2
 718 249.855528292 696.146366075 228 670 228 c 0
 643.853633925 228 622 249.855528292 622 276 c 2
 622 412 l 1
 130 412 l 2
 103.853633925 412 82 433.855528292 82 460 c 0
EndSplineSet
EndChar

StartChar: guillemotright
Encoding: 187 187 231
Width: 960
VWidth: 0
Flags: HW
LayerCount: 2
Fore
SplineSet
142.518297147 509.985362283 m 0
 151.890075958 521.700085796 165.998538016 527.816954715 180.179429833 527.816954715 c 0
 190.711764398 527.816954715 201.284052869 524.442750384 209.985362283 517.481702853 c 2
 479.985362283 301.481702853 l 2
 491.889233683 291.958605733 497.603590979 278.044821085 497.603590979 264.195991637 c 0
 497.603590979 249.95204847 491.558515577 235.776819782 479.985362283 226.518297147 c 2
 209.985362283 10.5182971467 l 2
 201.284329444 3.55747087564 190.711842918 0.183080942809 180.179137544 0.183080942809 c 0
 165.998751546 0.183080942809 151.890471909 6.29941926427 142.518297147 18.0146377174 c 0
 135.557249616 26.7159471306 132.183045285 37.2882356015 132.183045285 47.8205701666 c 0
 132.183045285 62.0014619837 138.299914204 76.1099240422 150.014637717 85.4817028533 c 2
 373.162509151 264 l 1
 150.014637717 442.518297147 l 2
 138.299419264 451.890471909 132.183080943 465.998751546 132.183080943 480.179137544 c 0
 132.183080943 490.711842918 135.557470876 501.284329444 142.518297147 509.985362283 c 0
492.518297147 509.985362283 m 0
 501.890075958 521.700085796 515.998538016 527.816954715 530.179429833 527.816954715 c 0
 540.711764398 527.816954715 551.284052869 524.442750384 559.985362283 517.481702853 c 2
 829.985362283 301.481702853 l 2
 841.889233683 291.958605733 847.603590979 278.044821085 847.603590979 264.195991637 c 0
 847.603590979 249.95204847 841.558515577 235.776819782 829.985362283 226.518297147 c 2
 559.985362283 10.5182971467 l 2
 551.284329444 3.55747087564 540.711842918 0.183080942809 530.179137544 0.183080942809 c 0
 515.998751546 0.183080942809 501.890471909 6.29941926427 492.518297147 18.0146377174 c 0
 485.557249616 26.7159471306 482.183045285 37.2882356015 482.183045285 47.8205701666 c 0
 482.183045285 62.0014619837 488.299914204 76.1099240422 500.014637717 85.4817028533 c 2
 723.162509151 264 l 1
 500.014637717 442.518297147 l 2
 488.299419264 451.890471909 482.183080943 465.998751546 482.183080943 480.179137544 c 0
 482.183080943 490.711842918 485.557470876 501.284329444 492.518297147 509.985362283 c 0
EndSplineSet
EndChar

StartChar: AE
Encoding: 198 198 232
Width: 1140
VWidth: 0
Flags: HW
LayerCount: 2
Fore
SplineSet
1023 688 m 0
 1023 661.855528292 1001.14636608 640 975 640 c 2
 633 640 l 1
 633 436 l 1
 855 436 l 2
 881.144471708 436 903 414.146366075 903 388 c 0
 903 361.853633925 881.144471708 340 855 340 c 2
 633 340 l 1
 633 96 l 1
 990 96 l 2
 1016.14447171 96 1038 74.1463660754 1038 48 c 0
 1038 21.8536339246 1016.14447171 0 990 0 c 2
 585 0 l 2
 558.853633925 0 537 21.8555282921 537 48 c 2
 537 144 l 1
 240 144 l 2
 238.577699784 144 237.168102199 144.064672729 235.77403399 144.191190526 c 2
 160.846694112 22.7899309777 l 2
 151.861393124 8.23146861716 135.878767478 0.151375906831 119.670166976 0.151375906831 c 0
 111.10699837 0.151375906831 102.48075755 2.40662386279 94.7899309777 7.15330588788 c 0
 80.2321929215 16.1381598444 72.1513122812 32.1208179436 72.1513122812 48.3299878516 c 0
 72.1513122812 56.8928948891 74.4064839193 65.5190157061 79.1533058879 73.2100690223 c 2
 474.153305888 713.210069022 l 2
 482.854812063 727.308711938 498.760647861 736 515 736 c 2
 558 736 l 1
 585 736 l 1
 975 736 l 2
 1001.14636608 736 1023 714.144471708 1023 688 c 0
294.906033587 240 m 1
 537 240 l 1
 537 632.253515201 l 1
 294.906033587 240 l 1
EndSplineSet
EndChar

StartChar: Eth
Encoding: 208 208 233
Width: 870
VWidth: 0
Flags: HW
HStem: 48 21G<180 480> 668 20G<180 480>
VStem: 180 540<226.215 509.777>
LayerCount: 2
Fore
SplineSet
12 388 m 0
 12 414.144471708 33.8536339246 436 60 436 c 2
 132 436 l 1
 132 688 l 2
 132 717.054472683 159.398583681 736 180 736 c 2
 440 736 l 2
 537.572367176 736 768 657.235800296 768 368 c 0
 768 78.7652151191 537.571406405 0 440 0 c 2
 180 0 l 2
 150.945527317 0 132 27.3985836813 132 48 c 2
 132 340 l 1
 60 340 l 2
 33.8536339246 340 12 361.855528292 12 388 c 0
228 96 m 1
 440 96 l 2
 502.428593595 96 672 145.234784881 672 368 c 0
 672 590.764199704 502.427632824 640 440 640 c 2
 228 640 l 1
 228 436 l 1
 360 436 l 2
 386.144471708 436 408 414.146366075 408 388 c 0
 408 361.853633925 386.144471708 340 360 340 c 2
 228 340 l 1
 228 96 l 1
EndSplineSet
EndChar

StartChar: multiply
Encoding: 215 215 234
Width: 800
VWidth: 0
Flags: HW
LayerCount: 2
Fore
SplineSet
657.481702853 573.985362283 m 0
 664.442529124 565.284329444 667.816919057 554.711842918 667.816919057 544.179137544 c 0
 667.816919057 529.998751546 661.700580736 515.890471909 649.985362283 506.518297147 c 2
 476.837490849 368 l 1
 649.985362283 229.481702853 l 2
 661.700085796 220.109924042 667.816954715 206.001461984 667.816954715 191.820570167 c 0
 667.816954715 181.288235602 664.442750384 170.715947131 657.481702853 162.014637717 c 0
 648.109528091 150.299419264 634.001248454 144.183080943 619.820862456 144.183080943 c 0
 609.288157082 144.183080943 598.715670556 147.557470876 590.014637717 154.518297147 c 2
 400 306.530007321 l 1
 209.985362283 154.518297147 l 2
 201.284329444 147.557470876 190.711842918 144.183080943 180.179137544 144.183080943 c 0
 165.998751546 144.183080943 151.890471909 150.299419264 142.518297147 162.014637717 c 0
 135.557249616 170.715947131 132.183045285 181.288235602 132.183045285 191.820570167 c 0
 132.183045285 206.001461984 138.299914204 220.109924042 150.014637717 229.481702853 c 2
 323.162509151 368 l 1
 150.014637717 506.518297147 l 2
 138.299419264 515.890471909 132.183080943 529.998751546 132.183080943 544.179137544 c 0
 132.183080943 554.711842918 135.557470876 565.284329444 142.518297147 573.985362283 c 0
 151.890075958 585.700085796 165.998538016 591.816954715 180.179429833 591.816954715 c 0
 190.711764398 591.816954715 201.284052869 588.442750384 209.985362283 581.481702853 c 2
 400 429.469992679 l 1
 590.014637717 581.481702853 l 2
 598.715947131 588.442750384 609.288235602 591.816954715 619.820570167 591.816954715 c 0
 634.001461984 591.816954715 648.109924042 585.700085796 657.481702853 573.985362283 c 0
EndSplineSet
EndChar

StartChar: uniE001
Encoding: 57345 57345 235
Width: 920
VWidth: 0
Flags: HW
AnchorPoint: "middle" 460 368 basechar 0
LayerCount: 2
Fore
SplineSet
127.170825814 12.9822142013 m 0
 117.223197944 22.3081153294 112.192293504 35.1727689107 112.192293504 48.0542457811 c 0
 112.192293504 59.8714318121 116.426215933 71.7027760332 124.982214201 80.8291741863 c 2
 724.982214201 720.829174186 l 2
 734.308115329 730.776802056 747.172768911 735.807706496 760.054245781 735.807706496 c 0
 771.871431812 735.807706496 783.702776033 731.573784067 792.829174186 723.017785799 c 0
 802.777178607 713.691531654 807.807695657 700.827098855 807.807695657 687.946087739 c 0
 807.807695657 676.128474363 803.573486858 664.296906943 795.017785799 655.170825814 c 2
 195.017785799 15.1708258137 l 2
 185.691531654 5.22282139297 172.827098855 0.192304343243 159.946087739 0.192304343243 c 0
 148.128474363 0.192304343243 136.296906943 4.42651314212 127.170825814 12.9822142013 c 0
EndSplineSet
EndChar

StartChar: Thorn
Encoding: 222 222 237
Width: 850
VWidth: 0
Flags: HW
LayerCount: 2
Fore
SplineSet
180 736 m 0
 206.144471708 736 228 714.146366075 228 688 c 2
 228 604 l 1
 480 604 l 2
 610.816414444 604 748 538.113400925 748 388 c 0
 748 237.886407141 610.816497066 172 480 172 c 2
 228 172 l 1
 228 48 l 2
 228 21.8555282921 206.146366075 0 180 0 c 0
 153.853633925 0 132 21.8555282921 132 48 c 2
 132 556 l 1
 132 688 l 2
 132 714.146366075 153.855528292 736 180 736 c 0
228 508 m 1
 228 268 l 1
 480 268 l 2
 589.183502934 268 652 314.113592859 652 388 c 0
 652 461.886599075 589.183585556 508 480 508 c 2
 228 508 l 1
EndSplineSet
EndChar

StartChar: germandbls
Encoding: 223 223 238
Width: 790
VWidth: 0
Flags: HW
LayerCount: 2
Fore
SplineSet
180 0 m 0
 153.855528292 0 132 21.8536339246 132 48 c 2
 132 528 l 2
 132 639.013934245 237.167766711 744 380 744 c 2
 420 744 l 2
 557.637346279 744 668 656.751422356 668 542 c 0
 668 481.766280602 637.575531229 429.101307959 588.758249573 392.660031412 c 1
 652.578616363 349.474210975 688 280.225735639 688 214 c 0
 688 106.948803905 595.44727455 -8 440 -8 c 2
 420 -8 l 2
 393.855528292 -8 372 13.8536339246 372 40 c 0
 372 66.1463660754 393.855528292 88 420 88 c 2
 440 88 l 2
 544.55272545 88 592 161.051196095 592 214 c 0
 592 266.94909734 544.553448847 340 440 340 c 2
 420 340 l 2
 393.855528292 340 372 361.853633925 372 388 c 0
 372 414.146366075 393.855528292 436 420 436 c 0
 522.381685056 436 572 496.729919608 572 542 c 0
 572 587.248577644 522.362653721 648 420 648 c 2
 380 648 l 2
 282.832233289 648 228 576.986065755 228 528 c 2
 228 48 l 2
 228 21.8536339246 206.144471708 0 180 0 c 0
EndSplineSet
EndChar

StartChar: ae
Encoding: 230 230 239
Width: 1000
VWidth: 0
Flags: HW
LayerCount: 2
Fore
SplineSet
111.272329117 397.846753935 m 0
 101.795584775 407.205410901 97.3543670191 419.437156036 97.3543670191 431.599892404 c 0
 97.3543670191 443.865564571 101.871076805 456.061054956 110.2949702 465.168933888 c 0
 117.190595417 472.151567988 183.19245198 536 310 536 c 0
 378.740467306 536 452.355401333 513.125328585 492.517963807 467.620773389 c 1
 538.027087301 510.314743039 598.332209396 536 665 536 c 0
 740.690316805 536 812.360933769 507.701440031 861.698613809 445.7130728 c 0
 901.095316432 395.236047565 913 342.344634077 913 288 c 0
 913 258.945527317 885.601416319 240 865 240 c 2
 504.384327008 240 l 1
 515.009427338 149.22306335 583.956835042 88 665 88 c 0
 775.472794269 88 822.731834453 151.53184776 825.959932331 155.920443456 c 0
 835.059351528 168.310745848 850.217302754 175.731218221 865.709124017 175.731218221 c 0
 874.785655898 175.731218221 883.976795101 173.183998127 892.131205244 167.596688018 c 0
 905.828613639 158.211377856 912.616514382 143.042706203 912.616514382 127.905102649 c 0
 912.616514382 118.655130342 910.081957198 109.416758657 905.040589328 101.516639642 c 0
 899.479925626 93.4011186477 826.867421814 -8 665 -8 c 0
 599.716333495 -8 540.69835475 16.5520561673 495.637842234 57.5180936553 c 1
 462.688315328 31.7008311452 397.82636188 -8 310 -8 c 0
 182.752311584 -8 87 59.2353881061 87 160 c 0
 87 241.36570173 146.761218859 311.999783822 306.442245604 323.867968242 c 0
 426.855010766 332.787432328 427 375.995244558 427 388 c 0
 427 395.593815023 396.784084665 440 310 440 c 0
 223.616320109 440 181.031877324 400.018679322 181.031877324 400.018679322 c 1
 169.580729626 389.157942937 156.556399493 383.916191209 144.014023119 383.916191209 c 0
 132.071868611 383.916191209 120.566643319 388.668253891 111.272329117 397.846753935 c 0
516.393634155 336 m 1
 811.869215248 336 l 1
 807.375577511 353.111874572 801.000412588 367.27476475 786.310489866 386.276767183 c 0
 757.402213398 422.229881507 717.484252817 440 665 440 c 0
 598.998288821 440 541.804712287 399.492006126 516.393634155 336 c 1
407.479468392 246.96140614 m 1
 381.227267565 237.454353847 350.064795081 230.836256994 313.557754396 228.132031758 c 0
 187.863185148 218.789867827 182.965004604 187.993703954 182.965004604 165.506237332 c 0
 182.965004604 163.605471595 183 161.764067932 183 160 c 0
 183 132.764611894 209.247688416 88 310 88 c 0
 368.349493829 88 414.961265557 117.166093462 437.349565489 134.379076571 c 1
 420.299531916 168.090948175 409.781963785 206.211803503 407.479468392 246.96140614 c 1
EndSplineSet
EndChar

StartChar: eth
Encoding: 240 240 240
Width: 710
VWidth: 0
Flags: HW
HStem: 40 448<259.621 450.379>
VStem: 135 440<157.228 370.772>
LayerCount: 2
Fore
SplineSet
262.518297147 717.985362283 m 0
 271.890075958 729.700085796 285.998538016 735.816954715 300.179429833 735.816954715 c 0
 310.711764398 735.816954715 321.284052869 732.442750384 329.985362283 725.481702853 c 0
 342.782947002 715.243635078 355.241255283 705.155704856 367.343888222 695.175422528 c 1
 418.050814312 716.559650015 474.388125178 736 540 736 c 1
 566.144471708 736 588 714.146366075 588 688 c 0
 588 661.853633925 566.144471708 640 540 640 c 0
 511.991816803 640 483.470908851 631.512776893 453.385529631 619.585441112 c 1
 560.131008085 517.639843049 623 415.514594154 623 264 c 0
 623 114.321398024 504.2047258 -8 355 -8 c 0
 205.795255951 -8 87 114.321405196 87 264 c 0
 87 413.678601976 205.7952742 536 355 536 c 0
 373.052529496 536 390.659895059 534.20933921 407.66554885 530.796218302 c 1
 392.314213103 546.22727611 375.384875494 561.966569041 356.822397904 578.304825742 c 1
 310.25920934 559.645786681 258.862557267 544 200 544 c 1
 173.853633925 544 152 565.855528292 152 592 c 0
 152 618.144471708 173.853633925 640 200 640 c 0
 221.864883058 640 244.042802258 645.172744957 267.033936273 653.116771547 c 1
 257.263960644 662.390155282 252.183080974 675.254696774 252.183080974 688.179137478 c 0
 252.183080974 698.711842858 255.557470898 709.284329401 262.518297147 717.985362283 c 0
527 264 m 0
 527 362.321405196 449.795255951 440 355 440 c 0
 260.2047258 440 183 362.321398024 183 264 c 0
 183 165.678594804 260.204744049 88 355 88 c 0
 449.7952742 88 527 165.678601976 527 264 c 0
EndSplineSet
EndChar

StartChar: uniE002
Encoding: 57346 57346 242
Width: 710
VWidth: 0
Flags: HW
AnchorPoint: "middle" 355 264 basechar 0
LayerCount: 2
Fore
SplineSet
111.540237122 13.5842438969 m 0
 101.991005895 22.8682187008 97.1930030812 35.4425069929 97.1930030812 48.0238478256 c 0
 97.1930030812 60.140090736 101.642824542 72.2628743984 110.584243897 81.459762878 c 2
 530.584243897 513.459762878 l 2
 539.868218701 523.008994105 552.442506993 527.806996919 565.023847826 527.806996919 c 0
 577.140090736 527.806996919 589.262874398 523.357175458 598.459762878 514.415756103 c 0
 608.009346686 505.131438512 612.80699217 492.557374123 612.80699217 479.976488869 c 0
 612.80699217 467.859807125 608.356857515 455.736798574 599.415756103 446.540237122 c 2
 179.415756103 14.540237122 l 2
 170.131438512 4.99065331435 157.557374123 0.193007830071 144.976488869 0.193007830071 c 0
 132.859807125 0.193007830071 120.736798574 4.64314248479 111.540237122 13.5842438969 c 0
EndSplineSet
EndChar

StartChar: thorn
Encoding: 254 254 243
Width: 735
VWidth: 0
Flags: HW
LayerCount: 2
Fore
SplineSet
180 736 m 0
 206.144471708 736 228 714.146366075 228 688 c 2
 228 488.355453444 l 1
 271.174703345 518.432193077 323.559802958 536 380 536 c 0
 529.204744049 536 648 413.678594804 648 264 c 0
 648 114.321398024 529.2047258 -8 380 -8 c 0
 323.560339261 -8 271.174994065 9.56806823148 228 39.6450306454 c 1
 228 -144 l 2
 228 -170.144471708 206.146366075 -192 180 -192 c 0
 153.853633925 -192 132 -170.144471708 132 -144 c 2
 132 688 l 2
 132 714.146366075 153.855528292 736 180 736 c 0
228 346.895705383 m 1
 228 181.104276239 l 1
 256.771864485 125.286358164 314.083903835 88 380 88 c 0
 474.7952742 88 552 165.678601976 552 264 c 0
 552 362.321405196 474.795255951 440 380 440 c 0
 314.085189754 440 256.771745065 402.713117109 228 346.895705383 c 1
EndSplineSet
EndChar

StartChar: uni203D
Encoding: 8253 8253 244
Width: 760
VWidth: 0
Flags: HW
HStem: 48 48<352.382 407.618>
VStem: 350 60<49.9059 94.0941>
LayerCount: 2
Fore
SplineSet
458 80 m 0
 458 26.3631740889 408.73146149 0 370 0 c 0
 341.250197543 0 302 18.3631916673 302 64 c 0
 302 117.636825911 351.26853851 144 390 144 c 0
 418.749802457 144 458 125.636808333 458 80 c 0
140 488 m 0
 113.855528292 488 92 509.853633925 92 536 c 0
 92 685.334421514 239.142501794 744 380 744 c 0
 521.037091324 744 668 695.091732499 668 560 c 0
 668 461.404322008 596.426676253 415.561561801 520.213961204 380.463600923 c 0
 436.486724186 341.272128276 428 330.370324471 428 240 c 0
 428 213.855528292 406.146366075 192 380 192 c 0
 353.853633925 192 332 213.855528292 332 240 c 2
 332 645.560676887 l 1
 235.255273723 635.10792317 188 592.068606536 188 536 c 0
 188 509.853633925 166.144471708 488 140 488 c 0
428 645.910284309 m 1
 428 438.876431197 l 1
 443.251528054 449.038464007 460.477037085 458.498142957 479.786038796 467.536399077 c 0
 555.573323747 502.438438199 572 518.595677992 572 560 c 0
 572 595.811781146 531.354790393 636.362288053 428 645.910284309 c 1
EndSplineSet
EndChar

StartChar: afii00208
Encoding: 8213 8213 245
Width: 1280
VWidth: 0
Flags: HW
LayerCount: 2
Fore
SplineSet
12 368 m 0
 12 394.144471708 33.8536339246 416 60 416 c 2
 1220 416 l 2
 1246.14447171 416 1268 394.146366075 1268 368 c 0
 1268 341.853633925 1246.14447171 320 1220 320 c 2
 60 320 l 2
 33.8536339246 320 12 341.855528292 12 368 c 0
EndSplineSet
EndChar

StartChar: bullet
Encoding: 8226 8226 246
Width: 440
VWidth: 0
Flags: HW
HStem: 304 128<159.516 280.484> 336 64<197.92 242.08>
VStem: 140 160<319.613 416.387> 180 80<350.336 385.664>
LayerCount: 2
Fore
SplineSet
348 368 m 0
 348 297.379918559 281.518798629 256 220 256 c 0
 158.482281163 256 92 297.380612307 92 368 c 0
 92 438.620081441 158.481201371 480 220 480 c 0
 281.517718837 480 348 438.619387693 348 368 c 0
EndSplineSet
EndChar

StartChar: uni2016
Encoding: 8214 8214 247
Width: 560
VWidth: 0
Flags: HW
LayerCount: 2
Fore
SplineSet
380 816 m 0
 406.144471708 816 428 794.146366075 428 768 c 2
 428 -32 l 2
 428 -58.1444717079 406.146366075 -80 380 -80 c 0
 353.853633925 -80 332 -58.1444717079 332 -32 c 2
 332 768 l 2
 332 794.146366075 353.855528292 816 380 816 c 0
180 816 m 0
 206.144471708 816 228 794.146366075 228 768 c 2
 228 -32 l 2
 228 -58.1444717079 206.146366075 -80 180 -80 c 0
 153.853633925 -80 132 -58.1444717079 132 -32 c 2
 132 768 l 2
 132 794.146366075 153.855528292 816 180 816 c 0
EndSplineSet
EndChar

StartChar: underscoredbl
Encoding: 8215 8215 248
Width: 720
VWidth: 0
Flags: HW
LayerCount: 2
Fore
SplineSet
12 -96 m 0
 12 -69.8555282921 33.8536339246 -48 60 -48 c 2
 660 -48 l 2
 686.144471708 -48 708 -69.8536339246 708 -96 c 0
 708 -122.146366075 686.144471708 -144 660 -144 c 2
 60 -144 l 2
 33.8536339246 -144 12 -122.144471708 12 -96 c 0
12 -240 m 0
 12 -213.855528292 33.8536339246 -192 60 -192 c 2
 660 -192 l 2
 686.144471708 -192 708 -213.853633925 708 -240 c 0
 708 -266.146366075 686.144471708 -288 660 -288 c 2
 60 -288 l 2
 33.8536339246 -288 12 -266.144471708 12 -240 c 0
EndSplineSet
EndChar

StartChar: quoteleft
Encoding: 8216 8216 249
Width: 370
VWidth: 0
Flags: HW
LayerCount: 2
Fore
SplineSet
217.517722347 629.720254816 m 1
 238.069711145 623.747957963 268 606.060158145 268 568 c 0
 268 514.363174089 218.73146149 488 180 488 c 0
 152.069669151 488 102 510.078391498 102 568 c 0
 102 631.600394653 148.389235197 708.190476158 149.847494953 710.973538864 c 0
 159.026636189 727.178811387 175.432190112 735.971726016 192.157731682 735.971726016 c 0
 199.675533211 735.971726016 207.257982659 734.195271097 214.277909985 730.516993387 c 0
 230.494726928 722.01976065 239.873740498 705.007589814 239.873740498 687.620727141 c 0
 239.873740498 680.176930276 238.154630197 672.664454909 234.516993387 665.722090015 c 2
 234.516993387 665.722090015 226.646259352 650.771778929 217.517722347 629.720254816 c 1
EndSplineSet
EndChar

StartChar: quoteright
Encoding: 8217 8217 250
Width: 370
VWidth: 0
Flags: HW
LayerCount: 2
Fore
SplineSet
152.482277653 594.279745184 m 1
 131.930288855 600.252042037 102 617.939841855 102 656 c 0
 102 709.636825911 151.26853851 736 190 736 c 0
 217.930330849 736 268 713.921608502 268 656 c 0
 268 592.399605347 221.610764803 515.809523842 220.152505047 513.026461136 c 0
 210.973363811 496.821188613 194.567809888 488.028273984 177.842268318 488.028273984 c 0
 170.324466789 488.028273984 162.742017341 489.804728903 155.722090015 493.483006613 c 0
 139.505273072 501.98023935 130.126259502 518.992410186 130.126259502 536.379272859 c 0
 130.126259502 543.823069724 131.845369803 551.335545091 135.483006613 558.277909985 c 2
 135.483006613 558.277909985 143.353740648 573.228221071 152.482277653 594.279745184 c 1
EndSplineSet
EndChar

StartChar: quotesinglbase
Encoding: 8218 8218 251
Width: 370
VWidth: 0
Flags: HW
LayerCount: 2
Fore
SplineSet
152.482277653 2.27974518411 m 1
 131.930288855 8.25204203703 102 25.939841855 102 64 c 0
 102 117.636825911 151.26853851 144 190 144 c 0
 217.930330849 144 268 121.921608502 268 64 c 0
 268 0.399605347479 221.610764803 -76.1904761584 220.152505047 -78.9735388642 c 0
 210.973363811 -95.1788113866 194.567809888 -103.971726016 177.842268318 -103.971726016 c 0
 170.324466789 -103.971726016 162.742017341 -102.195271097 155.722090015 -98.5169933872 c 0
 139.505273072 -90.0197606499 130.126259502 -73.0075898143 130.126259502 -55.6207271411 c 0
 130.126259502 -48.176930276 131.845369803 -40.6644549093 135.483006613 -33.7220900147 c 2
 135.483006613 -33.7220900147 143.353740648 -18.7717789285 152.482277653 2.27974518411 c 1
EndSplineSet
EndChar

StartChar: quotereversed
Encoding: 8219 8219 252
Width: 370
VWidth: 0
Flags: HW
LayerCount: 2
Fore
SplineSet
213.315631978 598.489355149 m 1
 223.297717568 579.53923711 234.241806432 563.642664625 234.300602724 563.558349471 c 0
 240.068783058 555.332422734 242.831075824 545.772255311 242.831075824 536.266164484 c 0
 242.831075824 521.034803205 235.73949224 505.942271779 222.558349471 496.699397276 c 0
 214.292135145 490.902966499 204.723892346 488.049924294 195.172742042 488.049924294 c 0
 180.545914978 488.049924294 165.959174064 494.741017668 156.150223747 507.798719855 c 0
 155.082409567 509.32151573 102 573.348902757 102 640 c 0
 102 698.022400657 154.139583241 736 200 736 c 0
 228.749802457 736 268 717.636808333 268 672 c 0
 268 631.355882309 237.69813854 608.311264858 213.315631978 598.489355149 c 1
EndSplineSet
EndChar

StartChar: quotedblleft
Encoding: 8220 8220 253
Width: 640
VWidth: 0
Flags: HW
LayerCount: 2
Fore
SplineSet
487.517722347 629.720254816 m 1
 508.069711145 623.747957963 538 606.060158145 538 568 c 0
 538 514.363174089 488.73146149 488 450 488 c 0
 422.069669151 488 372 510.078391498 372 568 c 0
 372 631.600394653 418.389235197 708.190476158 419.847494953 710.973538864 c 0
 429.026636189 727.178811387 445.432190112 735.971726016 462.157731682 735.971726016 c 0
 469.675533211 735.971726016 477.257982659 734.195271097 484.277909985 730.516993387 c 0
 500.494726928 722.01976065 509.873740498 705.007589814 509.873740498 687.620727141 c 0
 509.873740498 680.176930276 508.154630197 672.664454909 504.516993387 665.722090015 c 2
 504.516993387 665.722090015 496.646259352 650.771778929 487.517722347 629.720254816 c 1
217.517722347 629.720254816 m 1
 238.069711145 623.747957963 268 606.060158145 268 568 c 0
 268 514.363174089 218.73146149 488 180 488 c 0
 152.069669151 488 102 510.078391498 102 568 c 0
 102 631.600394653 148.389235197 708.190476158 149.847494953 710.973538864 c 0
 159.026636189 727.178811387 175.432190112 735.971726016 192.157731682 735.971726016 c 0
 199.675533211 735.971726016 207.257982659 734.195271097 214.277909985 730.516993387 c 0
 230.494726928 722.01976065 239.873740498 705.007589814 239.873740498 687.620727141 c 0
 239.873740498 680.176930276 238.154630197 672.664454909 234.516993387 665.722090015 c 2
 234.516993387 665.722090015 226.646259352 650.771778929 217.517722347 629.720254816 c 1
EndSplineSet
EndChar

StartChar: quotedblright
Encoding: 8221 8221 254
Width: 640
VWidth: 0
Flags: HW
LayerCount: 2
Fore
SplineSet
422.482277653 594.279745184 m 1
 401.930288855 600.252042037 372 617.939841855 372 656 c 0
 372 709.636825911 421.26853851 736 460 736 c 0
 487.930330849 736 538 713.921608502 538 656 c 0
 538 592.399605347 491.610764803 515.809523842 490.152505047 513.026461136 c 0
 480.973363811 496.821188613 464.567809888 488.028273984 447.842268318 488.028273984 c 0
 440.324466789 488.028273984 432.742017341 489.804728903 425.722090015 493.483006613 c 0
 409.505273072 501.98023935 400.126259502 518.992410186 400.126259502 536.379272859 c 0
 400.126259502 543.823069724 401.845369803 551.335545091 405.483006613 558.277909985 c 2
 405.483006613 558.277909985 413.353740648 573.228221071 422.482277653 594.279745184 c 1
152.482277653 594.279745184 m 1
 131.930288855 600.252042037 102 617.939841855 102 656 c 0
 102 709.636825911 151.26853851 736 190 736 c 0
 217.930330849 736 268 713.921608502 268 656 c 0
 268 592.399605347 221.610764803 515.809523842 220.152505047 513.026461136 c 0
 210.973363811 496.821188613 194.567809888 488.028273984 177.842268318 488.028273984 c 0
 170.324466789 488.028273984 162.742017341 489.804728903 155.722090015 493.483006613 c 0
 139.505273072 501.98023935 130.126259502 518.992410186 130.126259502 536.379272859 c 0
 130.126259502 543.823069724 131.845369803 551.335545091 135.483006613 558.277909985 c 2
 135.483006613 558.277909985 143.353740648 573.228221071 152.482277653 594.279745184 c 1
EndSplineSet
EndChar

StartChar: quotedblbase
Encoding: 8222 8222 255
Width: 640
VWidth: 0
Flags: HW
LayerCount: 2
Fore
SplineSet
422.482277653 2.27974518411 m 1
 401.930288855 8.25204203703 372 25.939841855 372 64 c 0
 372 117.636825911 421.26853851 144 460 144 c 0
 487.930330849 144 538 121.921608502 538 64 c 0
 538 0.399605347481 491.610764803 -76.1904761584 490.152505047 -78.9735388642 c 0
 480.973363811 -95.1788113866 464.567809888 -103.971726016 447.842268318 -103.971726016 c 0
 440.324466789 -103.971726016 432.742017341 -102.195271097 425.722090015 -98.5169933872 c 0
 409.505273072 -90.0197606499 400.126259502 -73.0075898143 400.126259502 -55.6207271411 c 0
 400.126259502 -48.176930276 401.845369803 -40.6644549093 405.483006613 -33.7220900147 c 2
 405.483006613 -33.7220900147 413.353740648 -18.7717789285 422.482277653 2.27974518411 c 1
152.482277653 2.27974518411 m 1
 131.930288855 8.25204203703 102 25.939841855 102 64 c 0
 102 117.636825911 151.26853851 144 190 144 c 0
 217.930330849 144 268 121.921608502 268 64 c 0
 268 0.399605347479 221.610764803 -76.1904761584 220.152505047 -78.9735388642 c 0
 210.973363811 -95.1788113866 194.567809888 -103.971726016 177.842268318 -103.971726016 c 0
 170.324466789 -103.971726016 162.742017341 -102.195271097 155.722090015 -98.5169933872 c 0
 139.505273072 -90.0197606499 130.126259502 -73.0075898143 130.126259502 -55.6207271411 c 0
 130.126259502 -48.176930276 131.845369803 -40.6644549093 135.483006613 -33.7220900147 c 2
 135.483006613 -33.7220900147 143.353740648 -18.7717789285 152.482277653 2.27974518411 c 1
EndSplineSet
EndChar

StartChar: uni201F
Encoding: 8223 8223 256
Width: 640
VWidth: 0
Flags: HW
LayerCount: 2
Fore
SplineSet
483.315631978 598.489355149 m 1
 493.297717568 579.53923711 504.241806432 563.642664625 504.300602724 563.558349471 c 0
 510.068783058 555.332422734 512.831075824 545.772255311 512.831075824 536.266164484 c 0
 512.831075824 521.034803205 505.73949224 505.942271779 492.558349471 496.699397276 c 0
 484.292135145 490.902966499 474.723892346 488.049924294 465.172742042 488.049924294 c 0
 450.545914978 488.049924294 435.959174064 494.741017668 426.150223747 507.798719855 c 0
 425.082409567 509.32151573 372 573.348902757 372 640 c 0
 372 698.022400657 424.139583241 736 470 736 c 0
 498.749802457 736 538 717.636808333 538 672 c 0
 538 631.355882309 507.69813854 608.311264858 483.315631978 598.489355149 c 1
213.315631978 598.489355149 m 1
 223.297717568 579.53923711 234.241806432 563.642664625 234.300602724 563.558349471 c 0
 240.068783058 555.332422734 242.831075824 545.772255311 242.831075824 536.266164484 c 0
 242.831075824 521.034803205 235.73949224 505.942271779 222.558349471 496.699397276 c 0
 214.292135145 490.902966499 204.723892346 488.049924294 195.172742042 488.049924294 c 0
 180.545914978 488.049924294 165.959174064 494.741017668 156.150223747 507.798719855 c 0
 155.082409567 509.32151573 102 573.348902757 102 640 c 0
 102 698.022400657 154.139583241 736 200 736 c 0
 228.749802457 736 268 717.636808333 268 672 c 0
 268 631.355882309 237.69813854 608.311264858 213.315631978 598.489355149 c 1
EndSplineSet
EndChar

StartChar: dagger
Encoding: 8224 8224 257
Width: 780
VWidth: 0
Flags: HW
LayerCount: 2
Fore
SplineSet
92 568 m 0
 92 594.144471708 113.853633925 616 140 616 c 2
 342 616 l 1
 342 768 l 2
 342 794.146366075 363.855528292 816 390 816 c 0
 416.144471708 816 438 794.146366075 438 768 c 2
 438 616 l 1
 640 616 l 2
 666.144471708 616 688 594.146366075 688 568 c 0
 688 541.853633925 666.144471708 520 640 520 c 2
 438 520 l 1
 438 -32 l 2
 438 -58.1444717079 416.146366075 -80 390 -80 c 0
 363.853633925 -80 342 -58.1444717079 342 -32 c 2
 342 520 l 1
 140 520 l 2
 113.853633925 520 92 541.855528292 92 568 c 0
EndSplineSet
EndChar

StartChar: daggerdbl
Encoding: 8225 8225 258
Width: 780
VWidth: 0
Flags: HW
LayerCount: 2
Fore
SplineSet
92 168 m 0
 92 194.144471708 113.853633925 216 140 216 c 2
 342 216 l 1
 342 520 l 1
 140 520 l 2
 113.853633925 520 92 541.855528292 92 568 c 0
 92 594.144471708 113.853633925 616 140 616 c 2
 342 616 l 1
 342 768 l 2
 342 794.146366075 363.855528292 816 390 816 c 0
 416.144471708 816 438 794.146366075 438 768 c 2
 438 616 l 1
 640 616 l 2
 666.144471708 616 688 594.146366075 688 568 c 0
 688 541.853633925 666.144471708 520 640 520 c 2
 438 520 l 1
 438 216 l 1
 640 216 l 2
 666.144471708 216 688 194.146366075 688 168 c 0
 688 141.853633925 666.144471708 120 640 120 c 2
 438 120 l 1
 438 -32 l 2
 438 -58.1444717079 416.146366075 -80 390 -80 c 0
 363.853633925 -80 342 -58.1444717079 342 -32 c 2
 342 120 l 1
 140 120 l 2
 113.853633925 120 92 141.855528292 92 168 c 0
EndSplineSet
EndChar

StartChar: uni2023
Encoding: 8227 8227 259
Width: 440
VWidth: 0
Flags: HW
LayerCount: 2
Fore
SplineSet
339.697504512 324.227767752 m 2
 179.697504512 252.227767752 l 2
 173.465594389 249.423408196 166.911938619 248.106251488 160.436709693 248.106251488 c 0
 140.768566426 248.106251488 121.823994258 260.258423833 114.817287216 279.79745497 c 0
 112.978838458 284.924186728 112 294.324418586 112 296 c 2
 112 440 l 2
 112 466.354847908 134.134417773 487.996663789 160.089835167 487.996663789 c 0
 161.307425075 487.996663789 162.53342357 487.949038267 163.765940101 487.852039613 c 0
 169.195551474 487.424730948 178.169505787 484.459831675 179.697504512 483.772232248 c 2
 339.697504512 411.772232248 l 2
 357.41431791 403.799666219 367.859580465 385.909263805 367.859580465 367.573988244 c 0
 367.859580465 359.869952701 366.015495047 352.087375898 362.091895195 344.928971439 c 0
 356.904220849 335.464328615 344.98204152 326.605809405 339.697504512 324.227767752 c 2
EndSplineSet
EndChar

StartChar: perthousand
Encoding: 8240 8240 260
Width: 1560
VWidth: 0
Flags: HW
HStem: 48 240<687.398 872.602 1167.4 1352.6> 448 240<207.398 392.602>
VStem: 140 320<500.922 635.078> 620 320<100.922 235.078> 1100 320<100.922 235.078>
CounterMasks: 1 38
LayerCount: 2
Fore
SplineSet
1468 168 m 0
 1468 63.8160564217 1362.75810272 0 1260 0 c 0
 1157.24228131 0 1052 63.8162648226 1052 168 c 0
 1052 272.183943578 1157.24189728 336 1260 336 c 0
 1362.75771869 336 1468 272.183735177 1468 168 c 0
1372 168 m 0
 1372 195.816264823 1333.24228131 240 1260 240 c 0
 1186.75810272 240 1148 195.816056422 1148 168 c 0
 1148 140.183735177 1186.75771869 96 1260 96 c 0
 1333.24189728 96 1372 140.183943578 1372 168 c 0
988 168 m 0
 988 63.8160564217 882.758102718 0 780 0 c 0
 677.242281309 0 572 63.8162648226 572 168 c 0
 572 272.183943578 677.241897282 336 780 336 c 0
 882.757718691 336 988 272.183735177 988 168 c 0
892 168 m 0
 892 195.816264823 853.242281309 240 780 240 c 0
 706.758102718 240 668 195.816056422 668 168 c 0
 668 140.183735177 706.757718691 96 780 96 c 0
 853.241897282 96 892 140.183943578 892 168 c 0
508 568 m 0
 508 463.816056422 402.758102718 400 300 400 c 0
 197.242281309 400 92 463.816264823 92 568 c 0
 92 672.183943578 197.241897282 736 300 736 c 0
 402.757718691 736 508 672.183735177 508 568 c 0
412 568 m 0
 412 595.816264823 373.242281309 640 300 640 c 0
 226.758102718 640 188 595.816056422 188 568 c 0
 188 540.183735177 226.757718691 496 300 496 c 0
 373.241897282 496 412 540.183943578 412 568 c 0
292.806616501 8.44598763843 m 0
 279.409302061 17.6566413164 272.166353552 32.8915423673 272.166353552 48.277651907 c 0
 272.166353552 57.6338525778 274.844638703 67.0459668658 280.445987638 75.1933834986 c 2
 720.445987638 715.193383499 l 2
 729.656641316 728.590697939 744.891542367 735.833646448 760.277651907 735.833646448 c 0
 769.633852578 735.833646448 779.045966866 733.155361297 787.193383499 727.554012362 c 0
 800.591323183 718.342928828 807.833592084 703.108134966 807.833592084 687.722567234 c 0
 807.833592084 678.366058023 805.155192975 668.953788303 799.554012362 660.806616501 c 2
 359.554012362 20.8066165014 l 2
 350.342928828 7.40867681676 335.108134966 0.1664079155 319.722567234 0.1664079155 c 0
 310.366058023 0.1664079155 300.953788303 2.84480702467 292.806616501 8.44598763843 c 0
EndSplineSet
EndChar

